<svg xmlns="http://www.w3.org/2000/svg" viewBox="177 -176 385 385"><path fill="#CEF0EE" d="M262 176.1c-51.4-34.6-85.2-93.3-85.2-159.7 0-106.2 86.4-192.6 192.6-192.6S562-89.8 562 16.4c0 66-33.4 124.3-84.1 159-30.9 21.2-185.2 21.5-215.9.7z"/><path fill="#FFF" d="M369.4 209c40 0 77.2-12.3 108-33.2-.3-9.5-1.1-32.6-2.1-40.6-1.3-10.1-7.5-17-15-21 0 0-46.8-14.8-70.2-18.5V58.4h-1.7c24.2-9 42.7-35.9 48-69.6 2.2-.9 5.6-4.5 6.8-17.6 2-20.8-5.2-21-6.2-20.3-6-42.8-33.1-75-66.4-75s-61.2 32.3-67.3 75c-1.2 0-5.2.1-5.8 4.8-.7 5.1-3.4 32.9 6.1 33.4 5.5 33.6 24.5 60.3 48.8 69.3H350v38.7l-12 1.3-35.5 8.8-27.4 10.4-7.1 7.3-3.7 17.3s-2.6 20.9-3.5 33.2c30.9 21.1 68.3 33.6 108.6 33.6z"/><g fill="none" stroke="#FFF" stroke-width="2" stroke-linecap="round" stroke-linejoin="round" stroke-miterlimit="10"><path d="M346.4-168.6l1.7 9.9M349.8-148.9l1.7 9.9M363.9-155.3l-9.8 1.6M344.2-152l-9.8 1.7M347-165.6l1.1 6.9M349.8-148.9l1.2 6.9M356.4-163.7l-4 5.7M346.6-149.8l-4.1 5.7M359.3-146.9l-5.7-4.1M345.4-156.8l-5.7-4"/></g><g fill="none" stroke="#FFF" stroke-width="2" stroke-linecap="round" stroke-linejoin="round" stroke-miterlimit="10"><path d="M319.8 87l-9.1 4.1M301.6 95.2l-9.1 4.1M311.4 107.3l-4.1-9.2M304.1 89.2l-4.1-9.1M317.1 88.2l-6.4 2.9M301.6 95.2l-6.4 2.9M317.6 97.9l-6.6-2.5M301.7 91.9l-6.6-2.5M302.1 104.9l2.5-6.6M308.1 89l2.5-6.6"/></g><path fill="none" stroke="#043743" stroke-width="3" stroke-linecap="round" stroke-linejoin="round" stroke-miterlimit="10" d="M383-43.9s-13.3-2.1-25.6 0"/><ellipse fill="none" stroke="#043743" stroke-width="3" stroke-linecap="round" stroke-miterlimit="10" cx="369.7" cy="-35.3" rx="67.3" ry="98.7"/><circle fill="#043743" cx="337" cy="-37.9" r="6.7"/><circle fill="#043743" cx="403" cy="-37.9" r="6.7"/><path fill="none" stroke="#043743" stroke-width="3" stroke-linecap="round" stroke-miterlimit="10" d="M362.5-30.6v29s0 7.5 7.5 7.5"/><path fill="none" stroke="#043743" stroke-width="3" stroke-linecap="round" stroke-linejoin="round" stroke-miterlimit="10" d="M313-50.6h38.2c3.6 0 6.5 3.1 6.2 6.7l-.9 9.8s-.9 12.8-19.6 12.8-24-8-24-27.8h-9M427.4-50.6h-38.2c-3.6 0-6.5 3.1-6.2 6.7l.9 9.8s.9 12.8 19.6 12.8c18.6 0 24-8 24-27.8h9M389.5 59.4v37s-3.6 11.5-18.9 17.5h-1.2c-15.3-6-18.9-17.5-18.9-17.5v-37"/><path fill="none" stroke="#043743" stroke-width="3" stroke-linecap="round" stroke-miterlimit="10" d="M346.8 23.3c10.2 1.6 27.1 3.1 45.2.4M317.3-57.8s19-4 33.7 0M422-57.8s-19-4-33.7 0"/><path fill="none" stroke="#043743" stroke-width="3" stroke-linecap="round" stroke-linejoin="round" stroke-miterlimit="10" d="M350.5 96.4s-70.3 11.1-81.2 26c-4.9 6.7-6.8 31.3-7.4 54M389.8 96.4s70.3 11.1 81.2 26c4.8 6.6 6.7 30.6 7.3 53M305.5 198.4v-24M432.5 198.4v-24"/><path fill="none" stroke="#043743" stroke-width="3" stroke-linecap="round" stroke-miterlimit="10" d="M303-48.7s-6.1-1.3-6.1 6.1-2.5 31.6 7 31.6M436.6-48.7s6.1-1.3 6.1 6.1 2.5 31.6-7 31.6M370 11.9h-29s-8.5 0-8.5 8.5v26M370 11.9h28.5s8 0 8 8.5v27"/><circle fill="#043743" cx="337" cy="-37.9" r="6.7"/><circle fill="#043743" cx="403" cy="-37.9" r="6.7"/><path fill="#043743" d="M371 63.4c11-.2 24.1-6.9 24.1-6.9-16 0-19.6-9.2-19.6-15.4 0-5.8-5-5.7-5.6-5.6-.6 0-5.6-.2-5.6 5.6 0 6.2-3.5 15.4-19.5 15.4 0 0 13.2 6.7 25.2 6.9h1zM444.2-110.9c-.4-2.2-2.4-3.9-4.6-4-6.5-.2-13.5-9.2-27.9-21.4-17-14.3-45.3-11.7-64.9-9.3s-41.8 23.7-44.4 29c-2 4 0 13.6 1 18 .4 1.5.1 3.1-.7 4.4l-4.3 6.9c-1 1.6-1.2 3.6-.4 5.4 1.1 2.6 2.4 6.5 2.4 9.8 0 10.6 3 53 3 53s.9-61 21.2-81.1c.9-.9 2.1-1.5 3.4-1.7 6.8-.9 30.1-3.8 41.5-.7 2.1.6 20.3-7 41.7.8.4.2.9.4 1.2.6 4.1 2.5 24 18.3 24 82.1 0 0 2.3-62.7 2.9-66.2.6-3.2 7.6-11.8 4.9-25.6z"/><g fill="none" stroke="#FFF" stroke-width="2" stroke-linecap="round" stroke-linejoin="round" stroke-miterlimit="10"><path d="M214.6-55.5l-3.7 9.2M207.1-37l-3.7 9.3M222.5-35.1l-9.2-3.7M204-42.6l-9.3-3.7M213.5-52.8l-2.6 6.5M207.1-37l-2.6 6.5M220.5-46.1l-6.4 2.7M204.9-39.5l-6.5 2.7M214.1-30.4l-2.7-6.4M207.5-46l-2.7-6.5"/></g><g fill="none" stroke="#FFF" stroke-width="2" stroke-linecap="round" stroke-linejoin="round" stroke-miterlimit="10"><path d="M516.9-90.5l-9.8 1.8M497.2-87l-9.8 1.8M503.8-72.9l-1.8-9.8M501.3-92.6l-1.8-9.8M513.9-90l-6.8 1.3M497.2-87l-6.9 1.3M512.1-80.5l-5.8-4M498.1-90.2l-5.7-4M495.4-77.5l4-5.8M505.1-91.5l4-5.7"/></g><g fill="none" stroke="#FFF" stroke-width="2" stroke-linecap="round" stroke-linejoin="round" stroke-miterlimit="10"><path d="M492.5 69.9l-8.3 5.5M475.9 80.9l-8.4 5.5M487.5 91.2l-5.5-8.3M477.4 74.5l-5.5-8.3M490 71.5l-5.8 3.9M475.9 80.9l-5.9 3.9M492.1 81l-6.9-1.4M475.4 77.6l-6.8-1.4M477.9 90.3l1.4-6.8M481.3 73.7l1.4-6.9"/></g><g><path fill="none" stroke="#043743" stroke-width="3" stroke-linecap="round" stroke-linejoin="round" stroke-miterlimit="10" d="M412 160.6c1.8 4.1 3.2 8.6 3.7 13.2"/><path fill="#043743" d="M404.7 150.4l-1.1-1.5c-.4-.5-.7-1-1.1-1.5l-1.1-1.5c-.4-.5-.8-1-1.1-1.4-.4-.5-.8-1-1.2-1.4-.4-.5-.8-.9-1.2-1.4s-.8-.9-1.2-1.4c-.4-.4-.8-.9-1.2-1.3l1.1.4h-.1l1.1-.4c-.5.6-1.1 1.2-1.7 1.8s-1.1 1.3-1.6 1.9c-1.1 1.3-2.1 2.6-3.1 4-2 2.7-3.8 5.6-5.4 8.5s-3 6-4.1 9.1c-.3.8-.5 1.6-.8 2.4l-.6 2.4c-.2.8-.4 1.6-.5 2.4-.2.8-.2 1.6-.3 2.4l-3.9-1.3c.6-1 1.1-1.7 1.7-2.4.6-.8 1.2-1.5 1.8-2.2 1.3-1.4 2.6-2.7 4.1-3.9.7-.6 1.5-1.2 2.2-1.7.8-.6 1.5-1.1 2.3-1.6s1.6-1 2.4-1.4 1.6-.9 2.5-1.3c.8-.4 1.7-.8 2.6-1.1s1.7-.7 2.6-.9c.9-.3 1.8-.5 2.7-.8.9-.2 1.8-.5 2.7-.6 1.8-.4 3.7-.6 5.5-.8.9-.1 1.8-.1 2.8-.2h2.8c.8 0 1.5.7 1.5 1.5s-.6 1.5-1.4 1.5h-.1c-.9 0-1.7.1-2.6.1-.9.1-1.7.1-2.6.2-1.7.2-3.4.5-5.1.9-.8.2-1.7.4-2.5.6-.8.3-1.7.5-2.5.8l-2.4.9c-.8.4-1.6.7-2.3 1.1-.8.4-1.5.8-2.3 1.2-.7.4-1.5.9-2.2 1.4l-2.1 1.5s-1.3 1.1-2 1.6c-1.3 1.1-2.5 2.3-3.6 3.6-.5.6-1.1 1.3-1.6 2s-1 1.4-1.3 2l-.1.1c-.6 1-1.8 1.4-2.8.8-.8-.4-1.2-1.3-1-2.1.1-.9.2-1.8.4-2.7s.4-1.8.6-2.6c.2-.9.5-1.7.8-2.6s.6-1.7.9-2.5c1.3-3.3 2.9-6.5 4.6-9.5 1.8-3 3.8-5.9 5.9-8.7 1.1-1.4 2.2-2.7 3.3-4.1.6-.7 1.2-1.3 1.8-2 .6-.6 1.2-1.3 1.8-1.9.3-.3.7-.4 1-.4h.1c.4 0 .8.2 1 .4.5.5.9.9 1.3 1.4s.8.9 1.3 1.4l1.2 1.5 1.2 1.5 1.2 1.5 1.1 1.5c.4.5.7 1 1.1 1.5l1.1 1.5c.5.7.3 1.6-.4 2.1-.5.6-1.5.4-1.9-.3z"/></g></svg>
