<?xml version="1.0" encoding="utf-8"?>
<!-- Generator: Adobe Illustrator 18.1.1, SVG Export Plug-In . SVG Version: 6.00 Build 0)  -->
<svg version="1.1" id="Layer_1" xmlns="http://www.w3.org/2000/svg" xmlns:xlink="http://www.w3.org/1999/xlink" x="0px" y="0px"
	 width="385px" height="385px" viewBox="177 -176 385 385" enable-background="new 177 -176 385 385" xml:space="preserve">
<g id="Layer_3">
</g>
<g id="Layer_1_1_">
	<g>
		<path fill="#CEF0EE" d="M262,176.1c-51.4-34.6-85.2-93.3-85.2-159.7c0-106.2,86.4-192.6,192.6-192.6S562-89.8,562,16.4
			c0,66-33.4,124.3-84.1,159C447,196.6,292.7,196.9,262,176.1z"/>
		<path fill="#FFFFFF" d="M369.4,209c40,0,77.2-12.3,108-33.2c-0.3-9.5-1.1-32.6-2.1-40.6c-1.3-10.1-7.5-17-15-21
			c0,0-46.8-14.8-70.2-18.5V58.4h-1.7c24.2-9,42.7-35.9,48-69.6c2.2-0.9,5.6-4.5,6.8-17.6c2-20.8-5.2-21-6.2-20.3l0,0
			c-6-42.8-33.1-75-66.4-75s-61.2,32.3-67.3,75c-1.2,0-5.2,0.1-5.8,4.8c-0.7,5.1-3.4,32.9,6.1,33.4c5.5,33.6,24.5,60.3,48.8,69.3
			H350v38.7l-12,1.3l-35.5,8.8l-27.4,10.4l-7.1,7.3l-3.7,17.3c0,0-2.6,20.9-3.5,33.2C291.7,196.5,329.1,209,369.4,209z"/>
		<g>
			
				<line fill="none" stroke="#FFFFFF" stroke-width="2" stroke-linecap="round" stroke-linejoin="round" stroke-miterlimit="10" x1="346.4" y1="-168.6" x2="348.1" y2="-158.7"/>
			
				<line fill="none" stroke="#FFFFFF" stroke-width="2" stroke-linecap="round" stroke-linejoin="round" stroke-miterlimit="10" x1="349.8" y1="-148.9" x2="351.5" y2="-139"/>
			
				<line fill="none" stroke="#FFFFFF" stroke-width="2" stroke-linecap="round" stroke-linejoin="round" stroke-miterlimit="10" x1="363.9" y1="-155.3" x2="354.1" y2="-153.7"/>
			
				<line fill="none" stroke="#FFFFFF" stroke-width="2" stroke-linecap="round" stroke-linejoin="round" stroke-miterlimit="10" x1="344.2" y1="-152" x2="334.4" y2="-150.3"/>
			
				<line fill="none" stroke="#FFFFFF" stroke-width="2" stroke-linecap="round" stroke-linejoin="round" stroke-miterlimit="10" x1="347" y1="-165.6" x2="348.1" y2="-158.7"/>
			
				<line fill="none" stroke="#FFFFFF" stroke-width="2" stroke-linecap="round" stroke-linejoin="round" stroke-miterlimit="10" x1="349.8" y1="-148.9" x2="351" y2="-142"/>
			
				<line fill="none" stroke="#FFFFFF" stroke-width="2" stroke-linecap="round" stroke-linejoin="round" stroke-miterlimit="10" x1="356.4" y1="-163.7" x2="352.4" y2="-158"/>
			
				<line fill="none" stroke="#FFFFFF" stroke-width="2" stroke-linecap="round" stroke-linejoin="round" stroke-miterlimit="10" x1="346.6" y1="-149.8" x2="342.5" y2="-144.1"/>
			
				<line fill="none" stroke="#FFFFFF" stroke-width="2" stroke-linecap="round" stroke-linejoin="round" stroke-miterlimit="10" x1="359.3" y1="-146.9" x2="353.6" y2="-151"/>
			
				<line fill="none" stroke="#FFFFFF" stroke-width="2" stroke-linecap="round" stroke-linejoin="round" stroke-miterlimit="10" x1="345.4" y1="-156.8" x2="339.7" y2="-160.8"/>
		</g>
		<g>
			
				<line fill="none" stroke="#FFFFFF" stroke-width="2" stroke-linecap="round" stroke-linejoin="round" stroke-miterlimit="10" x1="319.8" y1="87" x2="310.7" y2="91.1"/>
			
				<line fill="none" stroke="#FFFFFF" stroke-width="2" stroke-linecap="round" stroke-linejoin="round" stroke-miterlimit="10" x1="301.6" y1="95.2" x2="292.5" y2="99.3"/>
			
				<line fill="none" stroke="#FFFFFF" stroke-width="2" stroke-linecap="round" stroke-linejoin="round" stroke-miterlimit="10" x1="311.4" y1="107.3" x2="307.3" y2="98.1"/>
			
				<line fill="none" stroke="#FFFFFF" stroke-width="2" stroke-linecap="round" stroke-linejoin="round" stroke-miterlimit="10" x1="304.1" y1="89.2" x2="300" y2="80.1"/>
			
				<line fill="none" stroke="#FFFFFF" stroke-width="2" stroke-linecap="round" stroke-linejoin="round" stroke-miterlimit="10" x1="317.1" y1="88.2" x2="310.7" y2="91.1"/>
			
				<line fill="none" stroke="#FFFFFF" stroke-width="2" stroke-linecap="round" stroke-linejoin="round" stroke-miterlimit="10" x1="301.6" y1="95.2" x2="295.2" y2="98.1"/>
			
				<line fill="none" stroke="#FFFFFF" stroke-width="2" stroke-linecap="round" stroke-linejoin="round" stroke-miterlimit="10" x1="317.6" y1="97.9" x2="311" y2="95.4"/>
			
				<line fill="none" stroke="#FFFFFF" stroke-width="2" stroke-linecap="round" stroke-linejoin="round" stroke-miterlimit="10" x1="301.7" y1="91.9" x2="295.1" y2="89.4"/>
			
				<line fill="none" stroke="#FFFFFF" stroke-width="2" stroke-linecap="round" stroke-linejoin="round" stroke-miterlimit="10" x1="302.1" y1="104.9" x2="304.6" y2="98.3"/>
			
				<line fill="none" stroke="#FFFFFF" stroke-width="2" stroke-linecap="round" stroke-linejoin="round" stroke-miterlimit="10" x1="308.1" y1="89" x2="310.6" y2="82.4"/>
		</g>
		<path fill="none" stroke="#043743" stroke-width="3" stroke-linecap="round" stroke-linejoin="round" stroke-miterlimit="10" d="
			M383-43.9c0,0-13.3-2.1-25.6,0"/>
		<g>
			
				<ellipse fill="none" stroke="#043743" stroke-width="3" stroke-linecap="round" stroke-miterlimit="10" cx="369.7" cy="-35.3" rx="67.3" ry="98.7"/>
			<circle fill="#043743" cx="337" cy="-37.9" r="6.7"/>
			<circle fill="#043743" cx="403" cy="-37.9" r="6.7"/>
			<path fill="none" stroke="#043743" stroke-width="3" stroke-linecap="round" stroke-miterlimit="10" d="M362.5-30.6v29
				c0,0,0,7.5,7.5,7.5"/>
			<path fill="none" stroke="#043743" stroke-width="3" stroke-linecap="round" stroke-linejoin="round" stroke-miterlimit="10" d="
				M313-50.6h38.2c3.6,0,6.5,3.1,6.2,6.7l-0.9,9.8c0,0-0.9,12.8-19.6,12.8s-24-8-24-27.8h-9"/>
			<path fill="none" stroke="#043743" stroke-width="3" stroke-linecap="round" stroke-linejoin="round" stroke-miterlimit="10" d="
				M427.4-50.6h-38.2c-3.6,0-6.5,3.1-6.2,6.7l0.9,9.8c0,0,0.9,12.8,19.6,12.8c18.6,0,24-8,24-27.8h9"/>
			<path fill="none" stroke="#043743" stroke-width="3" stroke-linecap="round" stroke-linejoin="round" stroke-miterlimit="10" d="
				M389.5,59.4v37c0,0-3.6,11.5-18.9,17.5h-1.2c-15.3-6-18.9-17.5-18.9-17.5v-37"/>
			<path fill="none" stroke="#043743" stroke-width="3" stroke-linecap="round" stroke-miterlimit="10" d="M346.8,23.3
				c10.2,1.6,27.1,3.1,45.2,0.4"/>
			<path fill="none" stroke="#043743" stroke-width="3" stroke-linecap="round" stroke-miterlimit="10" d="M317.3-57.8
				c0,0,19-4,33.7,0"/>
			<path fill="none" stroke="#043743" stroke-width="3" stroke-linecap="round" stroke-miterlimit="10" d="M422-57.8
				c0,0-19-4-33.7,0"/>
			<path fill="none" stroke="#043743" stroke-width="3" stroke-linecap="round" stroke-linejoin="round" stroke-miterlimit="10" d="
				M350.5,96.4c0,0-70.3,11.1-81.2,26c-4.9,6.7-6.8,31.3-7.4,54"/>
			<path fill="none" stroke="#043743" stroke-width="3" stroke-linecap="round" stroke-linejoin="round" stroke-miterlimit="10" d="
				M389.8,96.4c0,0,70.3,11.1,81.2,26c4.8,6.6,6.7,30.6,7.3,53"/>
			
				<line fill="none" stroke="#043743" stroke-width="3" stroke-linecap="round" stroke-linejoin="round" stroke-miterlimit="10" x1="305.5" y1="198.4" x2="305.5" y2="174.4"/>
			
				<line fill="none" stroke="#043743" stroke-width="3" stroke-linecap="round" stroke-linejoin="round" stroke-miterlimit="10" x1="432.5" y1="198.4" x2="432.5" y2="174.4"/>
			<path fill="none" stroke="#043743" stroke-width="3" stroke-linecap="round" stroke-miterlimit="10" d="M303-48.7
				c0,0-6.1-1.3-6.1,6.1s-2.5,31.6,7,31.6"/>
			<path fill="none" stroke="#043743" stroke-width="3" stroke-linecap="round" stroke-miterlimit="10" d="M436.6-48.7
				c0,0,6.1-1.3,6.1,6.1s2.5,31.6-7,31.6"/>
			<path fill="none" stroke="#043743" stroke-width="3" stroke-linecap="round" stroke-miterlimit="10" d="M370,11.9h-29
				c0,0-8.5,0-8.5,8.5c0,8.2,0,26,0,26"/>
			<path fill="none" stroke="#043743" stroke-width="3" stroke-linecap="round" stroke-miterlimit="10" d="M370,11.9h28.5
				c0,0,8,0,8,8.5c0,8.2,0,27,0,27"/>
		</g>
		<circle fill="#043743" cx="337" cy="-37.9" r="6.7"/>
		<circle fill="#043743" cx="403" cy="-37.9" r="6.7"/>
		<path fill="none" stroke="#043743" stroke-width="3" stroke-linecap="round" stroke-linejoin="round" stroke-miterlimit="10" d="
			M337-43.4"/>
		<path fill="#043743" d="M371,63.4c11-0.2,24.1-6.9,24.1-6.9c-16,0-19.6-9.2-19.6-15.4c0-5.8-5-5.7-5.6-5.6c-0.6,0-5.6-0.2-5.6,5.6
			c0,6.2-3.5,15.4-19.5,15.4c0,0,13.2,6.7,25.2,6.9l0,0c0,0,0.4,0,0.5,0S371,63.4,371,63.4L371,63.4z"/>
		<path fill="#043743" d="M444.2-110.9c-0.4-2.2-2.4-3.9-4.6-4c-6.5-0.2-13.5-9.2-27.9-21.4c-17-14.3-45.3-11.7-64.9-9.3
			s-41.8,23.7-44.4,29c-2,4,0,13.6,1,18c0.4,1.5,0.1,3.1-0.7,4.4l-4.3,6.9c-1,1.6-1.2,3.6-0.4,5.4c1.1,2.6,2.4,6.5,2.4,9.8
			c0,10.6,3,53,3,53s0.9-61,21.2-81.1c0.9-0.9,2.1-1.5,3.4-1.7c6.8-0.9,30.1-3.8,41.5-0.7c2.1,0.6,20.3-7,41.7,0.8
			c0.4,0.2,0.9,0.4,1.2,0.6c4.1,2.5,24,18.3,24,82.1c0,0,2.3-62.7,2.9-66.2C439.9-88.5,446.9-97.1,444.2-110.9z"/>
		<g>
			
				<line fill="none" stroke="#FFFFFF" stroke-width="2" stroke-linecap="round" stroke-linejoin="round" stroke-miterlimit="10" x1="214.6" y1="-55.5" x2="210.9" y2="-46.3"/>
			
				<line fill="none" stroke="#FFFFFF" stroke-width="2" stroke-linecap="round" stroke-linejoin="round" stroke-miterlimit="10" x1="207.1" y1="-37" x2="203.4" y2="-27.7"/>
			
				<line fill="none" stroke="#FFFFFF" stroke-width="2" stroke-linecap="round" stroke-linejoin="round" stroke-miterlimit="10" x1="222.5" y1="-35.1" x2="213.3" y2="-38.8"/>
			
				<line fill="none" stroke="#FFFFFF" stroke-width="2" stroke-linecap="round" stroke-linejoin="round" stroke-miterlimit="10" x1="204" y1="-42.6" x2="194.7" y2="-46.3"/>
			
				<line fill="none" stroke="#FFFFFF" stroke-width="2" stroke-linecap="round" stroke-linejoin="round" stroke-miterlimit="10" x1="213.5" y1="-52.8" x2="210.9" y2="-46.3"/>
			
				<line fill="none" stroke="#FFFFFF" stroke-width="2" stroke-linecap="round" stroke-linejoin="round" stroke-miterlimit="10" x1="207.1" y1="-37" x2="204.5" y2="-30.5"/>
			
				<line fill="none" stroke="#FFFFFF" stroke-width="2" stroke-linecap="round" stroke-linejoin="round" stroke-miterlimit="10" x1="220.5" y1="-46.1" x2="214.1" y2="-43.4"/>
			
				<line fill="none" stroke="#FFFFFF" stroke-width="2" stroke-linecap="round" stroke-linejoin="round" stroke-miterlimit="10" x1="204.9" y1="-39.5" x2="198.4" y2="-36.8"/>
			
				<line fill="none" stroke="#FFFFFF" stroke-width="2" stroke-linecap="round" stroke-linejoin="round" stroke-miterlimit="10" x1="214.1" y1="-30.4" x2="211.4" y2="-36.8"/>
			
				<line fill="none" stroke="#FFFFFF" stroke-width="2" stroke-linecap="round" stroke-linejoin="round" stroke-miterlimit="10" x1="207.5" y1="-46" x2="204.8" y2="-52.5"/>
		</g>
		<g>
			
				<line fill="none" stroke="#FFFFFF" stroke-width="2" stroke-linecap="round" stroke-linejoin="round" stroke-miterlimit="10" x1="516.9" y1="-90.5" x2="507.1" y2="-88.7"/>
			
				<line fill="none" stroke="#FFFFFF" stroke-width="2" stroke-linecap="round" stroke-linejoin="round" stroke-miterlimit="10" x1="497.2" y1="-87" x2="487.4" y2="-85.2"/>
			
				<line fill="none" stroke="#FFFFFF" stroke-width="2" stroke-linecap="round" stroke-linejoin="round" stroke-miterlimit="10" x1="503.8" y1="-72.9" x2="502" y2="-82.7"/>
			
				<line fill="none" stroke="#FFFFFF" stroke-width="2" stroke-linecap="round" stroke-linejoin="round" stroke-miterlimit="10" x1="501.3" y1="-92.6" x2="499.5" y2="-102.4"/>
			
				<line fill="none" stroke="#FFFFFF" stroke-width="2" stroke-linecap="round" stroke-linejoin="round" stroke-miterlimit="10" x1="513.9" y1="-90" x2="507.1" y2="-88.7"/>
			
				<line fill="none" stroke="#FFFFFF" stroke-width="2" stroke-linecap="round" stroke-linejoin="round" stroke-miterlimit="10" x1="497.2" y1="-87" x2="490.3" y2="-85.7"/>
			
				<line fill="none" stroke="#FFFFFF" stroke-width="2" stroke-linecap="round" stroke-linejoin="round" stroke-miterlimit="10" x1="512.1" y1="-80.5" x2="506.3" y2="-84.5"/>
			
				<line fill="none" stroke="#FFFFFF" stroke-width="2" stroke-linecap="round" stroke-linejoin="round" stroke-miterlimit="10" x1="498.1" y1="-90.2" x2="492.4" y2="-94.2"/>
			
				<line fill="none" stroke="#FFFFFF" stroke-width="2" stroke-linecap="round" stroke-linejoin="round" stroke-miterlimit="10" x1="495.4" y1="-77.5" x2="499.4" y2="-83.3"/>
			
				<line fill="none" stroke="#FFFFFF" stroke-width="2" stroke-linecap="round" stroke-linejoin="round" stroke-miterlimit="10" x1="505.1" y1="-91.5" x2="509.1" y2="-97.2"/>
		</g>
		<g>
			
				<line fill="none" stroke="#FFFFFF" stroke-width="2" stroke-linecap="round" stroke-linejoin="round" stroke-miterlimit="10" x1="492.5" y1="69.9" x2="484.2" y2="75.4"/>
			
				<line fill="none" stroke="#FFFFFF" stroke-width="2" stroke-linecap="round" stroke-linejoin="round" stroke-miterlimit="10" x1="475.9" y1="80.9" x2="467.5" y2="86.4"/>
			
				<line fill="none" stroke="#FFFFFF" stroke-width="2" stroke-linecap="round" stroke-linejoin="round" stroke-miterlimit="10" x1="487.5" y1="91.2" x2="482" y2="82.9"/>
			
				<line fill="none" stroke="#FFFFFF" stroke-width="2" stroke-linecap="round" stroke-linejoin="round" stroke-miterlimit="10" x1="477.4" y1="74.5" x2="471.9" y2="66.2"/>
			
				<line fill="none" stroke="#FFFFFF" stroke-width="2" stroke-linecap="round" stroke-linejoin="round" stroke-miterlimit="10" x1="490" y1="71.5" x2="484.2" y2="75.4"/>
			
				<line fill="none" stroke="#FFFFFF" stroke-width="2" stroke-linecap="round" stroke-linejoin="round" stroke-miterlimit="10" x1="475.9" y1="80.9" x2="470" y2="84.8"/>
			
				<line fill="none" stroke="#FFFFFF" stroke-width="2" stroke-linecap="round" stroke-linejoin="round" stroke-miterlimit="10" x1="492.1" y1="81" x2="485.2" y2="79.6"/>
			
				<line fill="none" stroke="#FFFFFF" stroke-width="2" stroke-linecap="round" stroke-linejoin="round" stroke-miterlimit="10" x1="475.4" y1="77.6" x2="468.6" y2="76.2"/>
			
				<line fill="none" stroke="#FFFFFF" stroke-width="2" stroke-linecap="round" stroke-linejoin="round" stroke-miterlimit="10" x1="477.9" y1="90.3" x2="479.3" y2="83.5"/>
			
				<line fill="none" stroke="#FFFFFF" stroke-width="2" stroke-linecap="round" stroke-linejoin="round" stroke-miterlimit="10" x1="481.3" y1="73.7" x2="482.7" y2="66.8"/>
		</g>
		<g>
			<path fill="none" stroke="#043743" stroke-width="3" stroke-linecap="round" stroke-linejoin="round" stroke-miterlimit="10" d="
				M412,160.6c1.8,4.1,3.2,8.6,3.7,13.2"/>
			<path fill="none" stroke="#043743" stroke-width="3" stroke-linecap="round" stroke-linejoin="round" stroke-miterlimit="10" d="
				M412,160.6"/>
			<g>
				<path fill="#043743" d="M404.7,150.4l-1.1-1.5c-0.4-0.5-0.7-1-1.1-1.5l-1.1-1.5c-0.4-0.5-0.8-1-1.1-1.4c-0.4-0.5-0.8-1-1.2-1.4
					c-0.4-0.5-0.8-0.9-1.2-1.4s-0.8-0.9-1.2-1.4c-0.4-0.4-0.8-0.9-1.2-1.3l1.1,0.4h-0.1l1.1-0.4l0,0c-0.5,0.6-1.1,1.2-1.7,1.8
					s-1.1,1.3-1.6,1.9c-1.1,1.3-2.1,2.6-3.1,4c-2,2.7-3.8,5.6-5.4,8.5s-3,6-4.1,9.1c-0.3,0.8-0.5,1.6-0.8,2.4
					c-0.2,0.8-0.4,1.6-0.6,2.4c-0.2,0.8-0.4,1.6-0.5,2.4c-0.2,0.8-0.2,1.6-0.3,2.4l-3.9-1.3c0.6-1,1.1-1.7,1.7-2.4
					c0.6-0.8,1.2-1.5,1.8-2.2c1.3-1.4,2.6-2.7,4.1-3.9c0.7-0.6,1.5-1.2,2.2-1.7c0.8-0.6,1.5-1.1,2.3-1.6s1.6-1,2.4-1.4
					s1.6-0.9,2.5-1.3c0.8-0.4,1.7-0.8,2.6-1.1s1.7-0.7,2.6-0.9c0.9-0.3,1.8-0.5,2.7-0.8c0.9-0.2,1.8-0.5,2.7-0.6
					c1.8-0.4,3.7-0.6,5.5-0.8c0.9-0.1,1.8-0.1,2.8-0.2c0.9,0,1.8,0,2.8,0c0.8,0,1.5,0.7,1.5,1.5s-0.6,1.5-1.4,1.5h-0.1
					c-0.9,0-1.7,0.1-2.6,0.1c-0.9,0.1-1.7,0.1-2.6,0.2c-1.7,0.2-3.4,0.5-5.1,0.9c-0.8,0.2-1.7,0.4-2.5,0.6c-0.8,0.3-1.7,0.5-2.5,0.8
					s-1.6,0.6-2.4,0.9c-0.8,0.4-1.6,0.7-2.3,1.1c-0.8,0.4-1.5,0.8-2.3,1.2c-0.7,0.4-1.5,0.9-2.2,1.4s-1.4,1-2.1,1.5s-1.3,1.1-2,1.6
					c-1.3,1.1-2.5,2.3-3.6,3.6c-0.5,0.6-1.1,1.3-1.6,2s-1,1.4-1.3,2l-0.1,0.1c-0.6,1-1.8,1.4-2.8,0.8c-0.8-0.4-1.2-1.3-1-2.1
					c0.1-0.9,0.2-1.8,0.4-2.7s0.4-1.8,0.6-2.6c0.2-0.9,0.5-1.7,0.8-2.6s0.6-1.7,0.9-2.5c1.3-3.3,2.9-6.5,4.6-9.5
					c1.8-3,3.8-5.9,5.9-8.7c1.1-1.4,2.2-2.7,3.3-4.1c0.6-0.7,1.2-1.3,1.8-2c0.6-0.6,1.2-1.3,1.8-1.9l0,0c0.3-0.3,0.7-0.4,1-0.4l0,0
					h0.1l0,0c0.4,0,0.8,0.2,1,0.4c0.5,0.5,0.9,0.9,1.3,1.4s0.8,0.9,1.3,1.4c0.4,0.5,0.8,1,1.2,1.5s0.8,1,1.2,1.5s0.8,1,1.2,1.5
					l1.1,1.5c0.4,0.5,0.7,1,1.1,1.5l1.1,1.5c0.5,0.7,0.3,1.6-0.4,2.1C406.1,151.3,405.1,151.1,404.7,150.4z"/>
			</g>
		</g>
	</g>
</g>
<g id="Layer_2">
</g>
</svg>
