<svg xmlns="http://www.w3.org/2000/svg" xmlns:xlink="http://www.w3.org/1999/xlink" width="1480" height="270" viewBox="0 0 1480 270" xml:space="preserve">
  <symbol id="awesome_star">
    <g class="star">
      <line fill="none" stroke="#68878F" stroke-linecap="round" stroke-miterlimit="10" x1="5" y1="5.9" x2="8" y2="8.3"></line>
      <line fill="none" stroke="#68878F" stroke-linecap="round" stroke-miterlimit="10" x1="10" y1="9.9" x2="13" y2="12.2"></line>
      <line fill="none" stroke="#68878F" stroke-linecap="round" stroke-miterlimit="10" x1="5.9" y1="13" x2="8.2" y2="10"></line>
      <line fill="none" stroke="#68878F" stroke-linecap="round" stroke-miterlimit="10" x1="9.8" y1="8" x2="12.1" y2="5"></line>
      <line fill="none" stroke="#68878F" stroke-linecap="round" stroke-miterlimit="10" x1="6.3" y1="9.4" x2="7.6" y2="9.2"></line>
      <line fill="none" stroke="#68878F" stroke-linecap="round" stroke-miterlimit="10" x1="10.6" y1="8.9" x2="12" y2="8.8"></line>
      <line fill="none" stroke="#68878F" stroke-linecap="round" stroke-miterlimit="10" x1="9.3" y1="11.9" x2="9.1" y2="10.6"></line>
      <line fill="none" stroke="#68878F" stroke-linecap="round" stroke-miterlimit="10" x1="8.8" y1="7.6" x2="8.7" y2="6.2"></line>
    </g>
  </symbol>
  
  <symbol id="amazing_star">
    <g class="star">
      <line fill="none" stroke="#68878E" stroke-linecap="round" stroke-miterlimit="10" x1="3.6" y1="0.9" x2="4.7" y2="4"></line>
      <line fill="none" stroke="#68878E" stroke-linecap="round" stroke-miterlimit="10" x1="5.6" y1="6.4" x2="6.7" y2="9.5"></line>
      <line fill="none" stroke="#68878E" stroke-linecap="round" stroke-miterlimit="10" x1="0.8" y1="6.8" x2="3.9" y2="5.7"></line>
      <line fill="none" stroke="#68878E" stroke-linecap="round" stroke-miterlimit="10" x1="6.4" y1="4.7" x2="9.5" y2="3.6"></line>
      <line fill="none" stroke="#68878E" stroke-linecap="round" stroke-miterlimit="10" x1="0.6" y1="2.9" x2="1.9" y2="3.6"></line>
      <line fill="none" stroke="#68878E" stroke-linecap="round" stroke-miterlimit="10" x1="8.2" y1="6.8" x2="9.5" y2="7.5"></line>
      <line fill="none" stroke="#68878E" stroke-linecap="round" stroke-miterlimit="10" x1="2.8" y1="9.4" x2="3.5" y2="8.1"></line>
      <line fill="none" stroke="#68878E" stroke-linecap="round" stroke-miterlimit="10" x1="6.7" y1="1.8" x2="7.4" y2="0.5"></line>
    </g>
  </symbol>
  
  <symbol id="astronaut">
  <path fill="#68878F" d="M37.9,15.3c-0.8-1.6-2.8-2.3-3-2.4c0,0,0,0-0.1,0c-0.5-1-1.6-1.7-2.7-1.8c-1.4-0.1-2.8-0.5-4.2-1.3
    c-0.1,0-0.2,0-0.2,0l-2-2.6c-0.1-1.5-0.8-3-2.2-4.2c-0.7-0.6-1.4-1.1-2.2-1.4l-1-1.3c-0.1-0.2-0.4-0.2-0.6-0.2L9.4,4.5
    c-0.1,0-0.2,0-0.3,0C8.9,4.6,8.8,4.8,8.8,5v4.2C8.6,9.3,8.3,9.4,8.1,9.6C7.8,9.8,0.6,15,0,23.2c-0.1,0.9,0.2,1.7,0.8,2.4
    c0.1,0.1,0.2,0.2,0.3,0.3c0.2,0,0.3,0.1,0.4,0.1c0.1,1.6,1.4,3,1.7,3.3c0.3,0.3,0.6,0.4,0.9,0.4c0.1,0,0.5-0.2,0.7-0.3
    c0.3,0.2,0.7,0.3,1,0.2c0.3-0.1,0.5-0.2,0.7-0.4c0.4-0.4,0.5-1,0.2-1.5c0-0.1-0.1-0.2-0.2-0.3c0,0-0.1-0.1-0.2-0.1
    c-0.1-0.1-0.6-0.7-0.7-1.3c0.1,0,0.1-0.1,0.2-0.1c0.1,0.2,0.2,0.4,0.3,0.6C6.3,27,7,27.5,7.7,27.2h0.1c0.3-0.1,0.6-0.3,0.8-0.6
    c0.1-0.3,0.2-0.7,0.1-1c-0.4-1.1-1.3-2-2-2.5C7,21,8,19.3,9,17.9v1.4c0,0.1,0,0.2,0.1,0.3L9.5,20c0.6,3.1,1.6,10.2-1.7,14.8
    c-0.5,0.7-0.7,1.6-0.5,2.5c0,0,0,0,0,0c0,0.1-0.1,0.1-0.1,0.2c-0.3,1.7-0.4,4.1,0.7,5.4c0.5,0.6,1.3,0.9,2.2,0.9c0.4,0.1,0.7,0,1,0
    c0.7-0.2,1.3-0.5,1.7-1.1c1-1.3,0.7-3.4,0.5-4.1c0.7-1,1.2-2.1,1.7-3.3c0.1-0.1,0.1-0.2,0.1-0.3c0.9-2.2,1.4-4.7,1.5-7.3
    c0.2,1.7,0.1,3.3-0.3,4.8c-0.1,0.3-0.1,0.6-0.1,0.9c-0.1,0.1-0.1,0.2-0.2,0.3c-0.5,2-0.5,3.6,0.2,4.6c0.4,0.7,1.1,1.1,2,1.2
    c0.6,0.2,1.1,0.2,1.5,0.1c0.5-0.1,0.9-0.3,1.3-0.7c1.1-1,1.3-2.7,1.2-3.7c0.2-0.3,0.3-0.6,0.4-0.9c0.9-3.4,0.7-7.1-0.4-11l2.2-1.4
    c0.1-0.1,0.2-0.2,0.2-0.3l1.6-5.1c1.7,0.7,3.5,1.2,5.3,1.3c0.2,0.3,0.4,0.5,0.7,0.7c0.3,0.2,0.7,0.2,1.1,0.1
    c0.3-0.1,0.6-0.3,0.8-0.6c0.1-0.1,0.1-0.2,0.2-0.3c0,0,0,0.1,0,0.1c0,0.6,0.7,1.1,1.5,0.9c0.3-0.1,0.6-0.2,0.8-0.5
    c0.2-0.3,0.3-0.6,0.2-0.9c0,0,0.1,0,0.1,0c0.1,0,0.2-0.1,0.3-0.1C37.9,16.8,38.2,16,37.9,15.3z M20.7,2.5L20.7,2.5
    c0.5,0.2,1,0.4,1.5,0.7c-1.8,0.5-4.7,1.8-6.1,5.2c-0.3-0.4-0.6-0.8-0.8-1.2C14.8,6.5,14.2,5,15.1,4C16,3.1,17,2.5,18,2.2
    C18.9,2,19.8,2.1,20.7,2.5L20.7,2.5z M14.4,7.8c1.4,2.4,4.3,4.8,6.8,5.1l-3.9,1.9l-2.3-3l-4.9-6.5l4.1-1.7
    C13.4,4.6,13.5,6.1,14.4,7.8z M24.4,11.4c0.6-0.8,1-1.7,1.2-2.7l1.2,1.5L24.4,11.4z M23,11.4c-0.2,0.3-0.5,0.4-0.9,0.5
    c-1.4,0.3-3.6-0.9-5.3-2.6c1.2-3.9,4.7-5,6.1-5.3C25.1,6.2,25.1,9.1,23,11.4z M19.7,1.2C19.7,1.2,19.7,1.2,19.7,1.2L19.7,1.2
    L19.7,1.2z M1.5,21.9C2,21.5,2.9,21,4.2,21.6c0.1,0,0.2,0,0.3,0c0.2,0,0.3-0.1,0.4-0.3c0.1-0.3,0-0.5-0.3-0.7
    c-1.2-0.5-2.2-0.3-2.9,0c0.6-2.5,1.9-4.6,3.1-6.3c0.3,0,1.7-0.2,2.7,1.2c0.1,0.2,0.3,0.2,0.5,0.2c0.1,0,0.1,0,0.2-0.1
    c0.2-0.2,0.3-0.5,0.1-0.7c-0.8-1.2-1.8-1.6-2.7-1.6c0.5-0.6,1-1.1,1.5-1.5c0,0,0.1,0,0.1,0c0.1,0,1.7-0.4,2.8,1.2
    c0.1,0.2,0.3,0.3,0.5,0.2c0.1,0,0.1,0,0.2-0.1c0.2-0.2,0.3-0.5,0.1-0.7c-0.7-1.1-1.7-1.5-2.5-1.6c0.3-0.2,0.5-0.4,0.5-0.4
    c0.1-0.1,0.2-0.1,0.2-0.1c0.1,0,0.1,0,0.2,0c0.2,0,0.4-0.1,0.4-0.3c0.9-0.2,1.8,0.1,2.4,1c0.7,1,0.5,2.5-0.6,3.2
    c-0.1,0-4.8,3.5-5.6,8.5c-0.5-0.1-1.2,0.1-1.5,0.6c-0.2,0.4-0.2,0.9,0,1.3c0,0-0.1,0-0.1,0c-0.3,0-0.5,0.1-0.7,0.2
    c-0.2-0.2-0.5-0.2-0.8-0.2c-0.3,0-0.7,0.1-0.9,0.4c-0.4-0.5-0.6-1.1-0.6-1.7C1.3,22.7,1.4,22.3,1.5,21.9z M3.9,28.5
    c-0.1-0.1-1.4-1.4-1.4-2.7c0-0.2,0.1-0.3,0.3-0.3c0.1,0,0.2,0.1,0.2,0.1c0,0.1,0,0.1,0,0.2c0,1.1,0.6,2.2,1.1,2.8
    C4,28.6,3.9,28.6,3.9,28.5z M5.9,28.5c-0.1,0.1-0.4,0.1-0.5,0c-0.1,0-1.4-1.3-1.4-2.7c0-0.1,0.1-0.3,0.3-0.3s0.4,0.2,0.4,0.4
    c0,0.9,0.7,1.9,1.3,2.2C6,28.2,6,28.4,5.9,28.5z M7.3,26.3c0,0-0.2-0.1-0.3-0.3c-0.3-0.9-1.1-1.7-1.7-1.9c-0.1-0.1-0.1-0.3,0-0.4
    c0-0.1,0.1-0.1,0.2-0.2c0-0.1,0.1-0.1,0.2,0c0,0,1.6,1,2,2.3c0,0.1,0,0.2,0,0.3C7.7,26.2,7.5,26.3,7.3,26.3 M11.9,15
    c1.5-1,1.9-3.1,0.8-4.6c-0.7-1-1.8-1.5-2.9-1.4V6.5l7,9.2l-1,9.8l-5.6-6.1c-0.1-0.1-0.1-0.2-0.2-0.3V17c0-0.1,0-0.2,0-0.2
    C11,15.6,11.9,15,11.9,15z M8.6,35.5c3-4.3,2.8-10.2,2.1-14.2l5,5.4c-0.1,3-0.5,5.6-1.4,7.9c-0.6,0.1-1.4,0-2.2-0.6
    c-0.2-0.2-0.5-0.1-0.7,0.1s-0.1,0.5,0.1,0.7c0.9,0.6,1.8,0.7,2.4,0.7c-0.2,0.4-0.4,0.7-0.5,1.1c0,0,0,0,0,0
    c-0.5,0.2-1.6,0.7-2.9-0.3c-0.2-0.2-0.5-0.1-0.7,0.1c-0.2,0.2-0.1,0.5,0.1,0.7c1,0.8,2,0.9,2.7,0.8c0,0.1-0.1,0.2-0.1,0.2
    c-0.4,0.5-0.9,0.9-1.5,1c-0.6,0.1-1.2,0-1.7-0.4c-0.5-0.4-0.8-0.9-1-1.5C8.1,36.6,8.2,36,8.6,35.5z M12,42.1c-0.4,0.5-1,0.7-1.8,0.8
    c-0.6,0-1.1-0.2-1.5-0.6c-0.6-0.6-0.7-1.8-0.6-3.4c0.2,0.2,0.4,0.4,0.6,0.6c0.6,0.5,1.5,0.8,2.5,0.6c0.4-0.1,0.9-0.3,1.3-0.6
    C12.6,40.3,12.6,41.4,12,42.1z M20.4,38c-0.4,0.4-1.1,0.5-1.9,0.4c-0.6-0.1-1-0.3-1.3-0.8c-0.4-0.5-0.5-1.4-0.3-2.5
    c0.4,0.6,1.1,1.1,1.9,1.3c0.4,0.3,0.9,0.3,1.4,0.2c0.3-0.1,0.7-0.2,1-0.4c0,0,0,0,0,0C21.1,36.8,20.9,37.5,20.4,38z M22.3,30.7
    c0,0-0.1,0-0.1,0c-0.4,0.2-1.6,0.6-2.8-0.4c-0.2-0.2-0.5-0.1-0.7,0.1c-0.2,0.2-0.1,0.5,0.1,0.7c1.2,0.9,2.3,1,3.1,0.8
    c0.1,0,0.2-0.1,0.3-0.1c0,0.3-0.1,0.7-0.2,1c-0.1,0-0.1,0-0.1,0.1c-0.1,0-1.5,0.9-3-0.3c-0.2-0.2-0.5-0.1-0.7,0.1
    c-0.2,0.2-0.1,0.5,0.1,0.7c1.1,0.8,2.2,0.8,3.1,0.7c0.1,0,0.3-0.1,0.4-0.1c0,0.1-0.1,0.2-0.1,0.2c-0.2,0.1-0.4,0.3-0.4,0.5
    c0,0,0,0.1,0,0.1c-0.2,0.2-0.3,0.4-0.6,0.5c-0.6,0.3-1.2,0.4-1.7,0.2c-0.6-0.2-1.1-0.5-1.4-1.1c-0.3-0.5-0.4-1.2-0.2-1.7
    c0.5-1.9,0.5-4.1,0.1-6.5l4-2.5C22.2,26.1,22.5,28.5,22.3,30.7z M23.8,21.1l-2.4,1.5c0,0,0,0,0,0l-4.6,2.9c0,0,0,0,0,0
    c0,0-0.1,0-0.1,0l1-9.8l9.1-4.3l-1.2,3.9c-0.1,0-0.1,0.1-0.2,0.1c-0.1,0.1,0,0.3,0,0.4L23.8,21.1z M26.6,15.4L28,11
    c0.6,0.3,1.3,0.6,2,0.8c-0.8,0.5-1.3,1.3-1.5,1.8c-0.1,0.3,0.1,0.5,0.3,0.6c0.2,0,0.2,0,0.3,0c0.2,0,0.3-0.2,0.4-0.3
    c0-0.1,0.6-1.6,2.5-1.6c0.1,0,0.2,0,0.3-0.1c0.7,0.1,1.2,0.4,1.6,0.9c-0.3,0.1-0.5,0.4-0.5,0.7c-0.2,0.5-0.1,1.1,0.4,1.5
    c0.1,0.1,0.3,0.1,0.4,0.2c-0.1,0.2-0.2,0.3-0.3,0.4c0-0.1-0.1-0.3-0.2-0.5c-0.2-0.6-0.9-1-1.6-0.9h-0.1c-0.7,0.2-1.1,1-0.9,1.7
    c0,0.2,0.1,0.4,0.2,0.5C29.6,16.5,28.1,16.1,26.6,15.4z M33.4,17.5c-0.1,0.2-0.3,0.3-0.5,0.2c-0.4-0.3-0.7-0.7-1-1.6
    c-0.1-0.2,0-0.1,0.2-0.1s0.4-0.2,0.4-0.1c0.2,0.7,0.5,0.8,0.7,1c0.1,0.1,0.2,0.2,0.2,0.3C33.5,17.3,33.5,17.4,33.4,17.5z M35.9,17.7
    c-0.1,0.1-0.1,0.1-0.2,0.1c-0.2,0-0.4-0.1-0.4-0.3c-0.1-0.5-0.4-1-0.6-1.3c0.1-0.1,0.2-0.3,0.3-0.4c0.2,0.2,0.4,0.4,0.6,0.6
    c0.1,0.1,0.2,0.3,0.3,0.4c0.1,0.2,0.2,0.4,0.2,0.6C36,17.5,36,17.6,35.9,17.7z M36.9,16.2L36.9,16.2c-0.2,0-0.2,0-0.3,0
    c0,0,0-0.1,0-0.1c-0.1-0.1-0.2-0.2-0.3-0.2c-0.3-0.5-0.7-0.8-1.1-1.1c0-0.2-0.2-0.3-0.4-0.4c-0.1,0-0.3,0-0.4,0c0,0-0.1,0-0.1,0
    c-0.1-0.1-0.1-0.3-0.1-0.4c0.1-0.1,0.2-0.2,0.3-0.2c0.1,0,0.1,0,0.2,0c0.1,0,1.8,0.6,2.4,1.9C37.1,15.9,37.1,16.1,36.9,16.2z"></path>
  </symbol>
  
  <symbol id="rocket">
    <g>
      <g>
        <circle fill="none" stroke="#68878F" stroke-width="1.5" stroke-miterlimit="10" cx="33" cy="48.6" r="6.6"></circle>
        <circle fill="none" stroke="#68878F" stroke-width="1.5" stroke-miterlimit="10" cx="16.8" cy="52.7" r="5"></circle>
        <circle fill="none" stroke="#68878F" stroke-width="1.5" stroke-miterlimit="10" cx="4.1" cy="56" r="3.3"></circle>
      </g>
      <g>
        <circle fill="none" stroke="#68878F" stroke-width="1.5" stroke-miterlimit="10" cx="127.5" cy="24.2" r="10.3"></circle>
        <circle fill="none" stroke="#68878F" stroke-width="1.5" stroke-miterlimit="10" cx="127.5" cy="24.1" r="6.9"></circle>

        <line fill="none" stroke="#68878F" stroke-width="1.5" stroke-linecap="round" stroke-miterlimit="10" x1="153" y1="7.2" x2="158" y2="26.5"></line>
        <path fill="none" stroke="#68878F" stroke-width="1.5" stroke-linecap="round" stroke-miterlimit="10" d="M68.4,32.9
          c0,0,7.7-8.4,18.4-16.2c9.6-6.9,19-11.3,27.1-13.3c7.1-1.7,18.2-2.7,27.2-2.6c8.3,0.1,17,1.4,29.1,5.1c6,1.9,8.3,2.6,8.6,5.1
          c0.2,2-1,3.3-3.2,5.7c-2.1,2.2-5,6-10.1,10.3s-14.7,10.8-18.8,13.1c-3.7,2.1-17.3,8.1-25.9,9.7s-21.7,1-27.3,0.2
          s-21.3-4.7-21.8-4.9"></path>
        <path fill="none" stroke="#68878F" stroke-width="1.5" stroke-linecap="round" stroke-miterlimit="10" d="M85,34.9
          c0.4,1.2,0.2,2.4-1.1,3.4c-3,2.3-8.7,5.6-15.2,7.5c-7.4,2.2-14.6,1.8-17.9,1.1c-1.5-0.3-2.4-1.3-2.6-2.4c-0.2-1.2-0.1-2.6,1-3.4
          c3.2-2.3,8.2-5.7,15.9-7.5c5.4-1.3,11.6-1.5,16.2-1.1C83.6,32.8,84.4,33.3,85,34.9z"></path>
        <path fill="none" stroke="#68878F" stroke-width="1.5" stroke-linecap="round" stroke-miterlimit="10" d="M73.1,27.9
          c-7.5,0.4-15.8-1-18.6-1.6c-1.5-0.3-3.2-1.2-3.2-2.4c0-1.5,1.4-2,3.2-2.7c4-1.6,11.4-4.5,17.5-4.9c5.2-0.4,8,0.9,12.3,2.4"></path>
        <path fill="none" stroke="#68878F" stroke-width="1.5" stroke-linecap="round" stroke-miterlimit="10" d="M78.3,47.2
          c-6.7,3.3-13.4,8.4-15.5,10.3c-1.2,1-2.3,2.6-1.7,3.6c0.7,1.3,2.1,1.1,4.1,0.8c4.3-0.5,12.2-1.5,17.7-4.1c4.7-2.2,6.6-4.6,9.6-8"></path>
      </g>
    </g>
  </symbol>
  
  <symbol id="moon">
    <g>
      <path fill="#68878F" d="M27,44.9c-2.9,0-5.8-0.8-8.2-2.1c-0.2-0.1-0.3-0.4-0.2-0.7c0.1-0.3,0.4-0.3,0.7-0.2c2.4,1.3,5.1,2,7.9,2
        c3.5,0,6.9-1.1,9.7-3.3c0.2-0.2,0.5-0.1,0.7,0.1s0.1,0.5-0.1,0.7C34.3,43.7,30.7,44.9,27,44.9z"></path>
      <path fill="#68878F" d="M41.2,37.3c-0.1,0-0.2,0-0.3-0.1c-0.2-0.2-0.3-0.5-0.1-0.7c1.8-2.7,2.8-5.8,2.8-9.1c0-2.8-0.7-5.5-2-7.9
        c-0.1-0.2,0-0.5,0.2-0.7c0.2-0.1,0.5,0,0.7,0.2c1.4,2.6,2.1,5.5,2.1,8.3c0,3.4-1.1,6.8-2.9,9.7C41.5,37.3,41.4,37.3,41.2,37.3z"></path>
      <path fill="#68878F" d="M38.3,41.7c-1.2,0-2.3-0.6-3-1.6c-0.1-0.2-0.1-0.5,0.2-0.7c0.2-0.1,0.5-0.1,0.7,0.2
        c0.5,0.8,1.2,1.2,2.1,1.2c1.3,0,2.5-1.1,2.5-2.5c0-0.9-0.4-1.6-1.1-2.1c-0.2-0.2-0.3-0.5-0.1-0.7s0.5-0.3,0.7-0.1
        c1,0.7,1.5,1.7,1.5,2.9C41.8,40.2,40.2,41.7,38.3,41.7z"></path>
      <path fill="#68878F" d="M27.5,41.9c-1.1,0-1.9-0.9-1.9-1.9c0-0.3,0.2-0.5,0.5-0.5s0.5,0.2,0.5,0.5c0,0.5,0.4,1,1,1s1-0.4,1-1
        s-0.4-1-1-1c-0.3,0-0.5-0.2-0.5-0.5c0-0.3,0.2-0.5,0.5-0.5c1.1,0,1.9,0.9,1.9,1.9C29.4,41,28.6,41.9,27.5,41.9z"></path>
      <path fill="#68878F" d="M34.9,21.8c-1.6,0-3.1-1.1-3.5-2.6c-0.1-0.3,0.1-0.5,0.3-0.6c0.3-0.1,0.5,0.1,0.6,0.3
        c0.4,1.1,1.4,1.9,2.6,1.9c1.5,0,2.8-1.2,2.8-2.8c0-1.1-0.8-2.2-1.9-2.6c-0.3-0.1-0.4-0.4-0.3-0.6c0.1-0.3,0.4-0.4,0.6-0.3
        c1.5,0.5,2.6,1.9,2.6,3.5C38.6,20.2,37,21.8,34.9,21.8z"></path>
      <path fill="#68878F" d="M26.1,33.4c-1.9,0-3.6-1.1-4.5-2.8c-0.1-0.2,0-0.5,0.2-0.7c0.2-0.1,0.5,0,0.7,0.2c0.7,1.3,2.1,2.3,3.6,2.3
        c2.2,0,4-1.8,4-4c0-1.6-1-3.1-2.5-3.6c-0.3-0.1-0.4-0.4-0.3-0.7c0.1-0.3,0.4-0.4,0.7-0.3c1.8,0.8,3.1,2.6,3.1,4.6
        C30.9,31.2,28.7,33.4,26.1,33.4z"></path>
      <path fill="#68878F" d="M12.8,24.8c-1.1,0-2-0.9-2-2c0-0.3,0.2-0.5,0.5-0.5c0.3,0,0.5,0.2,0.5,0.5c0,0.6,0.5,1.1,1.1,1.1
        c0.6,0,1.1-0.5,1.1-1.1c0-0.6-0.5-1.1-1.1-1.1c-0.3,0-0.5-0.2-0.5-0.5c0-0.3,0.2-0.5,0.5-0.5c1.1,0,2,0.9,2,2S13.9,24.8,12.8,24.8z"></path>
      <circle fill="none" stroke="#68878F" stroke-miterlimit="10" cx="27.1" cy="27.5" r="21.7"></circle>
    </g>
    <circle fill="none" stroke="#68878F" stroke-miterlimit="10" cx="27.5" cy="27.5" r="26.5" stroke-dasharray="60" stroke-dashoffset="60" class="rotate"></circle>
  </symbol>
  
  <!-- astronaut -->
  <use xlink:href="#astronaut" x="50" y="150" style="transform: scale(1.25);"></use>
  
  <!-- rocket -->
  <use xlink:href="#rocket" x="200" y="60" style="transform: scale(.75);"></use>
  
  <!-- moon -->
  <use xlink:href="#moon" x="900" y="10" style="transform: scale(1.5);"></use>
  
  <!-- left -->
  <!-- amazing stars -->
  <use xlink:href="#amazing_star" x="120" y="100" style="transform: scale(2);"></use>
  <use xlink:href="#amazing_star" x="80" y="60" style="transform: scale(1.25);"></use>
  <use xlink:href="#amazing_star" x="330" y="100" style="transform: scale(1.15);"></use>
  <use xlink:href="#amazing_star" x="370" y="130" style="transform: scale(1.15);"></use>
  <use xlink:href="#amazing_star" x="520" y="90" style="transform: scale(1.1)"></use>
  <use xlink:href="#amazing_star" x="563" y="47" style="transform: scale(1.1)"></use>
  
  <!-- awesome stars -->
  <use xlink:href="#awesome_star" x="15" y="10" style="transform: scale(0.9);"></use>
  <use xlink:href="#awesome_star" x="20" y="85" style="transform: scale(1.25);"></use>
  <use xlink:href="#awesome_star" x="100" y="220"></use>
  <use xlink:href="#awesome_star" x="100" y="200" style="transform: scale(1.25);"></use>
  <use xlink:href="#awesome_star" x="170" y="170"></use>
  <use xlink:href="#awesome_star" x="280" y="300" style="transform: scale(.75);"></use>
  <use xlink:href="#awesome_star" x="130" y="45"></use>
  <use xlink:href="#awesome_star" x="260" y="20" style="transform: scale(1.15);"></use>
  <use xlink:href="#awesome_star" x="300" y="30" style="transform: scale(1.5);"></use>
  
  <!-- right -->
  <!-- amazing stars -->
  <use xlink:href="#amazing_star" x="630" y="10" style="transform: scale(2);"></use>
  <use xlink:href="#amazing_star" x="630" y="60" style="transform: scale(1.5);"></use>
  <use xlink:href="#amazing_star" x="730" y="80" style="transform: scale(1.75);"></use>
  <use xlink:href="#amazing_star" x="2650" y="160" style="transform: scale(.5);"></use>
  
  <!-- awesome stars -->
  <use xlink:href="#awesome_star" x="890" y="25" style="transform: scale(1.25);"></use>
  <use xlink:href="#awesome_star" x="1600" y="100" style="transform: scale(0.75);"></use>
  <use xlink:href="#awesome_star" x="1130" y="125"></use>
  <use xlink:href="#awesome_star" x="960" y="40" style="transform: scale(1.5);"></use>
  <use xlink:href="#awesome_star" x="1230" y="100" style="transform: scale(1.15);"></use>
  <use xlink:href="#awesome_star" x="1800" y="240" style="transform: scale(.75);"></use>
  <use xlink:href="#awesome_star" x="1650" y="240" style="transform: scale(.85);"></use>
  <use xlink:href="#awesome_star" x="1600" y="270" style="transform: scale(.85);"></use>
</svg>