<svg version="1.1" baseProfile="tiny" id="Layer_1" xmlns="http://www.w3.org/2000/svg" xmlns:xlink="http://www.w3.org/1999/xlink"
	 x="0px" y="0px" width="1476.8px" height="263.4px" viewBox="854.2 -122.8 1476.8 263.4" xml:space="preserve">
<g id="Layer_2">
	<g>
		<path fill="#68878E" d="M912,85.5c0.5-0.1,0.9-0.3,1.3-0.7c1.2-1.1,1.3-3.2,1.2-4.1c0-0.3-0.3-0.5-0.5-0.5c-0.3,0-0.5,0.3-0.5,0.5
			c0,0.5,0.1,2.4-0.9,3.3c-0.4,0.4-1.1,0.5-1.9,0.4c-0.6-0.1-1-0.3-1.3-0.8c-0.5-0.7-0.5-2.1-0.1-3.8c0.1-0.3-0.1-0.5-0.4-0.6
			c-0.3-0.1-0.5,0.1-0.6,0.4c-0.5,2-0.5,3.6,0.2,4.6c0.4,0.7,1.1,1.1,2,1.2C911.1,85.6,911.6,85.6,912,85.5z"/>
		<path fill="#68878E" d="M903.3,89.8c0.7-0.2,1.3-0.5,1.7-1.1c1.2-1.6,0.5-4.3,0.4-4.4c-0.1-0.3-0.4-0.4-0.6-0.3
			c-0.3,0.1-0.4,0.4-0.3,0.6c0,0,0.6,2.3-0.3,3.5c-0.4,0.5-1,0.7-1.8,0.8c-0.6,0-1.1-0.2-1.5-0.6c-0.7-0.8-0.8-2.5-0.5-4.6
			c0-0.3-0.1-0.5-0.4-0.6c-0.3,0-0.5,0.1-0.6,0.4c-0.3,1.7-0.4,4.1,0.7,5.4c0.5,0.6,1.3,0.9,2.2,0.9C902.7,89.9,903,89.8,903.3,89.8
			z"/>
		<g>
			<path fill="#68878E" d="M912.4,82.6c0.3-0.1,0.7-0.2,1-0.4c0.8-0.4,1.3-1.2,1.5-2c0.9-3.5,0.7-7.3-0.5-11.4
				c-0.1-0.3-0.4-0.4-0.6-0.3c-0.3,0.1-0.4,0.4-0.3,0.6c1.2,3.9,1.4,7.5,0.5,10.8c-0.2,0.6-0.5,1.1-1.1,1.4
				c-0.6,0.3-1.2,0.4-1.7,0.2c-0.6-0.2-1.1-0.5-1.4-1.1c-0.3-0.5-0.4-1.2-0.2-1.7c0.5-2,0.5-4.3,0-6.8c-0.1-0.3-0.3-0.5-0.6-0.4
				s-0.4,0.3-0.4,0.6c0.5,2.3,0.5,4.4,0,6.3c-0.5,1.8,0.6,3.6,2.4,4C911.4,82.7,911.9,82.7,912.4,82.6z"/>
		</g>
		<g>
			<path fill="#68878E" d="M903.4,86.1c0.8-0.2,1.6-0.7,2-1.4c2.3-3.4,3.5-7.7,3.5-12.7c0-0.3-0.2-0.5-0.5-0.5
				c-0.3,0-0.5,0.2-0.5,0.5c0,4.9-1.1,8.9-3.3,12.1c-0.4,0.5-0.9,0.9-1.5,1c-0.6,0.1-1.2,0-1.7-0.4s-0.8-0.9-1-1.5
				c-0.1-0.6,0-1.2,0.4-1.7c3.5-5,2.6-12.2,1.7-16c-0.1-0.3-0.4-0.6-0.6-0.6l0,0c-0.3,0.1-0.4,0.5-0.3,0.8
				c0.6,2.9,1.8,10.3-1.6,15.1c-0.5,0.7-0.7,1.6-0.5,2.5s0.6,1.7,1.4,2.2C901.5,86,902.4,86.3,903.4,86.1
				C903.3,86.1,903.3,86.1,903.4,86.1z"/>
		</g>
		<g>
			<g>
				<path fill="#68878E" d="M928.1,64.6c0.3-0.1,0.6-0.2,0.8-0.5c0.2-0.3,0.3-0.6,0.2-1c-0.1-0.3-0.2-0.7-0.3-1
					c-0.1-0.2-0.4-0.3-0.7-0.2c-0.2,0.1-0.3,0.4-0.2,0.7c0.1,0.3,0.2,0.5,0.3,0.8c0,0.1,0,0.2-0.1,0.3c-0.1,0.1-0.1,0.1-0.2,0.1
					c-0.2,0-0.4-0.1-0.4-0.3c-0.1-0.7-0.6-1.3-0.8-1.5s-0.5-0.2-0.7,0s-0.2,0.5,0,0.7c0.3,0.3,0.5,0.6,0.6,1
					C926.6,64.3,927.3,64.8,928.1,64.6C928,64.6,928,64.6,928.1,64.6z"/>
			</g>
			<g>
				<path fill="#68878E" d="M927.7,62.4c-0.3-0.6-1.1-1-1.2-1c-0.1,0-0.2,0-0.3,0c-0.1-0.1-0.3-0.1-0.4-0.2c-0.5-0.4-0.6-1-0.4-1.5
					c0.2-0.7,1-1,1.7-0.8c0.2,0.1,2.2,0.8,3,2.4c0.3,0.7,0,1.5-0.6,1.8c-0.1,0-0.2,0.1-0.3,0.1C928.6,63.3,928,63,927.7,62.4z
					 M926.4,60c0,0.1,0,0.3,0.1,0.4l0,0c0.6,0.1,1.6,0.7,2.1,1.6c0.1,0.2,0.2,0.2,0.4,0.2h0.1c0.2-0.1,0.2-0.3,0.2-0.5
					c-0.6-1.3-2.3-1.9-2.4-1.9c-0.1,0-0.1,0-0.2,0C926.6,59.8,926.5,59.9,926.4,60z"/>
			</g>
			<g>
				<path fill="#68878E" d="M924.5,64.4c-0.6-0.4-1.1-1.1-1.4-2.3c-0.2-0.7,0.2-1.5,0.9-1.7h0.1c0.7-0.1,1.4,0.3,1.6,0.9
					c0.2,0.5,0.3,0.8,0.3,0.8c0.3,0.2,0.5,0.5,0.6,0.8c0.1,0.4,0,0.7-0.2,1c-0.2,0.3-0.5,0.5-0.8,0.6
					C925.2,64.6,924.8,64.6,924.5,64.4z M924.3,62c-0.2,0-0.3-0.1-0.2,0.1c0.3,0.9,0.6,1.3,1,1.6c0.2,0.1,0.4,0,0.5-0.2
					c0.1-0.1,0.1-0.2,0-0.3c0-0.1-0.1-0.2-0.2-0.3c-0.2-0.2-0.5-0.3-0.7-1C924.7,61.8,924.5,62,924.3,62L924.3,62z"/>
			</g>
			<path fill="#68878E" d="M926.8,59.7h0.1c0.3-0.1,0.4-0.4,0.2-0.7c-0.5-1.1-1.6-1.8-2.8-1.9c-1.4-0.1-2.8-0.5-4.2-1.3
				c-0.2-0.1-0.5,0-0.7,0.2c-0.1,0.2,0,0.5,0.2,0.7c1.5,0.9,3.1,1.3,4.6,1.4c0.9,0,1.6,0.6,2,1.3C926.3,59.7,926.6,59.8,926.8,59.7z
				"/>
			<path fill="#68878E" d="M926,63.1c0.1,0,0.1,0,0.2-0.1c0.1-0.1,0.1-0.1,0.2-0.2c0.5-0.5,0.9-1.1,1-1.8c0.1-0.3-0.1-0.5-0.4-0.6
				s-0.5,0.1-0.6,0.4c-0.1,0.5-0.3,0.9-0.7,1.2l-0.1,0.1c-0.2,0.2-0.3,0.5-0.1,0.7C925.6,63.1,925.8,63.2,926,63.1z"/>
			<path fill="#68878E" d="M924.1,63.7c0.2,0,0.4-0.2,0.4-0.5s-0.2-0.5-0.5-0.5c-1.9-0.1-3.8-0.6-5.7-1.5c-0.2-0.1-0.5,0-0.7,0.2
				c-0.1,0.2,0,0.5,0.2,0.7c2,0.9,4,1.5,6.1,1.6C924,63.7,924.1,63.7,924.1,63.7z"/>
		</g>
		<path fill="#68878E" d="M906.6,53.8c-1-1.8-1-3.4,0-4.5s2.2-1.8,3.5-2c1.9-0.4,4,0.2,5.6,1.7c2.8,2.6,2.9,6.3,0.3,9.1
			c-0.4,0.4-0.9,0.7-1.4,0.8C911.9,59.4,908.2,56.6,906.6,53.8z M907.3,50c-0.9,1-0.3,2.5,0.2,3.3c1.5,2.7,4.9,5,6.8,4.6
			c0.4-0.1,0.7-0.2,0.9-0.5c2.2-2.4,2.1-5.4-0.3-7.7c-1.4-1.3-3.1-1.8-4.7-1.5C909.2,48.5,908.2,49.1,907.3,50z"/>
		<path fill="#68878E" d="M908.9,55.6c1.2-4.4,5.3-5.5,6.5-5.7l0.5-0.5l-1,0.1h0.5l-0.1-0.5c-1.4,0.3-6,1.5-7.3,6.4L908.9,55.6z"/>
		<path fill="#68878E" d="M908.3,72.5"/>
		<path fill="#68878E" d="M908.4,73c0.1,0,0.1,0,0.2-0.1l8.1-5.1c0.1-0.1,0.2-0.2,0.2-0.3l3.4-11c0.1-0.2,0-0.4-0.2-0.5
			s-0.4-0.2-0.5-0.1l-10.1,4.9l-7.6-10.1c-0.1-0.2-0.4-0.2-0.6-0.2c-0.2,0.1-0.3,0.3-0.3,0.5v4.7c0,0.3,0.2,0.5,0.5,0.5
			s0.5-0.2,0.5-0.5v-3.2l7,9.2c0.1,0.2,0.4,0.3,0.6,0.1l9.4-4.5l-3,9.8l-7.6,4.8l-6.2-6.8V63c0-0.3-0.2-0.5-0.5-0.5
			c-0.3,0-0.5,0.2-0.5,0.5v2.3c0,0.1,0,0.2,0.1,0.3l6.7,7.2C908,73,908.2,73,908.4,73z"/>
		<g>
			<g>
				<path fill="#68878E" d="M896.5,75.6c0.3-0.1,0.5-0.2,0.7-0.4c0.2-0.2,0.2-0.5,0-0.7c-0.2-0.2-0.5-0.2-0.7,0
					c-0.1,0.1-0.2,0.1-0.2,0.1c-0.1,0-0.2,0-0.2-0.1c-0.1-0.1-1.4-1.4-1.4-2.7c0-0.2,0.1-0.3,0.3-0.3c0.1,0,0.2,0.1,0.3,0.2
					c0.1,0.2,0.4,0.3,0.7,0.2c0.2-0.1,0.3-0.4,0.2-0.7c-0.2-0.5-0.7-0.7-1.2-0.7c-0.7,0-1.3,0.6-1.3,1.3c0,1.7,1.4,3.2,1.7,3.5
					c0.3,0.3,0.6,0.4,0.9,0.4C896.3,75.6,896.4,75.6,896.5,75.6z"/>
			</g>
			<g>
				<path fill="#68878E" d="M898.3,72.4c-0.2-0.7-0.9-1.2-1-1.2c-0.1,0-0.2,0-0.2-0.1c-0.1-0.1-0.2-0.2-0.3-0.3
					c-0.4-0.4-0.4-1.1-0.2-1.6c0.4-0.6,1.2-0.8,1.8-0.5c0.3,0.2,2,1.3,2.5,2.9c0.1,0.3,0,0.7-0.1,1c-0.2,0.3-0.5,0.5-0.8,0.6h-0.1
					C899.2,73.5,898.5,73,898.3,72.4z M897.5,69.7c-0.1,0.1-0.1,0.3,0,0.4l0,0c0.6,0.2,1.4,1,1.7,1.9c0.1,0.2,0.3,0.3,0.3,0.3
					l0.1,0.5v-0.5c0.1,0,0.3-0.1,0.3-0.2c0-0.1,0-0.2,0-0.3c-0.4-1.3-2-2.3-2-2.3c-0.1-0.1-0.2-0.1-0.2,0
					C897.6,69.6,897.5,69.6,897.5,69.7z"/>
			</g>
			<g>
				<path fill="#68878E" d="M896.9,75.3c-0.2-0.2-1.7-1.7-1.7-3.5c0-0.7,0.6-1.3,1.3-1.3s1.3,0.6,1.3,1.3s0.6,1.4,0.7,1.5
					c0.1,0,0.2,0.1,0.2,0.1c0.1,0.1,0.2,0.2,0.2,0.3c0.3,0.5,0.2,1.1-0.2,1.5c-0.2,0.2-0.4,0.3-0.7,0.4
					C897.6,75.7,897.2,75.6,896.9,75.3z M896.9,71.9c0-0.2-0.2-0.4-0.4-0.4s-0.3,0.2-0.3,0.3c0,1.4,1.3,2.7,1.4,2.7
					c0.1,0.1,0.4,0.1,0.5,0c0.1-0.1,0.1-0.3,0.1-0.4l0,0C897.6,73.8,896.9,72.8,896.9,71.9z"/>
			</g>
			<path fill="#68878E" d="M897.6,72.1c0.1,0,0.1,0,0.2-0.1c0.2-0.2,0.5-0.4,0.6-0.6c0.2-0.2,0.1-0.5-0.1-0.7s-0.5-0.1-0.7,0.1
				c-0.1,0.2-0.3,0.3-0.5,0.4c-0.2,0.2-0.3,0.5-0.1,0.7C897.2,72.1,897.4,72.2,897.6,72.1z"/>
			<path fill="#68878E" d="M894.1,72c0.1,0,0.2-0.1,0.3-0.2c0.2-0.2,0.2-0.5-0.1-0.7c-0.1-0.1-0.2-0.1-0.2-0.2
				c-0.4-0.5-0.6-1.1-0.6-1.7c0.5-7.8,7.3-12.7,7.6-12.9c1-0.7,2.5-0.5,3.2,0.6c0.7,1,0.5,2.5-0.6,3.2c-0.1,0-5.2,3.8-5.7,9.1
				c0,0.3,0.2,0.5,0.4,0.5c0.3,0,0.5-0.2,0.5-0.4c0.5-4.9,5.2-8.3,5.2-8.3c1.5-1,1.9-3.1,0.8-4.6c-1-1.5-3.1-1.9-4.6-0.8
				c-0.3,0.2-7.5,5.4-8.1,13.6c-0.1,0.9,0.2,1.7,0.8,2.4c0.1,0.1,0.2,0.2,0.3,0.3C893.8,72,893.9,72,894.1,72z"/>
		</g>
		<path fill="#68878E" d="M908.4,73c0.2,0,0.4-0.2,0.4-0.4l1.1-11.1c0-0.3-0.2-0.5-0.4-0.5c-0.3,0-0.5,0.2-0.5,0.4l-1.1,11.1
			c0,0.3,0.2,0.5,0.4,0.5C908.3,73,908.3,73,908.4,73z"/>
		<path fill="#68878E" d="M902.8,59.1c0.1,0,0.1,0,0.2-0.1c0.2-0.2,0.3-0.5,0.1-0.7c-1.2-1.8-3.1-1.8-3.9-1.5
			c-0.3,0.1-0.4,0.4-0.3,0.6c0.1,0.3,0.4,0.4,0.6,0.3l0,0c0.1,0,1.7-0.4,2.8,1.2C902.4,59.1,902.6,59.2,902.8,59.1z"/>
		<path fill="#68878E" d="M900.3,61.7c0.1,0,0.1,0,0.2-0.1c0.2-0.2,0.3-0.5,0.1-0.7c-1.2-1.8-3.1-1.8-3.9-1.5
			c-0.3,0.1-0.4,0.4-0.3,0.6c0.1,0.3,0.4,0.4,0.6,0.3l0,0c0.1,0,1.7-0.4,2.8,1.2C899.9,61.7,900.1,61.7,900.3,61.7z"/>
		<path fill="#68878E" d="M905.1,83.8c0.4-0.1,0.8-0.2,0.9-0.3c0.2-0.1,0.3-0.4,0.2-0.7c-0.1-0.2-0.4-0.3-0.7-0.2
			c-0.5,0.2-1.6,0.7-2.9-0.3c-0.2-0.2-0.5-0.1-0.7,0.1c-0.2,0.2-0.1,0.5,0.1,0.7C903.2,84,904.4,84,905.1,83.8z"/>
		<path fill="#68878E" d="M921.2,60.1c0.2,0,0.3-0.2,0.4-0.3l0,0c0-0.1,0.6-1.6,2.5-1.6c0.3,0,0.5-0.2,0.5-0.5s-0.2-0.5-0.5-0.5
			c-2.1,0-3.2,1.5-3.5,2.3c-0.1,0.3,0.1,0.5,0.3,0.6C921.1,60.1,921.1,60.1,921.2,60.1z"/>
		<path fill="#68878E" d="M896.7,67.6c0.2,0,0.3-0.1,0.4-0.3c0.1-0.3,0-0.5-0.3-0.7c-1.9-0.8-3.3,0.1-3.8,0.5
			c-0.2,0.2-0.3,0.5-0.1,0.7c0.2,0.2,0.5,0.2,0.7,0.1c0.5-0.4,1.4-0.9,2.8-0.3C896.5,67.6,896.6,67.6,896.7,67.6z"/>
		<path fill="#68878E" d="M906.7,81.5c0.1,0,0.2-0.1,0.3-0.1c0.3-0.1,0.4-0.4,0.3-0.6c-0.1-0.3-0.4-0.4-0.6-0.3
			c-0.6,0.2-1.5,0.2-2.5-0.5c-0.2-0.2-0.5-0.1-0.7,0.1c-0.2,0.2-0.1,0.5,0.1,0.7C904.8,81.6,906,81.6,906.7,81.5z"/>
		<path fill="#68878E" d="M913.6,80.1c0.5-0.1,0.8-0.3,1.1-0.4c0.2-0.2,0.3-0.5,0.1-0.7c-0.1-0.2-0.5-0.3-0.7-0.1
			c-0.1,0-1.5,0.9-3-0.3c-0.2-0.2-0.5-0.1-0.7,0.1c-0.2,0.2-0.1,0.5,0.1,0.7C911.6,80.2,912.7,80.2,913.6,80.1z"/>
		<path fill="#68878E" d="M909.5,61.9L909.5,61.9l10.5-5c0.1-0.1,0.2-0.2,0.3-0.3c0-0.1,0-0.3-0.1-0.4l-2.5-3.2l-0.8,0.6l2.2,2.7
			l-9.5,4.6l-7.3-9.6l9.6-4.1l1,1.3l0.8-0.6l-1.2-1.6c-0.1-0.2-0.4-0.2-0.6-0.2l-10.5,4.5c-0.1,0.1-0.2,0.2-0.3,0.3
			c0,0.1,0,0.3,0.1,0.4l7.9,10.4C909.1,61.8,909.3,61.9,909.5,61.9z"/>
		<path fill="#68878E" d="M914.1,77.9c0.4-0.1,0.6-0.2,0.8-0.3c0.2-0.1,0.4-0.4,0.2-0.7c-0.1-0.3-0.4-0.4-0.7-0.2
			c-0.4,0.2-1.6,0.6-2.8-0.4c-0.2-0.2-0.5-0.1-0.7,0.1c-0.2,0.2-0.1,0.5,0.1,0.7C912.2,78,913.3,78.1,914.1,77.9z"/>
	</g>
	<path fill="#68878E" d="M2261-62.9c-12.7,0-23.1-10.4-23.1-23.1s10.4-23,23.1-23s23.1,10.4,23.1,23.1S2273.7-62.9,2261-62.9z
		 M2261-108c-12.2,0-22.1,9.9-22.1,22.1s9.9,22.1,22.1,22.1s22.1-9.9,22.1-22.1S2273.2-108,2261-108z"/>
	<path fill="#68878E" d="M2235.4-75.7c-0.2,0-0.4-0.1-0.5-0.3c-1.3-3.2-1.9-6.5-1.9-10c0-15.2,12.5-27.6,28-27.6
		c3.4,0,6.6,0.6,9.8,1.7c0.3,0.1,0.4,0.4,0.3,0.6c-0.1,0.3-0.4,0.4-0.6,0.3c-3-1.1-6.2-1.7-9.4-1.7c-14.9,0-27,11.9-27,26.6
		c0,3.3,0.6,6.6,1.8,9.6c0.1,0.3,0,0.5-0.3,0.6C2235.5-75.7,2235.5-75.7,2235.4-75.7z"/>
	<path fill="#68878E" d="M2261-67.8c-3.1,0-6.1-0.8-8.7-2.2c-0.2-0.1-0.3-0.4-0.2-0.7s0.4-0.3,0.7-0.2c2.5,1.4,5.4,2.1,8.3,2.1
		c3.7,0,7.3-1.2,10.3-3.4c0.2-0.2,0.5-0.1,0.7,0.1c0.2,0.2,0.1,0.5-0.1,0.7C2268.7-69,2264.9-67.8,2261-67.8z"/>
	<path fill="#68878E" d="M2275.7-75.7c-0.1,0-0.2,0-0.3-0.1c-0.2-0.2-0.3-0.5-0.1-0.7c1.9-2.8,2.9-6.1,2.9-9.5
		c0-2.9-0.7-5.7-2.1-8.3c-0.1-0.2,0-0.5,0.2-0.7c0.2-0.1,0.5,0,0.7,0.2c1.5,2.7,2.2,5.7,2.2,8.7c0,3.6-1.1,7.1-3,10.1
		C2276-75.7,2275.9-75.7,2275.7-75.7z"/>
	<path fill="#68878E" d="M2272.7-71.1c-1.3,0-2.4-0.6-3.1-1.7c-0.1-0.2-0.1-0.5,0.2-0.7c0.2-0.1,0.5-0.1,0.7,0.2
		c0.5,0.8,1.3,1.3,2.2,1.3c1.4,0,2.6-1.2,2.6-2.6c0-0.9-0.4-1.7-1.2-2.2c-0.2-0.2-0.3-0.5-0.1-0.7c0.2-0.2,0.5-0.3,0.7-0.1
		c1,0.7,1.6,1.8,1.6,3C2276.3-72.7,2274.7-71.1,2272.7-71.1z"/>
	<path fill="#68878E" d="M2261.4-70.9c-1.1,0-2-0.9-2-2c0-0.3,0.2-0.5,0.5-0.5s0.5,0.2,0.5,0.5c0,0.5,0.4,1,1,1c0.6,0,1-0.4,1-1
		s-0.4-1-1-1c-0.3,0-0.5-0.2-0.5-0.5c0-0.3,0.2-0.5,0.5-0.5c1.1,0,2,0.9,2,2S2262.5-70.9,2261.4-70.9z"/>
	<path fill="#68878E" d="M2269.1-91.9c-1.7,0-3.2-1.1-3.7-2.7c-0.1-0.3,0.1-0.5,0.3-0.6c0.3-0.1,0.5,0.1,0.6,0.3
		c0.4,1.2,1.5,2,2.7,2c1.6,0,2.9-1.3,2.9-2.9c0-1.2-0.8-2.3-2-2.7c-0.3-0.1-0.4-0.4-0.3-0.6c0.1-0.3,0.4-0.4,0.6-0.3
		c1.6,0.5,2.7,2,2.7,3.7C2273-93.6,2271.3-91.9,2269.1-91.9z"/>
	<path fill="#68878E" d="M2259.9-79.8c-2,0-3.8-1.2-4.7-2.9c-0.1-0.2,0-0.5,0.2-0.7c0.2-0.1,0.5,0,0.7,0.2c0.7,1.4,2.2,2.4,3.8,2.4
		c2.3,0,4.2-1.9,4.2-4.2c0-1.7-1-3.2-2.6-3.8c-0.3-0.1-0.4-0.4-0.3-0.7c0.1-0.3,0.4-0.4,0.7-0.3c1.9,0.8,3.2,2.7,3.2,4.8
		C2265-82.1,2262.7-79.8,2259.9-79.8z"/>
	<path fill="#68878E" d="M2246-88.8c-1.1,0-2.1-0.9-2.1-2.1c0-0.3,0.2-0.5,0.5-0.5s0.5,0.2,0.5,0.5c0,0.6,0.5,1.1,1.1,1.1
		c0.6,0,1.1-0.5,1.1-1.1s-0.5-1.1-1.1-1.1c-0.3,0-0.5-0.2-0.5-0.5c0-0.3,0.2-0.5,0.5-0.5c1.1,0,2.1,0.9,2.1,2.1
		S2247.2-88.8,2246-88.8z"/>
	<g>
		<path fill="#68878E" d="M860.5-62.3c-0.2,0-0.4-0.1-0.5-0.3l-2-4.5c-0.1-0.3,0-0.5,0.2-0.7c0.3-0.1,0.5,0,0.7,0.2L861-63
			c0.1,0.3,0,0.5-0.2,0.7C860.6-62.3,860.6-62.3,860.5-62.3z"/>
		<path fill="#68878E" d="M864.7-53.2c-0.2,0-0.4-0.1-0.5-0.3l-2-4.5c-0.1-0.3,0-0.5,0.2-0.7c0.2-0.2,0.5,0,0.7,0.2l2.1,4.5
			c0.1,0.3,0,0.5-0.2,0.7C864.8-53.2,864.8-53.2,864.7-53.2z"/>
		<path fill="#68878E" d="M863.8-61.1c-0.2,0-0.4-0.1-0.5-0.3c-0.1-0.3,0-0.5,0.2-0.7l4.5-2.1c0.3-0.1,0.5,0,0.7,0.2
			c0.2,0.2,0,0.5-0.2,0.7l-4.5,2.2C864-61.1,863.9-61.1,863.8-61.1z"/>
		<path fill="#68878E" d="M854.7-56.9c-0.2,0-0.4-0.1-0.5-0.3c-0.1-0.3,0-0.5,0.2-0.7l4.5-2.1c0.3-0.1,0.5,0,0.7,0.2
			c0.1,0.3,0,0.5-0.2,0.7l-4.4,2.2C854.9-56.9,854.8-56.9,854.7-56.9z"/>
		<path fill="#68878E" d="M860-55.8c-0.1,0-0.1,0-0.2,0c-0.3-0.1-0.4-0.4-0.3-0.6l0.7-1.9c0.1-0.3,0.4-0.4,0.6-0.3
			c0.3,0.1,0.4,0.4,0.3,0.6l-0.7,1.9C860.4-55.9,860.2-55.8,860-55.8z"/>
		<path fill="#68878E" d="M862.4-62.4c-0.1,0-0.1,0-0.2,0c-0.2-0.1-0.3-0.4-0.2-0.6l0.7-1.9c0.1-0.3,0.4-0.4,0.6-0.3
			c0.3,0.1,0.4,0.4,0.3,0.6l-0.7,1.9C862.8-62.5,862.6-62.4,862.4-62.4z"/>
		<path fill="#68878E" d="M859.2-60.9c-0.1,0-0.1,0-0.2,0l-1.9-0.7c-0.3-0.1-0.4-0.4-0.3-0.6c0.1-0.3,0.4-0.4,0.6-0.3l1.9,0.7
			c0.3,0.1,0.4,0.4,0.3,0.6C859.6-61,859.4-60.9,859.2-60.9z"/>
		<path fill="#68878E" d="M865.8-58.5c-0.1,0-0.1,0-0.2,0l-1.9-0.7c-0.3-0.1-0.4-0.4-0.3-0.6c0.1-0.2,0.4-0.4,0.6-0.3l1.9,0.7
			c0.3,0.1,0.4,0.4,0.3,0.6C866.2-58.6,866-58.5,865.8-58.5z"/>
	</g>
	<g>
		<path fill="#68878E" d="M2037.5,13.4c-0.2,0-0.4-0.3-0.4-0.5c0-0.3,0.3-0.5,0.5-0.5l4,0.3c0.3,0,0.5,0.3,0.5,0.5
			c0,0.3-0.3,0.5-0.5,0.5L2037.5,13.4L2037.5,13.4z"/>
		<path fill="#68878E" d="M2045.4,13.9c-0.2,0-0.4-0.3-0.4-0.5c0-0.3,0.3-0.5,0.5-0.5l4,0.3c0.3,0,0.5,0.3,0.5,0.5
			c0,0.3-0.3,0.5-0.5,0.5L2045.4,13.9C2045.5,13.9,2045.4,13.9,2045.4,13.9z"/>
		<path fill="#68878E" d="M2043.6,11.8c-0.2,0-0.4-0.3-0.4-0.5l0.3-4c0-0.3,0.3-0.5,0.5-0.5c0.3,0,0.5,0.3,0.5,0.5l-0.3,4
			C2044.1,11.6,2043.9,11.8,2043.6,11.8L2043.6,11.8z"/>
		<path fill="#68878E" d="M2043,19.7c-0.2,0-0.4-0.3-0.4-0.5l0.3-4c0-0.3,0.3-0.5,0.5-0.5c0.3,0,0.5,0.3,0.5,0.5l-0.3,4
			C2043.6,19.5,2043.4,19.7,2043,19.7C2043.1,19.7,2043.1,19.7,2043,19.7z"/>
		<path fill="#68878E" d="M2045.8,16.4c-0.1,0-0.2-0.1-0.3-0.2l-1-1.2c-0.2-0.2-0.2-0.5,0-0.7s0.5-0.2,0.7,0l1,1.2
			c0.2,0.2,0.2,0.5,0,0.7C2046.1,16.4,2045.9,16.4,2045.8,16.4z"/>
		<path fill="#68878E" d="M2042.1,12.2c-0.1,0-0.2-0.1-0.3-0.2l-1-1.2c-0.2-0.2-0.2-0.5,0-0.7s0.5-0.2,0.7,0l1,1.2
			c0.2,0.2,0.2,0.5,0,0.7C2042.4,12.2,2042.3,12.3,2042.1,12.2z"/>
		<path fill="#68878E" d="M2040.8,16.1c-0.1,0-0.2-0.1-0.3-0.2c-0.2-0.2-0.2-0.5,0-0.7l1.2-1c0.2-0.2,0.5-0.2,0.7,0s0.2,0.5,0,0.7
			l-1.2,1C2041.1,16.1,2040.9,16.1,2040.8,16.1z"/>
		<path fill="#68878E" d="M2044.9,12.4c-0.1,0-0.2-0.1-0.3-0.2c-0.2-0.2-0.2-0.5,0-0.7l1.2-1c0.2-0.2,0.5-0.2,0.7,0s0.2,0.5,0,0.7
			l-1.2,1C2045.2,12.4,2045.1,12.5,2044.9,12.4z"/>
	</g>
	<g>
		<path fill="#68878E" d="M2016.2,41c-0.1,0-0.3-0.1-0.3-0.2c-0.1-0.2-0.1-0.5,0.2-0.7l2.7-1.7c0.2-0.1,0.5-0.1,0.7,0.2
			c0.1,0.2,0.1,0.5-0.2,0.7l-2.7,1.7C2016.4,41,2016.3,41,2016.2,41z"/>
		<path fill="#68878E" d="M2021.5,37.6c-0.1,0-0.3-0.1-0.3-0.2c-0.1-0.2-0.1-0.5,0.2-0.7l2.7-1.7c0.2-0.1,0.5-0.1,0.7,0.2
			c0.1,0.2,0.1,0.5-0.2,0.7l-2.7,1.7C2021.8,37.6,2021.6,37.6,2021.5,37.6z"/>
		<path fill="#68878E" d="M2019.3,37.1c-0.1,0-0.3-0.1-0.3-0.2l-1.7-2.7c-0.1-0.2-0.1-0.5,0.2-0.7c0.2-0.1,0.5-0.1,0.7,0.2l1.7,2.7
			c0.1,0.2,0.1,0.5-0.2,0.7C2019.6,37.1,2019.4,37.1,2019.3,37.1z"/>
		<path fill="#68878E" d="M2022.7,42.4c-0.1,0-0.3-0.1-0.3-0.2l-1.7-2.7c-0.1-0.2-0.1-0.5,0.2-0.7c0.2-0.1,0.5-0.1,0.7,0.2l1.7,2.7
			c0.1,0.2,0.1,0.5-0.2,0.7C2022.9,42.4,2022.8,42.5,2022.7,42.4z"/>
		<path fill="#68878E" d="M2023,38.9C2023,38.8,2023,38.8,2023,38.9l-1.3-0.2c-0.3-0.1-0.4-0.3-0.4-0.5c0.1-0.3,0.3-0.4,0.6-0.4
			l1.2,0.3c0.3,0.1,0.5,0.2,0.4,0.5C2023.5,38.8,2023.3,38.9,2023,38.9z"/>
		<path fill="#68878E" d="M2018.6,38L2018.6,38l-1.3-0.3c-0.3-0.1-0.4-0.3-0.4-0.6c0.1-0.3,0.3-0.4,0.6-0.4l1.2,0.3
			c0.3,0.1,0.4,0.3,0.4,0.6C2019.2,37.9,2018.9,38.1,2018.6,38z"/>
		<path fill="#68878E" d="M2019.5,41.2L2019.5,41.2c-0.3-0.1-0.5-0.4-0.4-0.6l0.3-1.1c0.1-0.3,0.3-0.3,0.6-0.2l0,0
			c0.3,0.1,0.5,0.2,0.4,0.5l-0.3,1.2C2020,41.2,2019.8,41.3,2019.5,41.2z"/>
		<path fill="#68878E" d="M2020.4,37.3L2020.4,37.3c-0.3-0.1-0.4-0.6-0.3-0.8l0.3-1.3c0.1-0.3,0.4-0.5,0.6-0.4
			c0.3,0.1,0.4,0.3,0.4,0.6l-0.3,1.4C2021,37,2020.7,37.4,2020.4,37.3z"/>
	</g>
	<g>
		<path fill="#68878E" d="M2318.5-66.6c-0.2,0-0.4-0.3-0.4-0.5c0-0.3,0.3-0.5,0.5-0.5l4,0.3c0.3,0,0.5,0.3,0.5,0.5
			c0,0.3-0.3,0.5-0.5,0.5L2318.5-66.6L2318.5-66.6z"/>
		<path fill="#68878E" d="M2326.4-66.1c-0.2,0-0.4-0.3-0.4-0.5c0-0.3,0.3-0.5,0.5-0.5l4,0.3c0.3,0,0.5,0.3,0.5,0.5
			c0,0.3-0.3,0.5-0.5,0.5L2326.4-66.1C2326.5-66.1,2326.4-66.1,2326.4-66.1z"/>
		<path fill="#68878E" d="M2324.6-68.2c-0.2,0-0.4-0.3-0.4-0.5l0.3-4c0-0.3,0.3-0.5,0.5-0.5c0.3,0,0.5,0.3,0.5,0.5l-0.3,4
			C2325.1-68.4,2324.9-68.2,2324.6-68.2L2324.6-68.2z"/>
		<path fill="#68878E" d="M2324-60.3c-0.2,0-0.4-0.3-0.4-0.5l0.3-4c0-0.3,0.3-0.5,0.5-0.5c0.3,0,0.5,0.3,0.5,0.5l-0.3,4
			C2324.6-60.5,2324.4-60.3,2324-60.3C2324.1-60.3,2324.1-60.3,2324-60.3z"/>
		<path fill="#68878E" d="M2326.8-63.6c-0.1,0-0.2-0.1-0.3-0.2l-1-1.2c-0.2-0.2-0.2-0.5,0-0.7s0.5-0.2,0.7,0l1,1.2
			c0.2,0.2,0.2,0.5,0,0.7C2327.1-63.6,2326.9-63.6,2326.8-63.6z"/>
		<path fill="#68878E" d="M2323.1-67.8c-0.1,0-0.2-0.1-0.3-0.2l-1-1.2c-0.2-0.2-0.2-0.5,0-0.7s0.5-0.2,0.7,0l1,1.2
			c0.2,0.2,0.2,0.5,0,0.7C2323.4-67.8,2323.3-67.7,2323.1-67.8z"/>
		<path fill="#68878E" d="M2321.8-63.9c-0.1,0-0.2-0.1-0.3-0.2c-0.2-0.2-0.2-0.5,0-0.7l1.2-1c0.2-0.2,0.5-0.2,0.7,0s0.2,0.5,0,0.7
			l-1.2,1C2322.1-63.9,2321.9-63.9,2321.8-63.9z"/>
		<path fill="#68878E" d="M2325.9-67.6c-0.1,0-0.2-0.1-0.3-0.2c-0.2-0.2-0.2-0.5,0-0.7l1.2-1c0.2-0.2,0.5-0.2,0.7,0s0.2,0.5,0,0.7
			l-1.2,1C2326.2-67.6,2326.1-67.5,2325.9-67.6z"/>
	</g>
	<g>
		<path fill="#68878E" d="M2297.2-39c-0.1,0-0.3-0.1-0.3-0.2c-0.1-0.2-0.1-0.5,0.2-0.7l2.7-1.7c0.2-0.1,0.5-0.1,0.7,0.2
			c0.1,0.2,0.1,0.5-0.2,0.7l-2.7,1.7C2297.4-39,2297.3-39,2297.2-39z"/>
		<path fill="#68878E" d="M2302.5-42.4c-0.1,0-0.3-0.1-0.3-0.2c-0.1-0.2-0.1-0.5,0.2-0.7l2.7-1.7c0.2-0.1,0.5-0.1,0.7,0.2
			c0.1,0.2,0.1,0.5-0.2,0.7l-2.7,1.7C2302.8-42.4,2302.6-42.4,2302.5-42.4z"/>
		<path fill="#68878E" d="M2300.3-42.9c-0.1,0-0.3-0.1-0.3-0.2l-1.7-2.7c-0.1-0.2-0.1-0.5,0.2-0.7c0.2-0.1,0.5-0.1,0.7,0.2l1.7,2.7
			c0.1,0.2,0.1,0.5-0.2,0.7C2300.6-42.9,2300.4-42.9,2300.3-42.9z"/>
		<path fill="#68878E" d="M2303.7-37.6c-0.1,0-0.3-0.1-0.3-0.2l-1.7-2.7c-0.1-0.2-0.1-0.5,0.2-0.7c0.2-0.1,0.5-0.1,0.7,0.2l1.7,2.7
			c0.1,0.2,0.1,0.5-0.2,0.7C2303.9-37.6,2303.8-37.5,2303.7-37.6z"/>
		<path fill="#68878E" d="M2304-41.1C2304-41.2,2304-41.2,2304-41.1l-1.3-0.2c-0.3-0.1-0.4-0.3-0.4-0.5c0.1-0.3,0.3-0.4,0.6-0.4
			l1.2,0.3c0.3,0.1,0.5,0.2,0.4,0.5C2304.5-41.2,2304.3-41.1,2304-41.1z"/>
		<path fill="#68878E" d="M2299.6-42L2299.6-42l-1.3-0.3c-0.3-0.1-0.4-0.3-0.4-0.6c0.1-0.3,0.3-0.4,0.6-0.4l1.2,0.3
			c0.3,0.1,0.4,0.3,0.4,0.6C2300.2-42.1,2299.9-41.9,2299.6-42z"/>
		<path fill="#68878E" d="M2300.5-38.8L2300.5-38.8c-0.3-0.1-0.5-0.4-0.4-0.6l0.3-1.1c0.1-0.3,0.3-0.3,0.6-0.2l0,0
			c0.3,0.1,0.5,0.2,0.4,0.5l-0.3,1.2C2301-38.8,2300.8-38.7,2300.5-38.8z"/>
		<path fill="#68878E" d="M2301.4-42.7L2301.4-42.7c-0.3-0.1-0.4-0.6-0.3-0.8l0.3-1.3c0.1-0.3,0.4-0.5,0.6-0.4
			c0.3,0.1,0.4,0.3,0.4,0.6l-0.3,1.4C2302-43,2301.7-42.6,2301.4-42.7z"/>
	</g>
	<g>
		<path fill="#68878E" d="M2209.1,136.2c-0.2,0-0.3-0.2-0.4-0.4c-0.1-0.3,0.1-0.5,0.4-0.6l3.8-0.9c0.3-0.1,0.5,0.1,0.6,0.4
			c0.1,0.3-0.1,0.5-0.4,0.6l-3.8,0.9C2209.3,136.2,2209.2,136.2,2209.1,136.2z"/>
		<path fill="#68878E" d="M2216.8,134.3c-0.2,0-0.3-0.2-0.4-0.4c-0.1-0.3,0.1-0.5,0.4-0.6l3.8-0.9c0.3-0.1,0.5,0.1,0.6,0.4
			c0.1,0.3-0.1,0.5-0.4,0.6l-3.8,0.9C2217,134.3,2216.9,134.3,2216.8,134.3z"/>
		<path fill="#68878E" d="M2214.4,132.9c-0.2,0-0.3-0.2-0.4-0.4l-0.9-3.8c-0.1-0.3,0.1-0.5,0.4-0.6s0.5,0.1,0.6,0.4l0.9,3.8
			c0.1,0.3-0.1,0.5-0.4,0.6C2214.6,132.9,2214.5,132.9,2214.4,132.9z"/>
		<path fill="#68878E" d="M2216.3,140.6c-0.2,0-0.3-0.2-0.4-0.4l-0.9-3.8c-0.1-0.3,0.1-0.5,0.4-0.6s0.5,0.1,0.6,0.4l0.9,3.8
			c0.1,0.3-0.1,0.5-0.4,0.6C2216.5,140.6,2216.4,140.6,2216.3,140.6z"/>
		<path fill="#68878E" d="M2218,136.6c-0.1,0-0.1,0-0.2-0.1l-1.4-0.8c-0.2-0.1-0.3-0.5-0.2-0.7s0.5-0.3,0.7-0.2l1.4,0.8
			c0.2,0.1,0.3,0.5,0.2,0.7C2218.4,136.6,2218.2,136.7,2218,136.6z"/>
		<path fill="#68878E" d="M2213.2,133.8c-0.1,0-0.1,0-0.2-0.1l-1.4-0.8c-0.2-0.1-0.3-0.5-0.2-0.7s0.5-0.3,0.7-0.2l1.4,0.8
			c0.2,0.1,0.3,0.5,0.2,0.7C2213.6,133.7,2213.4,133.8,2213.2,133.8z"/>
		<path fill="#68878E" d="M2213.1,137.8c-0.1,0-0.1,0-0.2-0.1c-0.2-0.1-0.3-0.5-0.2-0.7l0.8-1.4c0.1-0.2,0.5-0.3,0.7-0.2
			c0.2,0.1,0.3,0.5,0.2,0.7l-0.8,1.4C2213.5,137.8,2213.3,137.9,2213.1,137.8z"/>
		<path fill="#68878E" d="M2215.9,133.1c-0.1,0-0.1,0-0.2-0.1c-0.2-0.1-0.3-0.5-0.2-0.7l0.8-1.4c0.1-0.2,0.5-0.3,0.7-0.2
			c0.2,0.1,0.3,0.5,0.2,0.7l-0.8,1.4C2216.3,133,2216.1,133.1,2215.9,133.1z"/>
	</g>
	<g>
		<path fill="#68878E" d="M2215.8,75.4c-0.2,0-0.3-0.2-0.4-0.4c-0.1-0.3,0.1-0.5,0.4-0.6l3.8-0.9c0.3-0.1,0.5,0.1,0.6,0.4
			c0.1,0.3-0.1,0.5-0.4,0.6l-3.8,0.9C2215.9,75.4,2215.9,75.4,2215.8,75.4z"/>
		<path fill="#68878E" d="M2223.5,73.5c-0.2,0-0.3-0.2-0.4-0.4c-0.1-0.3,0.1-0.5,0.4-0.6l3.8-0.9c0.3-0.1,0.5,0.1,0.6,0.4
			c0.1,0.3-0.1,0.5-0.4,0.6l-3.8,0.9C2223.6,73.5,2223.6,73.5,2223.5,73.5z"/>
		<path fill="#68878E" d="M2221.1,72c-0.2,0-0.3-0.2-0.4-0.4l-0.9-3.8c-0.1-0.3,0.1-0.5,0.4-0.6s0.5,0.1,0.6,0.4l0.9,3.8
			c0.1,0.3-0.1,0.5-0.4,0.6C2221.2,72,2221.2,72,2221.1,72z"/>
		<path fill="#68878E" d="M2223,79.7c-0.2,0-0.3-0.2-0.4-0.4l-0.9-3.8c-0.1-0.3,0.1-0.5,0.4-0.6s0.5,0.1,0.6,0.4l0.9,3.8
			c0.1,0.3-0.1,0.5-0.4,0.6C2223.1,79.7,2223,79.7,2223,79.7z"/>
		<path fill="#68878E" d="M2224.6,75.8c-0.1,0-0.1,0-0.2-0.1l-1.4-0.8c-0.2-0.1-0.3-0.5-0.2-0.7c0.1-0.2,0.5-0.3,0.7-0.2l1.4,0.8
			c0.2,0.1,0.3,0.5,0.2,0.7C2225,75.7,2224.8,75.8,2224.6,75.8z"/>
		<path fill="#68878E" d="M2219.9,72.9c-0.1,0-0.1,0-0.2-0.1l-1.4-0.8c-0.2-0.1-0.3-0.5-0.2-0.7c0.1-0.2,0.5-0.3,0.7-0.2l1.4,0.8
			c0.2,0.1,0.3,0.5,0.2,0.7C2220.3,72.9,2220.1,73,2219.9,72.9z"/>
		<path fill="#68878E" d="M2219.7,77c-0.1,0-0.1,0-0.2-0.1c-0.2-0.1-0.3-0.5-0.2-0.7l0.8-1.4c0.1-0.2,0.5-0.3,0.7-0.2
			s0.3,0.5,0.2,0.7l-0.8,1.4C2220.1,77,2219.9,77,2219.7,77z"/>
		<path fill="#68878E" d="M2222.6,72.3c-0.1,0-0.1,0-0.2-0.1c-0.2-0.1-0.3-0.5-0.2-0.7l0.8-1.4c0.1-0.2,0.5-0.3,0.7-0.2
			s0.3,0.5,0.2,0.7l-0.8,1.4C2223,72.2,2222.8,72.3,2222.6,72.3z"/>
	</g>
	<g>
		<path fill="#68878E" d="M2151.1-34.8c-0.2,0-0.3-0.2-0.4-0.4c-0.1-0.3,0.1-0.5,0.4-0.6l3.8-0.9c0.3-0.1,0.5,0.1,0.6,0.4
			c0.1,0.3-0.1,0.5-0.4,0.6l-3.8,0.9C2151.3-34.8,2151.2-34.8,2151.1-34.8z"/>
		<path fill="#68878E" d="M2158.8-36.7c-0.2,0-0.3-0.2-0.4-0.4c-0.1-0.3,0.1-0.5,0.4-0.6l3.8-0.9c0.3-0.1,0.5,0.1,0.6,0.4
			c0.1,0.3-0.1,0.5-0.4,0.6l-3.8,0.9C2159-36.7,2158.9-36.7,2158.8-36.7z"/>
		<path fill="#68878E" d="M2156.4-38.1c-0.2,0-0.3-0.2-0.4-0.4l-0.9-3.8c-0.1-0.3,0.1-0.5,0.4-0.6s0.5,0.1,0.6,0.4l0.9,3.8
			c0.1,0.3-0.1,0.5-0.4,0.6C2156.6-38.1,2156.5-38.1,2156.4-38.1z"/>
		<path fill="#68878E" d="M2158.3-30.4c-0.2,0-0.3-0.2-0.4-0.4l-0.9-3.8c-0.1-0.3,0.1-0.5,0.4-0.6s0.5,0.1,0.6,0.4l0.9,3.8
			c0.1,0.3-0.1,0.5-0.4,0.6C2158.5-30.4,2158.4-30.4,2158.3-30.4z"/>
		<path fill="#68878E" d="M2160-34.4c-0.1,0-0.1,0-0.2-0.1l-1.4-0.8c-0.2-0.1-0.3-0.5-0.2-0.7s0.5-0.3,0.7-0.2l1.4,0.8
			c0.2,0.1,0.3,0.5,0.2,0.7C2160.4-34.4,2160.2-34.3,2160-34.4z"/>
		<path fill="#68878E" d="M2155.2-37.2c-0.1,0-0.1,0-0.2-0.1l-1.4-0.8c-0.2-0.1-0.3-0.5-0.2-0.7s0.5-0.3,0.7-0.2l1.4,0.8
			c0.2,0.1,0.3,0.5,0.2,0.7C2155.6-37.3,2155.4-37.2,2155.2-37.2z"/>
		<path fill="#68878E" d="M2155.1-33.2c-0.1,0-0.1,0-0.2-0.1c-0.2-0.1-0.3-0.5-0.2-0.7l0.8-1.4c0.1-0.2,0.5-0.3,0.7-0.2
			c0.2,0.1,0.3,0.5,0.2,0.7l-0.8,1.4C2155.5-33.2,2155.3-33.1,2155.1-33.2z"/>
		<path fill="#68878E" d="M2157.9-37.9c-0.1,0-0.1,0-0.2-0.1c-0.2-0.1-0.3-0.5-0.2-0.7l0.8-1.4c0.1-0.2,0.5-0.3,0.7-0.2
			c0.2,0.1,0.3,0.5,0.2,0.7l-0.8,1.4C2158.3-38,2158.1-37.9,2157.9-37.9z"/>
	</g>
	<g>
		<path fill="#68878E" d="M2157.8-95.6c-0.2,0-0.3-0.2-0.4-0.4c-0.1-0.3,0.1-0.5,0.4-0.6l3.8-0.9c0.3-0.1,0.5,0.1,0.6,0.4
			c0.1,0.3-0.1,0.5-0.4,0.6l-3.8,0.9C2157.9-95.6,2157.9-95.6,2157.8-95.6z"/>
		<path fill="#68878E" d="M2165.5-97.5c-0.2,0-0.3-0.2-0.4-0.4c-0.1-0.3,0.1-0.5,0.4-0.6l3.8-0.9c0.3-0.1,0.5,0.1,0.6,0.4
			c0.1,0.3-0.1,0.5-0.4,0.6l-3.8,0.9C2165.6-97.5,2165.6-97.5,2165.5-97.5z"/>
		<path fill="#68878E" d="M2163.1-99c-0.2,0-0.3-0.2-0.4-0.4l-0.9-3.8c-0.1-0.3,0.1-0.5,0.4-0.6c0.3-0.1,0.5,0.1,0.6,0.4l0.9,3.8
			c0.1,0.3-0.1,0.5-0.4,0.6C2163.2-99,2163.2-99,2163.1-99z"/>
		<path fill="#68878E" d="M2165-91.3c-0.2,0-0.3-0.2-0.4-0.4l-0.9-3.8c-0.1-0.3,0.1-0.5,0.4-0.6s0.5,0.1,0.6,0.4l0.9,3.8
			c0.1,0.3-0.1,0.5-0.4,0.6C2165.1-91.3,2165-91.3,2165-91.3z"/>
		<path fill="#68878E" d="M2166.6-95.2c-0.1,0-0.1,0-0.2-0.1l-1.4-0.8c-0.2-0.1-0.3-0.5-0.2-0.7c0.1-0.2,0.5-0.3,0.7-0.2l1.4,0.8
			c0.2,0.1,0.3,0.5,0.2,0.7C2167-95.3,2166.8-95.2,2166.6-95.2z"/>
		<path fill="#68878E" d="M2161.9-98.1c-0.1,0-0.1,0-0.2-0.1l-1.4-0.8c-0.2-0.1-0.3-0.5-0.2-0.7c0.1-0.2,0.5-0.3,0.7-0.2l1.4,0.8
			c0.2,0.1,0.3,0.5,0.2,0.7C2162.3-98.1,2162.1-98,2161.9-98.1z"/>
		<path fill="#68878E" d="M2161.7-94c-0.1,0-0.1,0-0.2-0.1c-0.2-0.1-0.3-0.5-0.2-0.7l0.8-1.4c0.1-0.2,0.5-0.3,0.7-0.2
			s0.3,0.5,0.2,0.7l-0.8,1.4C2162.1-94,2161.9-94,2161.7-94z"/>
		<path fill="#68878E" d="M2164.6-98.7c-0.1,0-0.1,0-0.2-0.1c-0.2-0.1-0.3-0.5-0.2-0.7l0.8-1.4c0.1-0.2,0.5-0.3,0.7-0.2
			s0.3,0.5,0.2,0.7l-0.8,1.4C2165-98.8,2164.8-98.7,2164.6-98.7z"/>
	</g>
	<g>
		<path fill="#68878E" d="M2154.4,81.5c-0.2,0-0.4-0.3-0.4-0.5l0.3-4c0-0.3,0.3-0.5,0.5-0.5c0.3,0,0.5,0.3,0.5,0.5l-0.3,4
			C2154.9,81.3,2154.7,81.5,2154.4,81.5L2154.4,81.5z"/>
		<path fill="#68878E" d="M2153.8,89.4c-0.2,0-0.4-0.3-0.4-0.5l0.3-4c0-0.3,0.3-0.5,0.5-0.5c0.3,0,0.5,0.3,0.5,0.5l-0.3,4
			C2154.4,89.2,2154.1,89.4,2153.8,89.4L2153.8,89.4z"/>
		<path fill="#68878E" d="M2156.2,83.6c-0.2,0-0.4-0.3-0.4-0.5c0-0.3,0.3-0.5,0.5-0.5l4,0.3c0.3,0,0.5,0.3,0.5,0.5
			c0,0.3-0.3,0.5-0.5,0.5L2156.2,83.6L2156.2,83.6z"/>
		<path fill="#68878E" d="M2148.3,83.1c-0.2,0-0.4-0.3-0.4-0.5c0-0.3,0.3-0.5,0.5-0.5l4,0.3c0.3,0,0.5,0.3,0.5,0.5
			c0,0.3-0.3,0.5-0.5,0.5L2148.3,83.1L2148.3,83.1z"/>
		<path fill="#68878E" d="M2151.5,85.8c-0.1,0-0.2-0.1-0.3-0.2c-0.2-0.2-0.2-0.5,0-0.7l1.2-1c0.2-0.2,0.5-0.2,0.7,0.1
			c0.2,0.2,0.2,0.5,0,0.7l-1.2,1C2151.8,85.8,2151.7,85.9,2151.5,85.8z"/>
		<path fill="#68878E" d="M2155.7,82.2c-0.1,0-0.2-0.1-0.3-0.2c-0.2-0.2-0.2-0.5,0-0.7l1.2-1c0.2-0.2,0.5-0.2,0.7,0s0.2,0.5,0,0.7
			l-1.2,1C2156,82.2,2155.9,82.2,2155.7,82.2z"/>
		<path fill="#68878E" d="M2152.9,82c-0.1,0-0.2-0.1-0.3-0.2l-1-1.2c-0.2-0.2-0.2-0.5,0-0.7s0.5-0.2,0.7,0l1,1.2
			c0.2,0.2,0.2,0.5,0,0.7C2153.2,82,2153.1,82,2152.9,82z"/>
		<path fill="#68878E" d="M2156.6,86.2c-0.1,0-0.2-0.1-0.3-0.2l-1-1.2c-0.2-0.2-0.2-0.5,0-0.7s0.5-0.2,0.7,0l1,1.2
			c0.2,0.2,0.2,0.5,0,0.7C2156.9,86.2,2156.7,86.2,2156.6,86.2z"/>
	</g>
	<g>
		<path fill="#68878E" d="M1248.3-52.2c-0.1,0-0.3-0.1-0.4-0.2l-2.1-2.3c-0.2-0.2-0.2-0.5,0-0.7c0.2-0.2,0.5-0.2,0.7,0l2.1,2.3
			c0.2,0.2,0.2,0.5,0,0.7C1248.5-52.2,1248.4-52.2,1248.3-52.2z"/>
		<path fill="#68878E" d="M1252.6-47.5c-0.1,0-0.3-0.1-0.4-0.2l-2.1-2.3c-0.2-0.2-0.2-0.5,0-0.7c0.2-0.2,0.5-0.2,0.7,0l2.1,2.3
			c0.2,0.2,0.2,0.5,0,0.7C1252.8-47.6,1252.7-47.5,1252.6-47.5z"/>
		<path fill="#68878E" d="M1250.5-52.1c-0.1,0-0.3-0.1-0.4-0.2c-0.2-0.2-0.2-0.5,0-0.7l2.3-2.1c0.2-0.2,0.5-0.2,0.7,0
			c0.2,0.2,0.2,0.5,0,0.7l-2.3,2.1C1250.8-52.1,1250.6-52.1,1250.5-52.1z"/>
		<path fill="#68878E" d="M1245.9-47.8c-0.1,0-0.3-0.1-0.4-0.2c-0.2-0.2-0.2-0.5,0-0.7l2.3-2.1c0.2-0.2,0.5-0.2,0.7,0
			c0.2,0.2,0.2,0.5,0,0.7l-2.3,2.1C1246.1-47.9,1246-47.8,1245.9-47.8z"/>
		<path fill="#68878E" d="M1249.2-47L1249.2-47c-0.3,0-0.5-0.8-0.5-1.1l0.1-1.6c0-0.3,0.3-0.6,0.5-0.6c0.3,0,0.5,0.2,0.5,0.4
			l-0.1,1.8C1249.7-47.8,1249.5-47,1249.2-47z"/>
		<path fill="#68878E" d="M1249.4-53L1249.4-53c-0.3,0-0.5,0-0.5-0.3l0.1-1.2c0-0.3,0.2-0.4,0.5-0.4c0.3,0,0.5,0.3,0.5,0.5l-0.1,1.1
			C1249.9-53,1249.7-53,1249.4-53z"/>
		<path fill="#68878E" d="M1247.8-50L1247.8-50l-1.3-0.6c-0.3,0-0.5-0.5-0.5-0.8s0.3-0.6,0.5-0.6h1.3c0.3,0,0.5,0.8,0.5,1
			C1248.3-50.7,1248-50,1247.8-50z"/>
		<path fill="#68878E" d="M1252.2-50L1252.2-50l-1.3-0.5c-0.3,0-0.5-0.5-0.5-0.7c0-0.3,0.3-0.6,0.5-0.6h1.3c0.3,0,0.5,0.7,0.5,0.9
			C1252.7-50.6,1252.5-50,1252.2-50z"/>
	</g>
	<g>
		<path fill="#68878E" d="M1178.4,97.2c-0.2,0-0.4-0.1-0.5-0.3l-1.6-3.6c-0.1-0.3,0-0.5,0.2-0.7c0.2-0.1,0.5,0,0.7,0.2l1.6,3.6
			c0.1,0.3,0,0.5-0.2,0.7C1178.6,97.2,1178.5,97.2,1178.4,97.2z"/>
		<path fill="#68878E" d="M1181.7,104.5c-0.2,0-0.4-0.1-0.5-0.3l-1.6-3.6c-0.1-0.3,0-0.5,0.2-0.7c0.2-0.1,0.5,0,0.7,0.2l1.6,3.6
			c0.1,0.3,0,0.5-0.2,0.7C1181.8,104.4,1181.8,104.5,1181.7,104.5z"/>
		<path fill="#68878E" d="M1181,98.2c-0.2,0-0.4-0.1-0.5-0.3c-0.1-0.3,0-0.5,0.2-0.7l3.6-1.6c0.2-0.1,0.5,0,0.7,0.2
			c0.1,0.3,0,0.5-0.2,0.7l-3.6,1.6C1181.2,98.2,1181.1,98.2,1181,98.2z"/>
		<path fill="#68878E" d="M1173.8,101.5c-0.2,0-0.4-0.1-0.5-0.3c-0.1-0.3,0-0.5,0.2-0.7l3.6-1.6c0.2-0.1,0.5,0,0.7,0.2
			c0.1,0.3,0,0.5-0.2,0.7l-3.6,1.6C1174,101.5,1173.9,101.5,1173.8,101.5z"/>
		<path fill="#68878E" d="M1178,102.4c-0.1,0-0.1,0-0.2,0c-0.3-0.1-0.4-0.4-0.3-0.6l0.6-1.5c0.1-0.3,0.4-0.4,0.6-0.3
			c0.3,0.1,0.4,0.4,0.3,0.6l-0.6,1.5C1178.4,102.3,1178.2,102.4,1178,102.4z"/>
		<path fill="#68878E" d="M1179.9,97.2c-0.1,0-0.1,0-0.2,0c-0.3-0.1-0.4-0.4-0.3-0.6l0.6-1.5c0.1-0.3,0.4-0.4,0.6-0.3
			c0.3,0.1,0.4,0.4,0.3,0.6l-0.6,1.5C1180.3,97.1,1180.1,97.2,1179.9,97.2z"/>
		<path fill="#68878E" d="M1177.4,98.3c-0.1,0-0.1,0-0.2,0l-1.5-0.6c-0.3-0.1-0.4-0.4-0.3-0.6c0.1-0.3,0.4-0.4,0.6-0.3l1.5,0.6
			c0.3,0.1,0.4,0.4,0.3,0.6C1177.8,98.2,1177.6,98.3,1177.4,98.3z"/>
		<path fill="#68878E" d="M1182.6,100.3c-0.1,0-0.1,0-0.2,0l-1.5-0.6c-0.3-0.1-0.4-0.4-0.3-0.6c0.1-0.3,0.4-0.4,0.6-0.3l1.5,0.6
			c0.3,0.1,0.4,0.4,0.3,0.6C1183,100.2,1182.8,100.3,1182.6,100.3z"/>
	</g>
	<g>
		<path fill="#68878E" d="M928.6,84.2c-0.2,0-0.3-0.1-0.4-0.2c-0.1-0.2-0.1-0.5,0.2-0.7l1.3-0.8c0.2-0.1,0.5-0.1,0.7,0.2
			c0.1,0.2,0.1,0.5-0.2,0.7l-1.3,0.8C928.8,84.2,928.7,84.2,928.6,84.2z"/>
		<path fill="#68878E" d="M925.9,85.9c-0.2,0-0.3-0.1-0.4-0.2c-0.1-0.2-0.1-0.5,0.2-0.7l1.3-0.8c0.2-0.1,0.5-0.1,0.7,0.2
			c0.1,0.2,0.1,0.5-0.2,0.7l-1.3,0.8C926.1,85.9,926,85.9,925.9,85.9z"/>
		<path fill="#68878E" d="M929.2,86.7c-0.2,0-0.3-0.1-0.4-0.2l-0.8-1.3c-0.1-0.2-0.1-0.5,0.2-0.7c0.2-0.1,0.5-0.1,0.7,0.2l0.8,1.3
			c0.1,0.2,0.1,0.5-0.2,0.7C929.4,86.6,929.3,86.7,929.2,86.7z"/>
		<path fill="#68878E" d="M927.5,84c-0.2,0-0.3-0.1-0.4-0.2l-0.8-1.3c-0.1-0.2-0.1-0.5,0.2-0.7c0.2-0.1,0.5-0.1,0.7,0.2l0.8,1.3
			c0.1,0.2,0.1,0.5-0.2,0.7C927.7,83.9,927.6,84,927.5,84z"/>
		<path fill="#68878E" d="M927.1,84.5L927.1,84.5l-0.7-0.1c-0.3-0.1-0.4-0.3-0.4-0.6c0.1-0.3,0.3-0.4,0.6-0.4l0.6,0.1
			c0.3,0.1,0.4,0.3,0.4,0.6C927.6,84.3,927.4,84.5,927.1,84.5z"/>
		<path fill="#68878E" d="M929.3,85L929.3,85l-0.7-0.1c-0.3-0.1-0.4-0.3-0.4-0.6c0.1-0.3,0.3-0.4,0.6-0.4l0.6,0.1
			c0.3,0.1,0.4,0.3,0.4,0.6C929.7,84.8,929.5,85,929.3,85z"/>
		<path fill="#68878E" d="M928.1,83.9L928.1,83.9c-0.4-0.1-0.5-0.3-0.5-0.6l0.1-0.6c0.1-0.3,0.3-0.4,0.6-0.4
			c0.3,0.1,0.4,0.3,0.4,0.6l-0.1,0.6C928.5,83.7,928.3,83.9,928.1,83.9z"/>
		<path fill="#68878E" d="M927.6,86L927.6,86c-0.4-0.1-0.5-0.3-0.5-0.6l0.1-0.6c0.1-0.3,0.3-0.4,0.6-0.4c0.3,0.1,0.4,0.3,0.4,0.6
			l-0.1,0.6C928,85.9,927.8,86,927.6,86z"/>
	</g>
	<g>
		<path fill="#68878E" d="M1012.8,85c-0.3,0-0.5-0.6-0.5-0.9v-1.8c0-0.3,0.2-0.6,0.5-0.6s0.5,0.2,0.5,0.4V84
			C1013.3,84.4,1013.1,85,1012.8,85L1012.8,85z"/>
		<path fill="#68878E" d="M1012.8,82c-0.3,0-0.5-0.7-0.5-1v-1.6c0-0.3,0.2-0.5,0.5-0.5l0,0c0.3,0,0.5,0,0.5,0.2V81
			C1013.3,81.4,1013.1,82,1012.8,82L1012.8,82z"/>
		<path fill="#68878E" d="M1010.4,83c-0.3,0-0.5-0.8-0.5-1.1s0.2-0.2,0.5-0.2l1.6,0.3l0,0c0.3,0,0.5-0.3,0.5-0.1
			c0,0.3-0.2,0.8-0.5,0.8L1010.4,83L1010.4,83z"/>
		<path fill="#68878E" d="M1013.6,83c-0.3,0-0.5-0.8-0.5-1.1s0.2-0.2,0.5-0.2l1.6,0.3l0,0c0.3,0,0.5-0.4,0.5-0.1
			c0,0.3-0.2,0.8-0.5,0.8L1013.6,83L1013.6,83z"/>
		<path fill="#68878E" d="M1013.4,81.3c-0.1,0-0.3,0-0.4-0.1c-0.2-0.2-0.2-0.5,0-0.7l0.4-0.5c0.2-0.2,0.5-0.2,0.7,0s0.2,0.5,0,0.7
			l-0.4,0.5C1013.6,81.2,1013.5,81.3,1013.4,81.3z"/>
		<path fill="#68878E" d="M1011.8,82.9c-0.1,0-0.3,0-0.4-0.1c-0.2-0.2-0.2-0.5,0-0.7l0.4-0.5c0.2-0.2,0.5-0.2,0.7,0s0.2,0.5,0,0.7
			l-0.4,0.5C1012,82.8,1011.9,82.9,1011.8,82.9z"/>
		<path fill="#68878E" d="M1013.8,82.9c-0.1,0-0.3,0-0.4-0.1l-0.5-0.4c-0.2-0.2-0.2-0.5,0-0.7c0.2-0.2,0.5-0.2,0.7,0l0.5,0.4
			c0.2,0.2,0.2,0.5,0,0.7C1014.1,82.8,1013.9,82.9,1013.8,82.9z"/>
		<path fill="#68878E" d="M1012.2,81.3c-0.1,0-0.3,0-0.4-0.1l-0.5-0.4c-0.2-0.2-0.2-0.5,0-0.7s0.5-0.2,0.7,0l0.5,0.4
			c0.2,0.2,0.2,0.5,0,0.7C1012.5,81.3,1012.4,81.3,1012.2,81.3z"/>
	</g>
	<g>
		<path fill="#68878E" d="M942.7,123.3c-0.1,0-0.3,0-0.3-0.1l-1.6-1.5c-0.2-0.2-0.2-0.5,0-0.7s0.5-0.2,0.7,0l1.6,1.5
			c0.2,0.2,0.2,0.5,0,0.7C943,123.2,942.8,123.3,942.7,123.3z"/>
		<path fill="#68878E" d="M939.6,120.2c-0.1,0-0.3,0-0.3-0.1l-1.6-1.5c-0.2-0.2-0.2-0.5,0-0.7c0.2-0.2,0.5-0.2,0.7,0l1.6,1.5
			c0.2,0.2,0.2,0.5,0,0.7C939.8,120.2,939.7,120.2,939.6,120.2z"/>
		<path fill="#68878E" d="M938.1,123.3c-0.1,0-0.3,0-0.3-0.1c-0.2-0.2-0.2-0.5,0-0.7l1.5-1.6c0.2-0.2,0.5-0.2,0.7,0
			c0.2,0.2,0.2,0.5,0,0.7l-1.5,1.6C938.3,123.3,938.2,123.3,938.1,123.3z"/>
		<path fill="#68878E" d="M941.1,120.2c-0.1,0-0.3,0-0.3-0.1c-0.2-0.2-0.2-0.5,0-0.7l1.5-1.6c0.2-0.2,0.5-0.2,0.7,0s0.2,0.5,0,0.7
			l-1.5,1.6C941.4,120.1,941.2,120.2,941.1,120.2z"/>
		<path fill="#68878E" d="M940.3,119.9c-0.3,0-0.5-0.2-0.5-0.5v-0.9c0-0.3,0.2-0.5,0.5-0.5s0.5,0.2,0.5,0.5v0.9
			C940.8,119.7,940.6,119.9,940.3,119.9L940.3,119.9z"/>
		<path fill="#68878E" d="M940.4,122.9c-0.3,0-0.5-0.2-0.5-0.5v-0.9c0-0.3,0.2-0.5,0.5-0.5c0.3,0,0.5,0.2,0.5,0.5v0.9
			C940.9,122.7,940.7,122.9,940.4,122.9L940.4,122.9z"/>
		<path fill="#68878E" d="M941.4,121c-0.3,0-0.5-0.2-0.5-0.5s0.2-0.5,0.5-0.5h0.9c0.3,0,0.5,0.2,0.5,0.5s-0.2,0.5-0.5,0.5H941.4
			L941.4,121z"/>
		<path fill="#68878E" d="M938.4,121c-0.3,0-0.5-0.2-0.5-0.5s0.2-0.5,0.5-0.5h0.9c0.3,0,0.5,0.2,0.5,0.5s-0.2,0.5-0.5,0.5H938.4
			L938.4,121z"/>
	</g>
	<g>
		<path fill="#68878E" d="M1045.7,65.5c-0.3-0.1-0.4-0.3-0.4-0.6l0.7-2.9c0.1-0.3,0.3-0.4,0.6-0.4c0.3,0.1,0.4,0.3,0.4,0.6l-0.7,2.9
			C1046.3,65.4,1046,65.6,1045.7,65.5z"/>
		<path fill="#68878E" d="M1044.4,71.4c-0.3-0.1-0.4-0.3-0.4-0.6l0.7-2.9c0.1-0.3,0.3-0.4,0.6-0.4c0.3,0,0.4,0.3,0.4,0.6L1045,71
			C1044.9,71.3,1044.7,71.4,1044.4,71.4z"/>
		<path fill="#68878E" d="M1049.8,68l-2.9-0.7c-0.3-0.1-0.4-0.3-0.4-0.6c0.1-0.3,0.3-0.4,0.6-0.4l2.9,0.7c0.3,0.1,0.4,0.3,0.4,0.6
			C1050.3,67.9,1050.1,68,1049.8,68z"/>
		<path fill="#68878E" d="M1043.9,66.7L1041,66c-0.3-0.1-0.4-0.3-0.4-0.6c0.1-0.3,0.3-0.4,0.6-0.4l2.9,0.7c0.3,0.1,0.4,0.3,0.4,0.6
			S1044.2,66.7,1043.9,66.7z"/>
		<path fill="#68878E" d="M1048.7,64.9c-0.1,0-0.2-0.1-0.3-0.2c-0.1-0.2-0.1-0.5,0.2-0.7l0.8-0.5c0.2-0.1,0.5-0.1,0.7,0.2
			c0.1,0.2,0.1,0.5-0.2,0.7l-0.8,0.5C1049,64.9,1048.8,64.9,1048.7,64.9z"/>
		<path fill="#68878E" d="M1041.2,69.6c-0.1,0-0.2-0.1-0.3-0.2c-0.1-0.2-0.1-0.5,0.2-0.7l0.8-0.5c0.2-0.1,0.5-0.1,0.7,0.2
			c0.2,0.3,0.1,0.5-0.2,0.7l-0.8,0.5C1041.5,69.6,1041.4,69.6,1041.2,69.6z"/>
		<path fill="#68878E" d="M1048,71.1c-0.1,0-0.2-0.1-0.3-0.2l-0.5-0.8c-0.1-0.2-0.1-0.5,0.2-0.7s0.5-0.1,0.7,0.2l0.5,0.8
			c0.1,0.2,0.1,0.5-0.2,0.7C1048.3,71.1,1048.1,71.2,1048,71.1z"/>
		<path fill="#68878E" d="M1043.3,63.7c-0.1,0-0.2-0.1-0.3-0.2l-0.5-0.8c-0.1-0.2-0.1-0.5,0.2-0.7c0.2-0.1,0.5-0.1,0.7,0.2l0.5,0.8
			c0.1,0.2,0.1,0.5-0.2,0.7C1043.6,63.7,1043.4,63.7,1043.3,63.7z"/>
	</g>
	<g>
		<path fill="#68878E" d="M1965,26.2c-0.3,0-0.5-0.1-0.6-0.4l-0.5-3c0-0.3,0.1-0.5,0.4-0.6c0.3,0,0.5,0.1,0.6,0.4l0.5,3
			C1965.5,25.9,1965.3,26.1,1965,26.2z"/>
		<path fill="#68878E" d="M1965.9,32.1c-0.3,0-0.5-0.1-0.6-0.4l-0.5-3c0-0.3,0.1-0.5,0.4-0.6s0.5,0.1,0.6,0.4l0.5,3
			C1966.4,31.8,1966.2,32.1,1965.9,32.1z"/>
		<path fill="#68878E" d="M1969.7,27l-3,0.5c-0.3,0-0.5-0.1-0.6-0.4c0-0.3,0.1-0.5,0.4-0.6l3-0.5c0.3,0,0.5,0.1,0.6,0.4
			C1970.2,26.7,1970,27,1969.7,27z"/>
		<path fill="#68878E" d="M1963.8,27.9l-3,0.5c-0.3,0-0.5-0.1-0.6-0.4c0-0.3,0.1-0.5,0.4-0.6l3-0.5c0.3,0,0.5,0.1,0.6,0.4
			C1964.2,27.6,1964.1,27.9,1963.8,27.9z"/>
		<path fill="#68878E" d="M1967.6,24.5c-0.1,0-0.3,0-0.4-0.1c-0.2-0.2-0.3-0.5-0.1-0.7l0.6-0.8c0.2-0.2,0.5-0.3,0.7-0.1
			s0.3,0.5,0.1,0.7l-0.6,0.8C1967.8,24.4,1967.7,24.5,1967.6,24.5z"/>
		<path fill="#68878E" d="M1962.4,31.6c-0.1,0-0.3,0-0.4-0.1c-0.2-0.2-0.3-0.5-0.1-0.7l0.6-0.8c0.2-0.2,0.5-0.3,0.7-0.1
			s0.3,0.5,0.1,0.7l-0.6,0.8C1962.6,31.5,1962.5,31.6,1962.4,31.6z"/>
		<path fill="#68878E" d="M1969.2,30.6c-0.1,0-0.3,0-0.4-0.1l-0.8-0.6c-0.2-0.2-0.3-0.5-0.1-0.7c0.2-0.2,0.5-0.3,0.7-0.1l0.8,0.6
			c0.2,0.2,0.3,0.5,0.1,0.7C1969.5,30.5,1969.3,30.6,1969.2,30.6z"/>
		<path fill="#68878E" d="M1962.1,25.4c-0.1,0-0.3,0-0.4-0.1l-0.8-0.6c-0.2-0.2-0.3-0.5-0.1-0.7s0.5-0.3,0.7-0.1l0.8,0.6
			c0.2,0.2,0.3,0.5,0.1,0.7C1962.4,25.3,1962.2,25.3,1962.1,25.4z"/>
	</g>
	<g>
		<path fill="#68878E" d="M945.2-48.4c-0.3,0.1-0.5,0-0.6-0.3l-1-2.8c-0.1-0.3,0-0.5,0.3-0.6c0.3-0.1,0.5,0,0.6,0.3l1,2.8
			C945.6-48.8,945.4-48.5,945.2-48.4z"/>
		<path fill="#68878E" d="M947.2-42.8c-0.3,0.1-0.5,0-0.6-0.3l-1-2.8c-0.1-0.3,0-0.5,0.3-0.6c0.3-0.1,0.5,0,0.6,0.3l1,2.8
			C947.6-43.2,947.4-42.9,947.2-42.8z"/>
		<path fill="#68878E" d="M949.9-48.5l-2.8,1c-0.3,0.1-0.5,0-0.6-0.3c-0.1-0.3,0-0.5,0.3-0.6l2.8-1c0.3-0.1,0.5,0,0.6,0.3
			C950.3-48.9,950.2-48.6,949.9-48.5z"/>
		<path fill="#68878E" d="M944.3-46.5l-2.8,1c-0.3,0.1-0.5,0-0.6-0.3c-0.1-0.3,0-0.5,0.3-0.6l2.8-1c0.3-0.1,0.5,0,0.6,0.3
			C944.7-46.9,944.5-46.6,944.3-46.5z"/>
		<path fill="#68878E" d="M947.3-50.6c-0.1,0-0.3,0-0.4,0c-0.2-0.1-0.4-0.4-0.2-0.7l0.4-0.9c0.1-0.2,0.4-0.4,0.7-0.2
			c0.2,0.1,0.4,0.4,0.2,0.7l-0.4,0.9C947.6-50.7,947.5-50.6,947.3-50.6z"/>
		<path fill="#68878E" d="M943.6-42.6c-0.1,0-0.3,0-0.4,0c-0.2-0.1-0.4-0.4-0.2-0.7l0.4-0.9c0.1-0.2,0.4-0.4,0.7-0.2
			c0.2,0.1,0.4,0.4,0.2,0.7l-0.4,0.9C943.8-42.7,943.7-42.6,943.6-42.6z"/>
		<path fill="#68878E" d="M950.1-44.9c-0.1,0-0.3,0-0.4,0l-0.9-0.4c-0.2-0.1-0.4-0.4-0.2-0.7c0.1-0.2,0.4-0.4,0.7-0.2l0.9,0.4
			c0.2,0.1,0.4,0.4,0.2,0.7C950.3-45.1,950.2-45,950.1-44.9z"/>
		<path fill="#68878E" d="M942.1-48.7c-0.1,0-0.3,0-0.4,0l-0.9-0.4c-0.2-0.1-0.4-0.4-0.2-0.7c0.1-0.2,0.4-0.4,0.7-0.2l0.9,0.4
			c0.2,0.1,0.4,0.4,0.2,0.7C942.4-48.8,942.3-48.8,942.1-48.7z"/>
	</g>
	<g>
		<path fill="#68878E" d="M1025,37.2c-0.1,0-0.2,0-0.3-0.1l-1.2-1c-0.2-0.2-0.2-0.5-0.1-0.7c0.2-0.2,0.5-0.2,0.7-0.1l1.2,1
			c0.2,0.2,0.2,0.5,0.1,0.7C1025.2,37.1,1025.1,37.2,1025,37.2z"/>
		<path fill="#68878E" d="M1027.4,39.2c-0.1,0-0.2,0-0.3-0.1l-1.2-1c-0.2-0.2-0.2-0.5-0.1-0.7c0.1-0.2,0.5-0.2,0.7-0.1l1.2,1
			c0.2,0.2,0.2,0.5,0.1,0.7C1027.7,39.1,1027.6,39.2,1027.4,39.2z"/>
		<path fill="#68878E" d="M1026.1,37.1c-0.1,0-0.2,0-0.3-0.1c-0.2-0.2-0.2-0.5-0.1-0.7l1-1.2c0.2-0.2,0.5-0.2,0.7-0.1
			c0.2,0.2,0.2,0.5,0.1,0.7l-1,1.2C1026.4,37,1026.2,37.1,1026.1,37.1z"/>
		<path fill="#68878E" d="M1024.1,39.5c-0.1,0-0.2,0-0.3-0.1c-0.2-0.2-0.2-0.5-0.1-0.7l1-1.2c0.2-0.2,0.5-0.2,0.7-0.1
			c0.2,0.2,0.2,0.5,0.1,0.7l-1,1.2C1024.4,39.5,1024.2,39.5,1024.1,39.5z"/>
		<path fill="#68878E" d="M1025.7,39.1c-0.3,0-0.5-0.2-0.5-0.4l-0.1-0.6c0-0.3,0.2-0.5,0.4-0.6c0.3,0,0.5,0.2,0.6,0.4l0.1,0.6
			C1026.3,38.8,1026.1,39.1,1025.7,39.1C1025.8,39.1,1025.7,39.1,1025.7,39.1z"/>
		<path fill="#68878E" d="M1025.5,36.9c-0.3,0-0.5-0.2-0.5-0.4l-0.1-0.6c0-0.3,0.2-0.5,0.4-0.6c0.3,0,0.5,0.2,0.6,0.4l0.1,0.6
			C1026,36.6,1025.8,36.8,1025.5,36.9L1025.5,36.9z"/>
		<path fill="#68878E" d="M1024.2,37.8c-0.3,0-0.5-0.2-0.5-0.4c0-0.3,0.2-0.5,0.4-0.6l0.6-0.1c0.3,0,0.5,0.2,0.6,0.4
			c0,0.3-0.2,0.5-0.4,0.6L1024.2,37.8L1024.2,37.8z"/>
		<path fill="#68878E" d="M1026.4,37.6c-0.3,0-0.5-0.2-0.5-0.4c0-0.3,0.2-0.5,0.4-0.6l0.6-0.1c0.3,0,0.5,0.2,0.6,0.4
			c0,0.3-0.2,0.5-0.4,0.6L1026.4,37.6L1026.4,37.6z"/>
	</g>
	<g>
		<path fill="#68878E" d="M898.2-5.2c0.3,0,0.5,0.3,0.4,0.5l-0.3,3c0,0.3-0.3,0.5-0.5,0.4c-0.3,0-0.5-0.3-0.4-0.5l0.3-3
			C897.6-5.1,897.9-5.3,898.2-5.2z"/>
		<path fill="#68878E" d="M898.8-11.2c0.3,0,0.5,0.3,0.4,0.5l-0.3,3c0,0.3-0.3,0.5-0.5,0.4c-0.3,0-0.5-0.3-0.4-0.5l0.3-3
			C898.3-11,898.5-11.2,898.8-11.2z"/>
		<path fill="#68878E" d="M893.8-7.2l3,0.3c0.3,0,0.5,0.3,0.4,0.5c0,0.3-0.3,0.5-0.5,0.4l-3-0.3c-0.3,0-0.5-0.3-0.4-0.5
			C893.3-7,893.6-7.2,893.8-7.2z"/>
		<path fill="#68878E" d="M899.8-6.6l3,0.3c0.3,0,0.5,0.3,0.4,0.5c-0.1,0.2-0.3,0.5-0.5,0.4l-3-0.3c-0.3,0-0.5-0.3-0.4-0.5
			C899.3-6.4,899.5-6.6,899.8-6.6z"/>
		<path fill="#68878E" d="M895.3-4.3c0.1,0,0.2,0.1,0.3,0.2c0.2,0.2,0.1,0.5-0.1,0.7l-0.8,0.6c-0.2,0.2-0.5,0.1-0.7-0.1
			c-0.2-0.2-0.1-0.5,0.1-0.7l0.8-0.6C895-4.2,895.1-4.3,895.3-4.3z"/>
		<path fill="#68878E" d="M902.1-9.8c0.1,0,0.2,0.1,0.3,0.2c0.2,0.2,0.1,0.5-0.1,0.7l-0.8,0.6c-0.2,0.2-0.5,0.1-0.7-0.1
			s-0.1-0.5,0.1-0.7l0.8-0.6C901.9-9.8,902-9.8,902.1-9.8z"/>
		<path fill="#68878E" d="M895.2-10.5c0.1,0,0.2,0.1,0.3,0.2l0.6,0.8c0.2,0.2,0.1,0.5-0.1,0.7s-0.5,0.1-0.7-0.1l-0.6-0.8
			c-0.2-0.2-0.1-0.5,0.1-0.7C895-10.5,895.1-10.6,895.2-10.5z"/>
		<path fill="#68878E" d="M900.8-3.7c0.1,0,0.2,0.1,0.3,0.2l0.6,0.8c0.2,0.2,0.1,0.5-0.1,0.7c-0.2,0.2-0.5,0.1-0.7-0.1l-0.6-0.8
			c-0.2-0.2-0.1-0.5,0.1-0.7C900.5-3.7,900.7-3.7,900.8-3.7z"/>
	</g>
	<g>
		<path fill="#68878E" d="M1241.6,44.2c-0.2-0.2-0.2-0.5,0-0.7l2.1-2.2c0.2-0.2,0.5-0.2,0.7,0c0.2,0.2,0.2,0.5,0,0.7l-2.1,2.2
			C1242.2,44.4,1241.8,44.4,1241.6,44.2z"/>
		<path fill="#68878E" d="M1237.5,48.6c-0.2-0.2-0.2-0.5,0-0.7l2.1-2.2c0.2-0.2,0.5-0.2,0.7,0c0.2,0.2,0.2,0.5,0,0.7l-2.1,2.2
			C1238,48.7,1237.7,48.8,1237.5,48.6z"/>
		<path fill="#68878E" d="M1243.9,48.4l-2.2-2.1c-0.2-0.2-0.2-0.5,0-0.7c0.2-0.2,0.5-0.2,0.7,0l2.2,2.1c0.2,0.2,0.2,0.5,0,0.7
			C1244.4,48.6,1244.1,48.6,1243.9,48.4z"/>
		<path fill="#68878E" d="M1239.5,44.3l-2.2-2.1c-0.2-0.2-0.2-0.5,0-0.7c0.2-0.2,0.5-0.2,0.7,0l2.2,2.1c0.2,0.2,0.2,0.5,0,0.7
			C1240,44.5,1239.7,44.5,1239.5,44.3z"/>
		<path fill="#68878E" d="M1244.5,45.2c-0.1-0.1-0.2-0.2-0.2-0.3c0-0.3,0.2-0.5,0.5-0.5h1c0.3,0,0.5,0.2,0.5,0.5s-0.2,0.5-0.5,0.5
			h-1C1244.7,45.4,1244.6,45.3,1244.5,45.2z"/>
		<path fill="#68878E" d="M1235.7,45.4c-0.1-0.1-0.2-0.2-0.2-0.3c0-0.3,0.2-0.5,0.5-0.5h1c0.3,0,0.5,0.2,0.5,0.5s-0.2,0.5-0.5,0.5
			h-1C1235.9,45.6,1235.8,45.5,1235.7,45.4z"/>
		<path fill="#68878E" d="M1240.7,50.2c-0.1-0.1-0.2-0.2-0.2-0.3v-1c0-0.3,0.2-0.5,0.5-0.5c0.3,0,0.5,0.2,0.5,0.5v1
			c0,0.3-0.2,0.5-0.5,0.5C1240.9,50.4,1240.8,50.3,1240.7,50.2z"/>
		<path fill="#68878E" d="M1240.5,41.4c-0.1-0.1-0.2-0.2-0.2-0.3v-1c0-0.3,0.2-0.5,0.5-0.5c0.3,0,0.5,0.2,0.5,0.5v1
			c0,0.3-0.2,0.5-0.5,0.5C1240.7,41.5,1240.6,41.5,1240.5,41.4z"/>
	</g>
	<g>
		<path fill="#68878E" d="M1181.9,21.7c0.1,0.3,0,0.5-0.3,0.6l-2.8,1.1c-0.3,0.1-0.5,0-0.6-0.3c-0.1-0.3,0-0.5,0.3-0.6l2.8-1.1
			C1181.5,21.3,1181.8,21.5,1181.9,21.7z"/>
		<path fill="#68878E" d="M1187.5,19.6c0.1,0.3,0,0.5-0.3,0.6l-2.8,1.1c-0.3,0.1-0.5,0-0.6-0.3c-0.1-0.3,0-0.5,0.3-0.6l2.8-1.1
			C1187.1,19.2,1187.4,19.3,1187.5,19.6z"/>
		<path fill="#68878E" d="M1181.7,17l1.1,2.8c0.1,0.3,0,0.5-0.3,0.6c-0.3,0.1-0.5,0-0.6-0.3l-1.1-2.8c-0.1-0.3,0-0.5,0.3-0.6
			C1181.3,16.6,1181.6,16.7,1181.7,17z"/>
		<path fill="#68878E" d="M1183.8,22.6l1.1,2.8c0.1,0.3,0,0.5-0.3,0.6c-0.3,0.1-0.5,0-0.6-0.3l-1.1-2.8c-0.1-0.3,0-0.5,0.3-0.6
			C1183.5,22.2,1183.7,22.3,1183.8,22.6z"/>
		<path fill="#68878E" d="M1179.7,19.6c0,0.1,0,0.3,0,0.4c-0.1,0.3-0.4,0.4-0.7,0.3l-0.9-0.4c-0.3-0.1-0.4-0.4-0.3-0.7
			c0.1-0.3,0.4-0.4,0.7-0.3l0.9,0.4C1179.6,19.4,1179.7,19.5,1179.7,19.6z"/>
		<path fill="#68878E" d="M1187.8,23.2c0,0.1,0,0.3,0,0.4c-0.1,0.3-0.4,0.4-0.7,0.3l-0.9-0.4c-0.3-0.1-0.4-0.4-0.3-0.7
			c0.1-0.3,0.4-0.4,0.7-0.3l0.9,0.4C1187.6,23,1187.7,23.1,1187.8,23.2z"/>
		<path fill="#68878E" d="M1185.3,16.7c0,0.1,0,0.3,0,0.4l-0.4,0.9c-0.1,0.3-0.4,0.4-0.7,0.3c-0.3-0.1-0.4-0.4-0.3-0.7l0.4-0.9
			c0.1-0.3,0.4-0.4,0.7-0.3C1185.2,16.5,1185.3,16.6,1185.3,16.7z"/>
		<path fill="#68878E" d="M1181.7,24.8c0,0.1,0,0.3,0,0.4l-0.4,0.9c-0.1,0.3-0.4,0.4-0.7,0.3c-0.3-0.1-0.4-0.4-0.3-0.7l0.4-0.9
			c0.1-0.3,0.4-0.4,0.7-0.3C1181.6,24.5,1181.6,24.6,1181.7,24.8z"/>
	</g>
	<g>
		<path fill="#68878E" d="M1663.5-117.3c-0.2,0-0.4-0.1-0.5-0.3l-2.1-4.5c-0.1-0.3,0-0.5,0.2-0.7c0.3-0.1,0.5,0,0.7,0.2l2.2,4.6
			c0.1,0.3,0,0.5-0.2,0.7C1663.6-117.3,1663.6-117.3,1663.5-117.3z"/>
		<path fill="#68878E" d="M1667.7-108.2c-0.2,0-0.4-0.1-0.5-0.3l-2.1-4.5c-0.1-0.3,0-0.5,0.2-0.7c0.2-0.2,0.5,0,0.7,0.2l2.1,4.5
			c0.1,0.3,0,0.5-0.2,0.7C1667.8-108.2,1667.8-108.2,1667.7-108.2z"/>
		<path fill="#68878E" d="M1666.8-116.1c-0.2,0-0.4-0.1-0.5-0.3c-0.1-0.3,0-0.5,0.2-0.7l4.5-2.1c0.3-0.1,0.5,0,0.7,0.2
			c0.2,0.2,0,0.5-0.2,0.7l-4.5,2.1C1667-116.1,1666.9-116.1,1666.8-116.1z"/>
		<path fill="#68878E" d="M1657.7-111.9c-0.2,0-0.4-0.1-0.5-0.3c-0.1-0.3,0-0.5,0.2-0.7l4.5-2.1c0.3-0.1,0.5,0,0.7,0.2
			c0.1,0.3,0,0.5-0.2,0.7l-4.5,2.1C1657.9-111.9,1657.8-111.9,1657.7-111.9z"/>
		<path fill="#68878E" d="M1663-110.8c-0.1,0-0.1,0-0.2,0c-0.3-0.1-0.4-0.4-0.3-0.6l0.7-1.9c0.1-0.3,0.4-0.4,0.6-0.3
			c0.3,0.1,0.4,0.4,0.3,0.6l-0.7,1.9C1663.4-110.9,1663.2-110.8,1663-110.8z"/>
		<path fill="#68878E" d="M1665.4-117.4c-0.1,0-0.1,0-0.2,0c-0.3-0.1-0.4-0.4-0.3-0.6l0.7-1.9c0.1-0.3,0.4-0.4,0.6-0.3
			c0.3,0.1,0.4,0.4,0.3,0.6l-0.7,1.9C1665.8-117.5,1665.6-117.4,1665.4-117.4z"/>
		<path fill="#68878E" d="M1662.2-115.9c-0.1,0-0.1,0-0.2,0l-1.9-0.7c-0.3-0.1-0.4-0.4-0.3-0.6c0.1-0.3,0.4-0.4,0.6-0.3l1.9,0.7
			c0.3,0.1,0.4,0.4,0.3,0.6C1662.6-116,1662.4-115.9,1662.2-115.9z"/>
		<path fill="#68878E" d="M1668.8-113.5c-0.1,0-0.1,0-0.2,0l-1.9-0.7c-0.3-0.1-0.4-0.4-0.3-0.6c0.1-0.2,0.4-0.4,0.6-0.3l1.9,0.7
			c0.3,0.1,0.4,0.4,0.3,0.6C1669.2-113.6,1669-113.5,1668.8-113.5z"/>
	</g>
	<g>
		<path fill="#68878E" d="M1748.2-103.4c-0.3,0.1-0.5,0-0.6-0.3l-1-2.8c-0.1-0.3,0-0.5,0.3-0.6c0.3-0.1,0.5,0,0.6,0.3l1,2.8
			C1748.6-103.8,1748.4-103.5,1748.2-103.4z"/>
		<path fill="#68878E" d="M1750.2-97.8c-0.3,0.1-0.5,0-0.6-0.3l-1-2.8c-0.1-0.3,0-0.5,0.3-0.6c0.3-0.1,0.5,0,0.6,0.3l1,2.8
			C1750.6-98.2,1750.4-97.9,1750.2-97.8z"/>
		<path fill="#68878E" d="M1752.9-103.5l-2.8,1c-0.3,0.1-0.5,0-0.6-0.3c-0.1-0.3,0-0.5,0.3-0.6l2.8-1c0.3-0.1,0.5,0,0.6,0.3
			C1753.3-103.9,1753.2-103.6,1752.9-103.5z"/>
		<path fill="#68878E" d="M1747.3-101.5l-2.8,1c-0.3,0.1-0.5,0-0.6-0.3c-0.1-0.3,0-0.5,0.3-0.6l2.8-1c0.3-0.1,0.5,0,0.6,0.3
			C1747.7-101.9,1747.5-101.6,1747.3-101.5z"/>
		<path fill="#68878E" d="M1750.3-105.6c-0.1,0-0.3,0-0.4,0c-0.2-0.1-0.4-0.4-0.2-0.7l0.4-0.9c0.1-0.2,0.4-0.4,0.7-0.2
			c0.2,0.1,0.4,0.4,0.2,0.7l-0.4,0.9C1750.6-105.7,1750.5-105.6,1750.3-105.6z"/>
		<path fill="#68878E" d="M1746.6-97.6c-0.1,0-0.3,0-0.4,0c-0.2-0.1-0.4-0.4-0.2-0.7l0.4-0.9c0.1-0.2,0.4-0.4,0.7-0.2
			c0.2,0.1,0.4,0.4,0.2,0.7l-0.4,0.9C1746.8-97.7,1746.7-97.6,1746.6-97.6z"/>
		<path fill="#68878E" d="M1753.1-99.9c-0.1,0-0.3,0-0.4,0l-0.9-0.4c-0.2-0.1-0.4-0.4-0.2-0.7c0.1-0.2,0.4-0.4,0.7-0.2l0.9,0.4
			c0.2,0.1,0.4,0.4,0.2,0.7C1753.3-100.1,1753.2-100,1753.1-99.9z"/>
		<path fill="#68878E" d="M1745.1-103.7c-0.1,0-0.3,0-0.4,0l-0.9-0.4c-0.2-0.1-0.4-0.4-0.2-0.7c0.1-0.2,0.4-0.4,0.7-0.2l0.9,0.4
			c0.2,0.1,0.4,0.4,0.2,0.7C1745.4-103.8,1745.3-103.8,1745.1-103.7z"/>
	</g>
	<g>
		<path fill="#68878E" d="M1701.2-60.2c0.3,0,0.5,0.3,0.4,0.5l-0.3,3c0,0.3-0.3,0.5-0.5,0.4c-0.3,0-0.5-0.3-0.4-0.5l0.3-3
			C1700.6-60.1,1700.9-60.3,1701.2-60.2z"/>
		<path fill="#68878E" d="M1701.8-66.2c0.3,0,0.5,0.3,0.4,0.5l-0.3,3c0,0.3-0.3,0.5-0.5,0.4c-0.3,0-0.5-0.3-0.4-0.5l0.3-3
			C1701.3-66,1701.5-66.2,1701.8-66.2z"/>
		<path fill="#68878E" d="M1696.8-62.2l3,0.3c0.3,0,0.5,0.3,0.4,0.5c0,0.3-0.3,0.5-0.5,0.4l-3-0.3c-0.3,0-0.5-0.3-0.4-0.5
			C1696.3-62,1696.6-62.2,1696.8-62.2z"/>
		<path fill="#68878E" d="M1702.8-61.6l3,0.3c0.3,0,0.5,0.3,0.4,0.5s-0.3,0.5-0.5,0.4l-3-0.3c-0.3,0-0.5-0.3-0.4-0.5
			C1702.3-61.4,1702.5-61.6,1702.8-61.6z"/>
		<path fill="#68878E" d="M1698.3-59.3c0.1,0,0.2,0.1,0.3,0.2c0.2,0.2,0.1,0.5-0.1,0.7l-0.8,0.6c-0.2,0.2-0.5,0.1-0.7-0.1
			c-0.2-0.2-0.1-0.5,0.1-0.7l0.8-0.6C1698-59.2,1698.1-59.3,1698.3-59.3z"/>
		<path fill="#68878E" d="M1705.1-64.8c0.1,0,0.2,0.1,0.3,0.2c0.2,0.2,0.1,0.5-0.1,0.7l-0.8,0.6c-0.2,0.2-0.5,0.1-0.7-0.1
			c-0.2-0.2-0.1-0.5,0.1-0.7l0.8-0.6C1704.9-64.8,1705-64.8,1705.1-64.8z"/>
		<path fill="#68878E" d="M1698.2-65.5c0.1,0,0.2,0.1,0.3,0.2l0.6,0.8c0.2,0.2,0.1,0.5-0.1,0.7s-0.5,0.1-0.7-0.1l-0.6-0.8
			c-0.2-0.2-0.1-0.5,0.1-0.7C1698-65.5,1698.1-65.6,1698.2-65.5z"/>
		<path fill="#68878E" d="M1703.8-58.7c0.1,0,0.2,0.1,0.3,0.2l0.6,0.8c0.2,0.2,0.1,0.5-0.1,0.7s-0.5,0.1-0.7-0.1l-0.6-0.8
			c-0.2-0.2-0.1-0.5,0.1-0.7C1703.5-58.7,1703.7-58.7,1703.8-58.7z"/>
	</g>
	<g>
		<path fill="#68878E" d="M870.2,31.8c0.3,0,0.5,0.3,0.4,0.5l-0.3,3c0,0.3-0.3,0.5-0.5,0.4c-0.3,0-0.5-0.3-0.4-0.5l0.3-3
			C869.6,31.9,869.9,31.7,870.2,31.8z"/>
		<path fill="#68878E" d="M870.8,25.8c0.3,0,0.5,0.3,0.4,0.5l-0.3,3c0,0.3-0.3,0.5-0.5,0.4c-0.3,0-0.5-0.3-0.4-0.5l0.3-3
			C870.3,26,870.5,25.8,870.8,25.8z"/>
		<path fill="#68878E" d="M865.8,29.8l3,0.3c0.3,0,0.5,0.3,0.4,0.5c0,0.3-0.3,0.5-0.5,0.4l-3-0.3c-0.3,0-0.5-0.3-0.4-0.5
			C865.3,30,865.6,29.8,865.8,29.8z"/>
		<path fill="#68878E" d="M871.8,30.4l3,0.3c0.3,0,0.5,0.3,0.4,0.5c-0.1,0.2-0.3,0.5-0.5,0.4l-3-0.3c-0.3,0-0.5-0.3-0.4-0.5
			C871.3,30.6,871.5,30.4,871.8,30.4z"/>
		<path fill="#68878E" d="M867.3,32.7c0.1,0,0.2,0.1,0.3,0.2c0.2,0.2,0.1,0.5-0.1,0.7l-0.8,0.6c-0.2,0.2-0.5,0.1-0.7-0.1
			c-0.2-0.2-0.1-0.5,0.1-0.7l0.8-0.6C867,32.8,867.1,32.7,867.3,32.7z"/>
		<path fill="#68878E" d="M874.1,27.2c0.1,0,0.2,0.1,0.3,0.2c0.2,0.2,0.1,0.5-0.1,0.7l-0.8,0.6c-0.2,0.2-0.5,0.1-0.7-0.1
			c-0.2-0.2-0.1-0.5,0.1-0.7l0.8-0.6C873.9,27.2,874,27.2,874.1,27.2z"/>
		<path fill="#68878E" d="M867.2,26.5c0.1,0,0.2,0.1,0.3,0.2l0.6,0.8c0.2,0.2,0.1,0.5-0.1,0.7s-0.5,0.1-0.7-0.1l-0.6-0.8
			c-0.2-0.2-0.1-0.5,0.1-0.7C867,26.5,867.1,26.4,867.2,26.5z"/>
		<path fill="#68878E" d="M872.8,33.3c0.1,0,0.2,0.1,0.3,0.2l0.6,0.8c0.2,0.2,0.1,0.5-0.1,0.7c-0.2,0.2-0.5,0.1-0.7-0.1l-0.6-0.8
			c-0.2-0.2-0.1-0.5,0.1-0.7C872.5,33.3,872.7,33.3,872.8,33.3z"/>
	</g>
	<g>
		<path fill="#68878E" d="M1363.6-6.3c0.3-0.1,0.5,0,0.7,0.3l1.1,2.8c0.1,0.3,0,0.5-0.3,0.7c-0.3,0.1-0.5,0-0.7-0.3l-1.1-2.8
			C1363.3-5.9,1363.4-6.2,1363.6-6.3z"/>
		<path fill="#68878E" d="M1361.4-11.9c0.3-0.1,0.5,0,0.7,0.3l1.1,2.8c0.1,0.3,0,0.5-0.3,0.7c-0.3,0.1-0.5,0-0.7-0.3l-1.1-2.8
			C1361-11.5,1361.1-11.8,1361.4-11.9z"/>
		<path fill="#68878E" d="M1358.9-6l2.8-1.1c0.3-0.1,0.5,0,0.7,0.3c0.1,0.3,0,0.5-0.3,0.7l-2.8,1.1c-0.3,0.1-0.5,0-0.7-0.3
			C1358.5-5.6,1358.7-5.9,1358.9-6z"/>
		<path fill="#68878E" d="M1364.5-8.3l2.8-1.1c0.3-0.1,0.5,0,0.7,0.3c0.1,0.3,0,0.5-0.3,0.7l-2.8,1.1c-0.3,0.1-0.5,0-0.7-0.3
			C1364.1-7.9,1364.2-8.2,1364.5-8.3z"/>
		<path fill="#68878E" d="M1361.6-4.1c0.1,0,0.3-0.1,0.4,0c0.3,0.1,0.4,0.4,0.3,0.7l-0.4,0.9c-0.1,0.3-0.4,0.4-0.7,0.3
			c-0.3-0.1-0.4-0.4-0.3-0.7l0.4-0.9C1361.3-3.9,1361.4-4,1361.6-4.1z"/>
		<path fill="#68878E" d="M1365-12.2c0.1,0,0.3-0.1,0.4,0c0.3,0.1,0.4,0.4,0.3,0.7l-0.4,0.9c-0.1,0.3-0.4,0.4-0.7,0.3
			c-0.3-0.1-0.4-0.4-0.3-0.7l0.4-0.9C1364.7-12.1,1364.8-12.2,1365-12.2z"/>
		<path fill="#68878E" d="M1358.5-9.6c0.1,0,0.3-0.1,0.4,0l0.9,0.4c0.3,0.1,0.4,0.4,0.3,0.7c-0.1,0.3-0.4,0.4-0.7,0.3l-0.9-0.4
			c-0.3-0.1-0.4-0.4-0.3-0.7C1358.3-9.4,1358.4-9.5,1358.5-9.6z"/>
		<path fill="#68878E" d="M1366.7-6.2c0.1,0,0.3-0.1,0.4,0l0.9,0.4c0.3,0.1,0.4,0.4,0.3,0.7c-0.1,0.3-0.4,0.4-0.7,0.3l-0.9-0.4
			c-0.3-0.1-0.4-0.4-0.3-0.7C1366.5-6,1366.6-6.1,1366.7-6.2z"/>
	</g>
	<g>
		<path fill="#68878E" d="M1410.6-59.3c0.3-0.1,0.5,0,0.7,0.3l1.1,2.8c0.1,0.3,0,0.5-0.3,0.7c-0.3,0.1-0.5,0-0.7-0.3l-1.1-2.8
			C1410.3-58.9,1410.4-59.2,1410.6-59.3z"/>
		<path fill="#68878E" d="M1408.4-64.9c0.3-0.1,0.5,0,0.7,0.3l1.1,2.8c0.1,0.3,0,0.5-0.3,0.7c-0.3,0.1-0.5,0-0.7-0.3l-1.1-2.8
			C1408-64.5,1408.1-64.8,1408.4-64.9z"/>
		<path fill="#68878E" d="M1405.9-59l2.8-1.1c0.3-0.1,0.5,0,0.7,0.3c0.1,0.3,0,0.5-0.3,0.7l-2.8,1.1c-0.3,0.1-0.5,0-0.7-0.3
			C1405.5-58.6,1405.7-58.9,1405.9-59z"/>
		<path fill="#68878E" d="M1411.5-61.3l2.8-1.1c0.3-0.1,0.5,0,0.7,0.3c0.1,0.3,0,0.5-0.3,0.7l-2.8,1.1c-0.3,0.1-0.5,0-0.7-0.3
			C1411.1-60.9,1411.2-61.2,1411.5-61.3z"/>
		<path fill="#68878E" d="M1408.6-57.1c0.1,0,0.3-0.1,0.4,0c0.3,0.1,0.4,0.4,0.3,0.7l-0.4,0.9c-0.1,0.3-0.4,0.4-0.7,0.3
			c-0.3-0.1-0.4-0.4-0.3-0.7l0.4-0.9C1408.3-56.9,1408.4-57,1408.6-57.1z"/>
		<path fill="#68878E" d="M1412-65.2c0.1,0,0.3-0.1,0.4,0c0.3,0.1,0.4,0.4,0.3,0.7l-0.4,0.9c-0.1,0.3-0.4,0.4-0.7,0.3
			c-0.3-0.1-0.4-0.4-0.3-0.7l0.4-0.9C1411.7-65.1,1411.8-65.2,1412-65.2z"/>
		<path fill="#68878E" d="M1405.5-62.6c0.1,0,0.3-0.1,0.4,0l0.9,0.4c0.3,0.1,0.4,0.4,0.3,0.7c-0.1,0.3-0.4,0.4-0.7,0.3l-0.9-0.4
			c-0.3-0.1-0.4-0.4-0.3-0.7C1405.3-62.4,1405.4-62.5,1405.5-62.6z"/>
		<path fill="#68878E" d="M1413.7-59.2c0.1,0,0.3-0.1,0.4,0l0.9,0.4c0.3,0.1,0.4,0.4,0.3,0.7c-0.1,0.3-0.4,0.4-0.7,0.3l-0.9-0.4
			c-0.3-0.1-0.4-0.4-0.3-0.7C1413.5-59,1413.6-59.1,1413.7-59.2z"/>
	</g>
	<g>
		<path fill="#68878E" d="M1601.6,118.7c0.3-0.1,0.5,0,0.7,0.3l1.1,2.8c0.1,0.3,0,0.5-0.3,0.7c-0.3,0.2-0.5,0-0.7-0.3l-1.1-2.8
			C1601.3,119.1,1601.4,118.8,1601.6,118.7z"/>
		<path fill="#68878E" d="M1599.4,113.1c0.3-0.1,0.5,0,0.7,0.3l1.1,2.8c0.1,0.3,0,0.5-0.3,0.7c-0.3,0.2-0.5,0-0.7-0.3l-1.1-2.8
			C1599,113.5,1599.1,113.2,1599.4,113.1z"/>
		<path fill="#68878E" d="M1596.9,119l2.8-1.1c0.3-0.1,0.5,0,0.7,0.3c0.1,0.3,0,0.5-0.3,0.7l-2.8,1.1c-0.3,0.1-0.5,0-0.7-0.3
			C1596.5,119.4,1596.7,119.1,1596.9,119z"/>
		<path fill="#68878E" d="M1602.5,116.7l2.8-1.1c0.3-0.1,0.5,0,0.7,0.3c0.1,0.3,0,0.5-0.3,0.7l-2.8,1.1c-0.3,0.1-0.5,0-0.7-0.3
			C1602.1,117.1,1602.2,116.8,1602.5,116.7z"/>
		<path fill="#68878E" d="M1599.6,120.9c0.1,0,0.3-0.1,0.4,0c0.3,0.1,0.4,0.4,0.3,0.7l-0.4,0.9c-0.1,0.3-0.4,0.4-0.7,0.3
			c-0.3-0.1-0.4-0.4-0.3-0.7l0.4-0.9C1599.3,121.1,1599.4,121,1599.6,120.9z"/>
		<path fill="#68878E" d="M1603,112.8c0.1,0,0.3-0.1,0.4,0c0.3,0.1,0.4,0.4,0.3,0.7l-0.4,0.9c-0.1,0.3-0.4,0.4-0.7,0.3
			c-0.3-0.1-0.4-0.4-0.3-0.7l0.4-0.9C1602.7,112.9,1602.8,112.8,1603,112.8z"/>
		<path fill="#68878E" d="M1596.5,115.4c0.1,0,0.3-0.1,0.4,0l0.9,0.4c0.3,0.1,0.4,0.4,0.3,0.7c-0.1,0.3-0.4,0.4-0.7,0.3l-0.9-0.4
			c-0.3-0.1-0.4-0.4-0.3-0.7C1596.3,115.6,1596.4,115.5,1596.5,115.4z"/>
		<path fill="#68878E" d="M1604.7,118.8c0.1,0,0.3-0.1,0.4,0l0.9,0.4c0.3,0.1,0.4,0.4,0.3,0.7c-0.1,0.3-0.4,0.4-0.7,0.3l-0.9-0.4
			c-0.3-0.1-0.4-0.4-0.3-0.7C1604.5,119,1604.6,118.9,1604.7,118.8z"/>
	</g>
	<g>
		<g>
			<path fill="#68878E" d="M1865.5,23.9c-3.7,1-7.2,1.5-9.4,1.7c-0.8,0.1-1.4-0.3-1.7-1c-0.3-0.7-0.1-1.5,0.4-2
				c2.7-2.3,6.6-5.4,10.5-7.2l0.4,0.9c-3.8,1.7-7.6,4.8-10.3,7c-0.3,0.2-0.3,0.6-0.2,0.8c0.1,0.2,0.3,0.4,0.7,0.4
				c2.2-0.3,5.6-0.8,9.3-1.7c3.7-1,6.6-3.6,8.3-5.7l0.8,0.6C1872.5,20.1,1869.4,22.9,1865.5,23.9z"/>
			<path fill="#68878E" d="M1862.5,4.8c-4.2,0.3-9.2-0.5-12.7-1.2c-0.7-0.2-1.3-0.7-1.3-1.5c-0.1-0.8,0.3-1.4,1-1.7
				c2.1-0.9,5.3-2.1,9.1-3c3.9-1,8,0,10.6,1l-0.4,0.9c-2.5-1-6.3-1.9-10-0.9s-6.9,2.2-9,3c-0.3,0.1-0.4,0.5-0.4,0.7s0.2,0.5,0.5,0.6
				c3.4,0.7,8.3,1.5,12.4,1.2L1862.5,4.8z"/>
			<path fill="#68878E" d="M1892.8,17.6c-11,2.8-24.9-0.3-32.2-2.4l0.3-1c7.2,2.1,20.9,5.2,31.7,2.4c18.1-4.7,28.7-16.2,32.5-21
				c0.3-0.4,0.4-0.9,0.3-1.4s-0.5-0.9-0.9-1.1c-5.6-2.4-20.5-7.3-38.6-2.7c-10.7,2.8-21.2,12.1-26.5,17.5l-0.7-0.7
				c5.4-5.4,16-14.9,27-17.7c18.4-4.7,33.5,0.3,39.2,2.7c0.8,0.3,1.3,1,1.5,1.7c0.2,0.8,0,1.6-0.5,2.3
				C1922,1.1,1911.2,12.9,1892.8,17.6z"/>
			<path fill="#68878E" d="M1896.1,6.6c-2.5,0.6-5.1-0.9-5.7-3.4s0.9-5.1,3.4-5.7c2.5-0.6,5.1,0.9,5.7,3.4
				C1900.2,3.4,1898.6,6,1896.1,6.6z M1894.1-1.5c-2,0.5-3.2,2.5-2.6,4.5c0.5,2,2.5,3.2,4.5,2.6c2-0.5,3.2-2.5,2.6-4.5
				C1898-0.8,1896-2,1894.1-1.5z"/>
			<path fill="#68878E" d="M1893.5-3.4c3-0.8,6.2,1,6.9,4.1c0.8,3-1,6.2-4.1,6.9c-3,0.8-6.2-1-6.9-4.1S1890.5-2.6,1893.5-3.4
				 M1893.3-4.4c-3.6,0.9-5.7,4.6-4.8,8.2s4.6,5.7,8.2,4.8s5.7-4.6,4.8-8.2C1900.5-3.2,1896.9-5.3,1893.3-4.4L1893.3-4.4z"/>
			<path fill="#68878E" d="M1857.4,8.5c3.9-1,7.7-0.9,10.3-0.6c1.3,0.1,1.7,1.8,0.7,2.5c-2.1,1.5-5.3,3.4-9.3,4.4s-7.7,0.9-10.3,0.6
				c-1.3-0.1-1.7-1.8-0.7-2.5C1850.2,11.4,1853.4,9.5,1857.4,8.5 M1857.1,7.5c-4.1,1.1-7.5,3.1-9.6,4.6c-0.8,0.6-1.2,1.6-0.9,2.6
				c0.3,1,1.1,1.7,2.1,1.8c2.6,0.3,6.5,0.4,10.6-0.7s7.5-3.1,9.6-4.6c0.8-0.6,1.2-1.6,0.9-2.6c-0.3-1-1.1-1.7-2.1-1.8
				C1865.2,6.5,1861.2,6.4,1857.1,7.5L1857.1,7.5z"/>
			<path fill="#68878E" d="M1913.5,4c-0.3,0.1-0.5-0.1-0.6-0.4l-3-11.6c-0.1-0.3,0.1-0.5,0.4-0.6s0.5,0.1,0.6,0.4l3,11.6
				C1914,3.7,1913.8,4,1913.5,4z"/>
		</g>
		<path fill="#68878E" d="M1821,23.8c-1.3,0.3-2.7-0.5-3-1.8s0.5-2.7,1.8-3s2.7,0.5,3,1.8C1823.2,22.1,1822.4,23.4,1821,23.8z
			 M1820,19.9c-0.8,0.2-1.3,1-1.1,1.8c0.2,0.8,1,1.3,1.8,1.1s1.3-1,1.1-1.8C1821.7,20.2,1820.8,19.7,1820,19.9z"/>
		<path fill="#68878E" d="M1829,22.7c-1.9,0.5-3.8-0.6-4.3-2.5s0.6-3.8,2.5-4.3c1.9-0.5,3.8,0.6,4.3,2.5
			C1832,20.3,1830.9,22.3,1829,22.7z M1827.5,16.9c-1.3,0.3-2.1,1.7-1.8,3c0.3,1.3,1.7,2.1,3,1.8s2.1-1.7,1.8-3
			S1828.9,16.6,1827.5,16.9z"/>
		<path fill="#68878E" d="M1839,21.2c-2.4,0.6-4.9-0.8-5.5-3.2s0.8-4.9,3.2-5.5c2.4-0.6,4.9,0.8,5.5,3.2
			C1842.8,18.1,1841.4,20.6,1839,21.2z M1837,13.5c-1.9,0.5-3,2.4-2.5,4.3c0.5,1.9,2.4,3,4.3,2.5s3-2.4,2.5-4.3
			C1840.8,14.1,1838.8,13,1837,13.5z"/>
	</g>
</g>
<g id="Layer_1_1_">
</g>
</svg>
