<svg xmlns="http://www.w3.org/2000/svg"
  xmlns:xlink="http://www.w3.org/1999/xlink" width="1480" height="270" viewBox="0 0 1480 270">
  <symbol id="e">
    <g class="star" fill="none" stroke="#68878F" stroke-linecap="round" stroke-miterlimit="10">
      <path d="M5 5.9l3 2.4M10 9.9l3 2.3M5.9 13l2.3-3M9.8 8l2.3-3M6.3 9.4l1.3-.2M10.6 8.9l1.4-.1M9.3 11.9l-.2-1.3M8.8 7.6l-.1-1.4"/>
    </g>
  </symbol>
  <symbol id="d">
    <g class="star" fill="none" stroke="#68878E" stroke-linecap="round" stroke-miterlimit="10">
      <path d="M3.6.9L4.7 4M5.6 6.4l1.1 3.1M.8 6.8l3.1-1.1M6.4 4.7l3.1-1.1M.6 2.9l1.3.7M8.2 6.8l1.3.7M2.8 9.4l.7-1.3M6.7 1.8L7.4.5"/>
    </g>
  </symbol>
  <symbol id="a">
    <path fill="#68878F" d="M37.9 15.3c-.8-1.6-2.8-2.3-3-2.4h-.1c-.5-1-1.6-1.7-2.7-1.8-1.4-.1-2.8-.5-4.2-1.3h-.2l-2-2.6c-.1-1.5-.8-3-2.2-4.2-.7-.6-1.4-1.1-2.2-1.4l-1-1.3c-.1-.2-.4-.2-.6-.2L9.4 4.5h-.3c-.2.1-.3.3-.3.5v4.2c-.2.1-.5.2-.7.4C7.8 9.8.6 15 0 23.2c-.1.9.2 1.7.8 2.4l.3.3c.2 0 .3.1.4.1.1 1.6 1.4 3 1.7 3.3.3.3.6.4.9.4.1 0 .5-.2.7-.3.3.2.7.3 1 .2.3-.1.5-.2.7-.4.4-.4.5-1 .2-1.5 0-.1-.1-.2-.2-.3 0 0-.1-.1-.2-.1-.1-.1-.6-.7-.7-1.3.1 0 .1-.1.2-.1l.3.6c.2.5.9 1 1.6.7h.1c.3-.1.6-.3.8-.6.1-.3.2-.7.1-1-.4-1.1-1.3-2-2-2.5C7 21 8 19.3 9 17.9v1.4c0 .1 0 .2.1.3l.4.4c.6 3.1 1.6 10.2-1.7 14.8-.5.7-.7 1.6-.5 2.5 0 .1-.1.1-.1.2-.3 1.7-.4 4.1.7 5.4.5.6 1.3.9 2.2.9.4.1.7 0 1 0 .7-.2 1.3-.5 1.7-1.1 1-1.3.7-3.4.5-4.1.7-1 1.2-2.1 1.7-3.3.1-.1.1-.2.1-.3.9-2.2 1.4-4.7 1.5-7.3.2 1.7.1 3.3-.3 4.8-.1.3-.1.6-.1.9-.1.1-.1.2-.2.3-.5 2-.5 3.6.2 4.6.4.7 1.1 1.1 2 1.2.6.2 1.1.2 1.5.1.5-.1.9-.3 1.3-.7 1.1-1 1.3-2.7 1.2-3.7.2-.3.3-.6.4-.9.9-3.4.7-7.1-.4-11l2.2-1.4c.1-.1.2-.2.2-.3l1.6-5.1c1.7.7 3.5 1.2 5.3 1.3.2.3.4.5.7.7.3.2.7.2 1.1.1.3-.1.6-.3.8-.6.1-.1.1-.2.2-.3v.1c0 .6.7 1.1 1.5.9.3-.1.6-.2.8-.5.2-.3.3-.6.2-.9h.1c.1 0 .2-.1.3-.1.7-.4 1-1.2.7-1.9zM20.7 2.5c.5.2 1 .4 1.5.7-1.8.5-4.7 1.8-6.1 5.2-.3-.4-.6-.8-.8-1.2-.5-.7-1.1-2.2-.2-3.2.9-.9 1.9-1.5 2.9-1.8.9-.2 1.8-.1 2.7.3zm-6.3 5.3c1.4 2.4 4.3 4.8 6.8 5.1l-3.9 1.9-2.3-3-4.9-6.5 4.1-1.7c-.8 1-.7 2.5.2 4.2zm10 3.6c.6-.8 1-1.7 1.2-2.7l1.2 1.5-2.4 1.2zm-1.4 0c-.2.3-.5.4-.9.5-1.4.3-3.6-.9-5.3-2.6 1.2-3.9 4.7-5 6.1-5.3 2.2 2.2 2.2 5.1.1 7.4zM19.7 1.2zM1.5 21.9c.5-.4 1.4-.9 2.7-.3h.3c.2 0 .3-.1.4-.3.1-.3 0-.5-.3-.7-1.2-.5-2.2-.3-2.9 0 .6-2.5 1.9-4.6 3.1-6.3.3 0 1.7-.2 2.7 1.2.1.2.3.2.5.2.1 0 .1 0 .2-.1.2-.2.3-.5.1-.7-.8-1.2-1.8-1.6-2.7-1.6.5-.6 1-1.1 1.5-1.5h.1c.1 0 1.7-.4 2.8 1.2.1.2.3.3.5.2.1 0 .1 0 .2-.1.2-.2.3-.5.1-.7-.7-1.1-1.7-1.5-2.5-1.6.3-.2.5-.4.5-.4.1-.1.2-.1.2-.1h.2c.2 0 .4-.1.4-.3.9-.2 1.8.1 2.4 1 .7 1 .5 2.5-.6 3.2-.1 0-4.8 3.5-5.6 8.5-.5-.1-1.2.1-1.5.6-.2.4-.2.9 0 1.3h-.1c-.3 0-.5.1-.7.2-.2-.2-.5-.2-.8-.2-.3 0-.7.1-.9.4-.4-.5-.6-1.1-.6-1.7.1-.6.2-1 .3-1.4zm2.4 6.6c-.1-.1-1.4-1.4-1.4-2.7 0-.2.1-.3.3-.3.1 0 .2.1.2.1v.2c0 1.1.6 2.2 1.1 2.8-.1 0-.2 0-.2-.1zm2 0c-.1.1-.4.1-.5 0-.1 0-1.4-1.3-1.4-2.7 0-.1.1-.3.3-.3s.4.2.4.4c0 .9.7 1.9 1.3 2.2 0 .1 0 .3-.1.4zm1.4-2.2s-.2-.1-.3-.3c-.3-.9-1.1-1.7-1.7-1.9-.1-.1-.1-.3 0-.4 0-.1.1-.1.2-.2 0-.1.1-.1.2 0 0 0 1.6 1 2 2.3v.3c0 .1-.2.2-.4.2M11.9 15c1.5-1 1.9-3.1.8-4.6-.7-1-1.8-1.5-2.9-1.4V6.5l7 9.2-1 9.8-5.6-6.1c-.1-.1-.1-.2-.2-.3V17v-.2c1-1.2 1.9-1.8 1.9-1.8zM8.6 35.5c3-4.3 2.8-10.2 2.1-14.2l5 5.4c-.1 3-.5 5.6-1.4 7.9-.6.1-1.4 0-2.2-.6-.2-.2-.5-.1-.7.1s-.1.5.1.7c.9.6 1.8.7 2.4.7-.2.4-.4.7-.5 1.1-.5.2-1.6.7-2.9-.3-.2-.2-.5-.1-.7.1-.2.2-.1.5.1.7 1 .8 2 .9 2.7.8 0 .1-.1.2-.1.2-.4.5-.9.9-1.5 1-.6.1-1.2 0-1.7-.4s-.8-.9-1-1.5c-.2-.6-.1-1.2.3-1.7zm3.4 6.6c-.4.5-1 .7-1.8.8-.6 0-1.1-.2-1.5-.6-.6-.6-.7-1.8-.6-3.4l.6.6c.6.5 1.5.8 2.5.6.4-.1.9-.3 1.3-.6.1.8.1 1.9-.5 2.6zm8.4-4.1c-.4.4-1.1.5-1.9.4-.6-.1-1-.3-1.3-.8-.4-.5-.5-1.4-.3-2.5.4.6 1.1 1.1 1.9 1.3.4.3.9.3 1.4.2.3-.1.7-.2 1-.4-.1.6-.3 1.3-.8 1.8zm1.9-7.3h-.1c-.4.2-1.6.6-2.8-.4-.2-.2-.5-.1-.7.1-.2.2-.1.5.1.7 1.2.9 2.3 1 3.1.8.1 0 .2-.1.3-.1 0 .3-.1.7-.2 1-.1 0-.1 0-.1.1-.1 0-1.5.9-3-.3-.2-.2-.5-.1-.7.1-.2.2-.1.5.1.7 1.1.8 2.2.8 3.1.7.1 0 .3-.1.4-.1 0 .1-.1.2-.1.2-.2.1-.4.3-.4.5v.1c-.2.2-.3.4-.6.5-.6.3-1.2.4-1.7.2-.6-.2-1.1-.5-1.4-1.1-.3-.5-.4-1.2-.2-1.7.5-1.9.5-4.1.1-6.5l4-2.5c.7 2.4 1 4.8.8 7zm1.5-9.6l-2.4 1.5-4.6 2.9h-.1l1-9.8 9.1-4.3-1.2 3.9c-.1 0-.1.1-.2.1-.1.1 0 .3 0 .4l-1.6 5.3zm2.8-5.7L28 11c.6.3 1.3.6 2 .8-.8.5-1.3 1.3-1.5 1.8-.1.3.1.5.3.6h.3c.2 0 .3-.2.4-.3 0-.1.6-1.6 2.5-1.6.1 0 .2 0 .3-.1.7.1 1.2.4 1.6.9-.3.1-.5.4-.5.7-.2.5-.1 1.1.4 1.5.1.1.3.1.4.2-.1.2-.2.3-.3.4 0-.1-.1-.3-.2-.5-.2-.6-.9-1-1.6-.9H32c-.7.2-1.1 1-.9 1.7 0 .2.1.4.2.5-1.7-.2-3.2-.6-4.7-1.3zm6.8 2.1c-.1.2-.3.3-.5.2-.4-.3-.7-.7-1-1.6-.1-.2 0-.1.2-.1s.4-.2.4-.1c.2.7.5.8.7 1 .1.1.2.2.2.3.1.1.1.2 0 .3zm2.5.2c-.1.1-.1.1-.2.1-.2 0-.4-.1-.4-.3-.1-.5-.4-1-.6-1.3.1-.1.2-.3.3-.4l.6.6c.1.1.2.3.3.4.1.2.2.4.2.6-.1.1-.1.2-.2.3zm1-1.5h-.3v-.1c-.1-.1-.2-.2-.3-.2-.3-.5-.7-.8-1.1-1.1 0-.2-.2-.3-.4-.4h-.4-.1c-.1-.1-.1-.3-.1-.4.1-.1.2-.2.3-.2h.2c.1 0 1.8.6 2.4 1.9 0 .2 0 .4-.2.5z"/>
  </symbol>
  <symbol id="b">
    <g fill="none" stroke="#68878F" stroke-width="1.5" stroke-miterlimit="10">
      <circle cx="33" cy="48.6" r="6.6"/>
      <circle cx="16.8" cy="52.7" r="5"/>
      <circle cx="4.1" cy="56" r="3.3"/>
      <g>
        <circle cx="127.5" cy="24.2" r="10.3"/>
        <circle cx="127.5" cy="24.1" r="6.9"/>
        <path stroke-linecap="round" d="M153 7.2l5 19.3M68.4 32.9s7.7-8.4 18.4-16.2c9.6-6.9 19-11.3 27.1-13.3C121 1.7 132.1.7 141.1.8c8.3.1 17 1.4 29.1 5.1 6 1.9 8.3 2.6 8.6 5.1.2 2-1 3.3-3.2 5.7-2.1 2.2-5 6-10.1 10.3s-14.7 10.8-18.8 13.1c-3.7 2.1-17.3 8.1-25.9 9.7s-21.7 1-27.3.2-21.3-4.7-21.8-4.9"/>
        <path stroke-linecap="round" d="M85 34.9c.4 1.2.2 2.4-1.1 3.4-3 2.3-8.7 5.6-15.2 7.5-7.4 2.2-14.6 1.8-17.9 1.1-1.5-.3-2.4-1.3-2.6-2.4-.2-1.2-.1-2.6 1-3.4 3.2-2.3 8.2-5.7 15.9-7.5 5.4-1.3 11.6-1.5 16.2-1.1 2.3.3 3.1.8 3.7 2.4zM73.1 27.9c-7.5.4-15.8-1-18.6-1.6-1.5-.3-3.2-1.2-3.2-2.4 0-1.5 1.4-2 3.2-2.7 4-1.6 11.4-4.5 17.5-4.9 5.2-.4 8 .9 12.3 2.4M78.3 47.2c-6.7 3.3-13.4 8.4-15.5 10.3-1.2 1-2.3 2.6-1.7 3.6.7 1.3 2.1 1.1 4.1.8 4.3-.5 12.2-1.5 17.7-4.1 4.7-2.2 6.6-4.6 9.6-8"/>
      </g>
    </g>
  </symbol>
  <symbol id="c">
    <path fill="#68878F" d="M27 44.9c-2.9 0-5.8-.8-8.2-2.1-.2-.1-.3-.4-.2-.7.1-.3.4-.3.7-.2 2.4 1.3 5.1 2 7.9 2 3.5 0 6.9-1.1 9.7-3.3.2-.2.5-.1.7.1s.1.5-.1.7c-3.2 2.3-6.8 3.5-10.5 3.5zM41.2 37.3c-.1 0-.2 0-.3-.1-.2-.2-.3-.5-.1-.7 1.8-2.7 2.8-5.8 2.8-9.1 0-2.8-.7-5.5-2-7.9-.1-.2 0-.5.2-.7.2-.1.5 0 .7.2 1.4 2.6 2.1 5.5 2.1 8.3 0 3.4-1.1 6.8-2.9 9.7-.2.3-.3.3-.5.3z"/>
    <path fill="#68878F" d="M38.3 41.7c-1.2 0-2.3-.6-3-1.6-.1-.2-.1-.5.2-.7.2-.1.5-.1.7.2.5.8 1.2 1.2 2.1 1.2 1.3 0 2.5-1.1 2.5-2.5 0-.9-.4-1.6-1.1-2.1-.2-.2-.3-.5-.1-.7s.5-.3.7-.1c1 .7 1.5 1.7 1.5 2.9 0 1.9-1.6 3.4-3.5 3.4zM27.5 41.9c-1.1 0-1.9-.9-1.9-1.9 0-.3.2-.5.5-.5s.5.2.5.5c0 .5.4 1 1 1s1-.4 1-1-.4-1-1-1c-.3 0-.5-.2-.5-.5s.2-.5.5-.5c1.1 0 1.9.9 1.9 1.9-.1 1.1-.9 2-2 2zM34.9 21.8c-1.6 0-3.1-1.1-3.5-2.6-.1-.3.1-.5.3-.6.3-.1.5.1.6.3.4 1.1 1.4 1.9 2.6 1.9 1.5 0 2.8-1.2 2.8-2.8 0-1.1-.8-2.2-1.9-2.6-.3-.1-.4-.4-.3-.6.1-.3.4-.4.6-.3 1.5.5 2.6 1.9 2.6 3.5-.1 2.2-1.7 3.8-3.8 3.8zM26.1 33.4c-1.9 0-3.6-1.1-4.5-2.8-.1-.2 0-.5.2-.7.2-.1.5 0 .7.2.7 1.3 2.1 2.3 3.6 2.3 2.2 0 4-1.8 4-4 0-1.6-1-3.1-2.5-3.6-.3-.1-.4-.4-.3-.7.1-.3.4-.4.7-.3 1.8.8 3.1 2.6 3.1 4.6-.2 2.8-2.4 5-5 5zM12.8 24.8c-1.1 0-2-.9-2-2 0-.3.2-.5.5-.5s.5.2.5.5c0 .6.5 1.1 1.1 1.1.6 0 1.1-.5 1.1-1.1 0-.6-.5-1.1-1.1-1.1-.3 0-.5-.2-.5-.5s.2-.5.5-.5c1.1 0 2 .9 2 2s-1 2.1-2.1 2.1z"/>
    <circle fill="none" stroke="#68878F" stroke-miterlimit="10" cx="27.1" cy="27.5" r="21.7"/>
    <circle fill="none" stroke="#68878F" stroke-miterlimit="10" cx="27.5" cy="27.5" r="26.5" stroke-dasharray="60" stroke-dashoffset="60" class="rotate"/>
  </symbol>
  <use xlink:href="#a" x="50" y="150" transform="scale(1.25)"/>
  <use xlink:href="#b" x="200" y="60" transform="scale(.75)"/>
  <use xlink:href="#c" x="900" y="10" transform="scale(1.5)"/>
  <use xlink:href="#d" x="120" y="100" transform="scale(2)"/>
  <use xlink:href="#d" x="80" y="60" transform="scale(1.25)"/>
  <use xlink:href="#d" x="330" y="100" transform="scale(1.15)"/>
  <use xlink:href="#d" x="370" y="130" transform="scale(1.15)"/>
  <use xlink:href="#d" x="520" y="90" transform="scale(1.1)"/>
  <use xlink:href="#d" x="563" y="47" transform="scale(1.1)"/>
  <use xlink:href="#e" x="15" y="10" transform="scale(.9)"/>
  <use xlink:href="#e" x="20" y="85" transform="scale(1.25)"/>
  <use xlink:href="#e" x="100" y="220"/>
  <use xlink:href="#e" x="100" y="200" transform="scale(1.25)"/>
  <use xlink:href="#e" x="170" y="170"/>
  <use xlink:href="#e" x="280" y="300" transform="scale(.75)"/>
  <use xlink:href="#e" x="130" y="45"/>
  <use xlink:href="#e" x="260" y="20" transform="scale(1.15)"/>
  <use xlink:href="#e" x="300" y="30" transform="scale(1.5)"/>
  <use xlink:href="#d" x="630" y="10" transform="scale(2)"/>
  <use xlink:href="#d" x="630" y="60" transform="scale(1.5)"/>
  <use xlink:href="#d" x="730" y="80" transform="scale(1.75)"/>
  <use xlink:href="#d" x="2650" y="160" transform="scale(.5)"/>
  <use xlink:href="#e" x="890" y="25" transform="scale(1.25)"/>
  <use xlink:href="#e" x="1600" y="100" transform="scale(.75)"/>
  <use xlink:href="#e" x="1130" y="125"/>
  <use xlink:href="#e" x="960" y="40" transform="scale(1.5)"/>
  <use xlink:href="#e" x="1230" y="100" transform="scale(1.15)"/>
  <use xlink:href="#e" x="1800" y="240" transform="scale(.75)"/>
  <use xlink:href="#e" x="1650" y="240" transform="scale(.85)"/>
  <use xlink:href="#e" x="1600" y="270" transform="scale(.85)"/>
</svg>
