<svg xmlns="http://www.w3.org/2000/svg" viewBox="177 -176 385 385"><path fill="#CEF0EE" d="M262.2 176.1C210.8 141.5 177 82.8 177 16.4c0-106.2 86.4-192.6 192.6-192.6S562.2-89.8 562.2 16.4c0 66-33.4 124.3-84.1 159-30.9 21.2-185.2 21.5-215.9.7z"/><path fill="#FFF" d="M369.6 209c40 0 77.2-12.3 108-33.2-.3-9.5-1.1-32.6-2.1-40.6-1.3-10.1-7.5-17-15-21 0 0-46.8-14.8-70.2-18.5V58.4h-1.7c24.2-9 42.7-35.9 48-69.6 2.2-.9 5.6-4.5 6.8-17.6 2-20.8-5.2-21-6.2-20.3-6-42.8-33.1-75-66.4-75-33.3 0-61.2 32.3-67.3 75-1.2 0-5.2.1-5.8 4.8-.7 5.1-3.4 32.9 6.1 33.4 5.5 33.6 24.5 60.3 48.8 69.3h-2.4v38.7l-12 1.3-35.5 8.8-27.5 8.8-5 8.2-5.8 18s-2.6 20.9-3.5 33.2c31 21.1 68.4 33.6 108.7 33.6z"/><ellipse fill="none" stroke="#043743" stroke-width="3" stroke-linecap="round" stroke-miterlimit="10" cx="369.9" cy="-36.3" rx="67.3" ry="98.7"/><path fill="none" stroke="#043743" stroke-width="3" stroke-linecap="round" stroke-linejoin="round" stroke-miterlimit="10" d="M391.1-25.4h27.5c4 0 7.3-3 7.6-7l1.4-16h-38.2c-3.6 0-6.5 3.1-6.2 6.7l.9 9.8c.3 3.7 3.3 6.5 7 6.5z"/><circle fill="#043743" cx="403.2" cy="-37.9" r="6.7"/><path fill="none" stroke="#043743" stroke-width="3" stroke-linecap="round" stroke-miterlimit="10" d="M361.7-30.6v29s0 7.5 7.5 7.5"/><path fill="none" stroke="#043743" stroke-width="3" stroke-linecap="round" stroke-linejoin="round" stroke-miterlimit="10" d="M349.7-25.6h-27.5c-4 0-7.3-3-7.6-7l-1.4-16h38.2c3.6 0 6.5 3.1 6.2 6.7l-.9 9.8c-.3 3.7-3.3 6.5-7 6.5zM313.2-47.1h-9M428.2-47.1h8M383.2-41.9s-13.3-2.1-25.6 0M389.7 59.4v37s-3.6 11.5-18.9 17.5h-1.2c-15.3-6-18.9-17.5-18.9-17.5v-37"/><path fill="none" stroke="#043743" stroke-width="3" stroke-linecap="round" stroke-miterlimit="10" d="M347 23.3c10.2 1.6 27.1 3.1 45.2.4M317.5-53.8s19-4 33.7 0M422.2-53.8s-19-4-33.7 0"/><path fill="none" stroke="#043743" stroke-width="3" stroke-linecap="round" stroke-linejoin="round" stroke-miterlimit="10" d="M350.7 96.4s-70.3 11.1-81.2 26c-4.9 6.7-6.8 31.3-7.4 54M390 96.4s70.3 11.1 81.2 26c4.8 6.6 6.7 30.6 7.3 53M305.7 198.4v-24M432.7 198.4v-24"/><circle fill="#043743" cx="337.2" cy="-37.9" r="6.7"/><g fill="none" stroke="#FFF" stroke-width="2" stroke-linecap="round" stroke-linejoin="round" stroke-miterlimit="10"><path d="M525.1-12.6l.7 10M526.6 7.4l.7 10M541.2 2.3l-9.9.7M521.3 3.8l-10 .7M525.3-9.6l.5 7M526.6 7.4l.5 7M534.5-6.7L530-1.4M523.4 6.2l-4.5 5.3M535.8 10.2l-5.3-4.6M522.9-.9l-5.3-4.6"/></g><g fill="none" stroke="#FFF" stroke-width="2" stroke-linecap="round" stroke-linejoin="round" stroke-miterlimit="10"><path d="M449.1 21.7l-1.9 9.8M445.2 41.3l-1.9 9.8M460.7 40.3l-9.8-2M441.1 36.4l-9.8-2M448.5 24.6l-1.3 6.9M445.2 41.3l-1.3 6.8M456.7 29.8l-5.8 3.9M442.5 39.3l-5.8 3.8M453.4 46.5l-3.9-5.9M443.9 32.3l-3.9-5.8"/></g><g fill="none" stroke="#FFF" stroke-width="2" stroke-linecap="round" stroke-linejoin="round" stroke-miterlimit="10"><path d="M272.1-129.6l.7 10M273.6-109.6l.7 10M288.2-114.7l-9.9.7M268.3-113.2l-10 .7M272.3-126.6l.5 7M273.6-109.6l.5 7M281.5-123.7l-4.5 5.3M270.4-110.8l-4.5 5.3M282.8-106.8l-5.3-4.6M269.9-117.9l-5.3-4.6"/></g><g fill="none" stroke="#FFF" stroke-width="2" stroke-linecap="round" stroke-linejoin="round" stroke-miterlimit="10"><path d="M212.1-32.6l.7 10M213.6-12.6l.7 10M228.2-17.7l-9.9.7M208.3-16.2l-10 .7M212.3-29.6l.5 7M213.6-12.6l.5 7M221.5-26.7l-4.5 5.3M210.4-13.8l-4.5 5.3M222.8-9.8l-5.3-4.6M209.9-20.9l-5.3-4.6"/></g><g fill="none" stroke="#FFF" stroke-width="2" stroke-linecap="round" stroke-linejoin="round" stroke-miterlimit="10"><path d="M475.4-114.2l-3.4 5.7M468.5-102.8l-3.5 5.7M478.5-99.9l-5.8-3.4M467-106.8l-5.7-3.5M474.4-112.5l-2.4 4M468.5-102.8l-2.4 4M478.3-107.4l-4.5 1.2M467.3-104.7l-4.6 1.1M472.4-97.7l-1.1-4.5M469.7-108.7l-1.1-4.5"/></g><g fill="none" stroke="#FFF" stroke-width="2" stroke-linecap="round" stroke-linejoin="round" stroke-miterlimit="10"><path d="M233.4 77.8l-3.4 5.7M226.5 89.2l-3.5 5.7M236.5 92.1l-5.8-3.4M225 85.2l-5.7-3.5M232.4 79.5l-2.4 4M226.5 89.2l-2.4 4M236.3 84.6l-4.5 1.2M225.3 87.3l-4.6 1.1M230.4 94.3l-1.1-4.5M227.7 83.3l-1.1-4.5"/></g><path fill="none" stroke="#043743" stroke-width="3" stroke-linecap="round" stroke-linejoin="round" stroke-miterlimit="10" d="M417.2 160.6c1.8 4.1 3.2 8.6 3.7 13.2"/><path fill="#043743" d="M409.9 150.4l-1.1-1.5c-.4-.5-.7-1-1.1-1.5l-1.1-1.5c-.4-.5-.8-1-1.1-1.4-.4-.5-.8-1-1.2-1.4-.4-.5-.8-.9-1.2-1.4s-.8-.9-1.2-1.4c-.4-.4-.8-.9-1.2-1.3l1.1.4h-.1l1.1-.4c-.5.6-1.1 1.2-1.7 1.8-.6.6-1.1 1.3-1.6 1.9-1.1 1.3-2.1 2.6-3.1 4-2 2.7-3.8 5.6-5.4 8.5-1.6 2.9-3 6-4.1 9.1-.3.8-.5 1.6-.8 2.4l-.6 2.4c-.2.8-.4 1.6-.5 2.4-.2.8-.2 1.6-.3 2.4l-3.9-1.3c.6-1 1.1-1.7 1.7-2.4.6-.8 1.2-1.5 1.8-2.2 1.3-1.4 2.6-2.7 4.1-3.9.7-.6 1.5-1.2 2.2-1.7.8-.6 1.5-1.1 2.3-1.6s1.6-1 2.4-1.4c.8-.4 1.6-.9 2.5-1.3.8-.4 1.7-.8 2.6-1.1.9-.3 1.7-.7 2.6-.9.9-.3 1.8-.5 2.7-.8.9-.2 1.8-.5 2.7-.6 1.8-.4 3.7-.6 5.5-.8.9-.1 1.8-.1 2.8-.2h2.8c.8 0 1.5.7 1.5 1.5s-.6 1.5-1.4 1.5h-.1c-.9 0-1.7.1-2.6.1-.9.1-1.7.1-2.6.2-1.7.2-3.4.5-5.1.9-.8.2-1.7.4-2.5.6-.8.3-1.7.5-2.5.8l-2.4.9c-.8.4-1.6.7-2.3 1.1-.8.4-1.5.8-2.3 1.2-.7.4-1.5.9-2.2 1.4l-2.1 1.5s-1.3 1.1-2 1.6c-1.3 1.1-2.5 2.3-3.6 3.6-.5.6-1.1 1.3-1.6 2s-1 1.4-1.3 2l-.1.1c-.6 1-1.8 1.4-2.8.8-.8-.4-1.2-1.3-1-2.1.1-.9.2-1.8.4-2.7s.4-1.8.6-2.6c.2-.9.5-1.7.8-2.6s.6-1.7.9-2.5c1.3-3.3 2.9-6.5 4.6-9.5 1.8-3 3.8-5.9 5.9-8.7 1.1-1.4 2.2-2.7 3.3-4.1.6-.7 1.2-1.3 1.8-2 .6-.6 1.2-1.3 1.8-1.9.3-.3.7-.4 1-.4h.1c.4 0 .8.2 1 .4.5.5.9.9 1.3 1.4.4.5.8.9 1.3 1.4l1.2 1.5 1.2 1.5 1.2 1.5 1.1 1.5c.4.5.7 1 1.1 1.5l1.1 1.5c.5.7.3 1.6-.4 2.1s-1.5.4-1.9-.3z"/><path fill="#043743" d="M345-106.8S331.6-54.4 304.2-54c0 0-8.5 61.8 26 98.3 0 0 2.9 78-34.6 123.1-2.2 2.6-6.4 1-6.4-2.3V-16.6s1.9-95.6 35.4-105.8c0 0 9.1-.7 10.9 2.2 0 0-2.3-6.4 5.4-12.8 3.7-3.1 21-10.2 39.1-7.1 18.2 3.2 64.7 22.1 64.7 76.1 0 0 1.5 21.4 1.5 39.9v186.8c0 2.6-3.5 3.4-4.6 1-10-21.3-32.9-74.7-32.9-118.5 0 0 37.4-36.2 26.8-104.8-.1.2-44.1 6.7-90.5-47.2z"/></svg>
