<svg version="1.1" id="Layer_1" xmlns="http://www.w3.org/2000/svg" xmlns:xlink="http://www.w3.org/1999/xlink" x="0px" y="0px"
	 width="385px" height="385px" viewBox="177 -176 385 385" enable-background="new 177 -176.2 385.2 385.2"
	 xml:space="preserve">
<g id="Layer_3">
</g>
<g id="Layer_1_1_">
	<g>
		<path fill="#CEF0EE" d="M262.2,176.1C210.8,141.5,177,82.8,177,16.4c0-106.2,86.4-192.6,192.6-192.6S562.2-89.8,562.2,16.4
			c0,66-33.4,124.3-84.1,159C447.2,196.6,292.9,196.9,262.2,176.1z"/>
		<path fill="#FFFFFF" d="M369.6,209c40,0,77.2-12.3,108-33.2c-0.3-9.5-1.1-32.6-2.1-40.6c-1.3-10.1-7.5-17-15-21
			c0,0-46.8-14.8-70.2-18.5V58.4h-1.7c24.2-9,42.7-35.9,48-69.6c2.2-0.9,5.6-4.5,6.8-17.6c2-20.8-5.2-21-6.2-20.3l0,0
			c-6-42.8-33.1-75-66.4-75c-33.3,0-61.2,32.3-67.3,75c-1.2,0-5.2,0.1-5.8,4.8c-0.7,5.1-3.4,32.9,6.1,33.4
			c5.5,33.6,24.5,60.3,48.8,69.3h-2.4v38.7l-12,1.3l-35.5,8.8l-27.5,8.8l-5,8.2l-5.8,18c0,0-2.6,20.9-3.5,33.2
			C291.9,196.5,329.3,209,369.6,209z"/>
		
			<ellipse fill="none" stroke="#043743" stroke-width="3" stroke-linecap="round" stroke-miterlimit="10" cx="369.9" cy="-36.3" rx="67.3" ry="98.7"/>
		<path fill="none" stroke="#043743" stroke-width="3" stroke-linecap="round" stroke-linejoin="round" stroke-miterlimit="10" d="
			M391.1-25.4h27.5c4,0,7.3-3,7.6-7l1.4-16h-38.2c-3.6,0-6.5,3.1-6.2,6.7l0.9,9.8C384.4-28.2,387.4-25.4,391.1-25.4z"/>
		<circle fill="#043743" cx="403.2" cy="-37.9" r="6.7"/>
		<path fill="none" stroke="#043743" stroke-width="3" stroke-linecap="round" stroke-miterlimit="10" d="M361.7-30.6v29
			c0,0,0,7.5,7.5,7.5"/>
		<path fill="none" stroke="#043743" stroke-width="3" stroke-linecap="round" stroke-linejoin="round" stroke-miterlimit="10" d="
			M349.7-25.6h-27.5c-4,0-7.3-3-7.6-7l-1.4-16h38.2c3.6,0,6.5,3.1,6.2,6.7l-0.9,9.8C356.4-28.4,353.4-25.6,349.7-25.6z"/>
		
			<line fill="none" stroke="#043743" stroke-width="3" stroke-linecap="round" stroke-linejoin="round" stroke-miterlimit="10" x1="313.2" y1="-47.1" x2="304.2" y2="-47.1"/>
		
			<line fill="none" stroke="#043743" stroke-width="3" stroke-linecap="round" stroke-linejoin="round" stroke-miterlimit="10" x1="428.2" y1="-47.1" x2="436.2" y2="-47.1"/>
		<path fill="none" stroke="#043743" stroke-width="3" stroke-linecap="round" stroke-linejoin="round" stroke-miterlimit="10" d="
			M383.2-41.9c0,0-13.3-2.1-25.6,0"/>
		<path fill="none" stroke="#043743" stroke-width="3" stroke-linecap="round" stroke-linejoin="round" stroke-miterlimit="10" d="
			M389.7,59.4v37c0,0-3.6,11.5-18.9,17.5h-1.2c-15.3-6-18.9-17.5-18.9-17.5v-37"/>
		<path fill="none" stroke="#043743" stroke-width="3" stroke-linecap="round" stroke-miterlimit="10" d="M347,23.3
			c10.2,1.6,27.1,3.1,45.2,0.4"/>
		<path fill="none" stroke="#043743" stroke-width="3" stroke-linecap="round" stroke-miterlimit="10" d="M317.5-53.8
			c0,0,19-4,33.7,0"/>
		<path fill="none" stroke="#043743" stroke-width="3" stroke-linecap="round" stroke-miterlimit="10" d="M422.2-53.8
			c0,0-19-4-33.7,0"/>
		<path fill="none" stroke="#043743" stroke-width="3" stroke-linecap="round" stroke-linejoin="round" stroke-miterlimit="10" d="
			M350.7,96.4c0,0-70.3,11.1-81.2,26c-4.9,6.7-6.8,31.3-7.4,54"/>
		<path fill="none" stroke="#043743" stroke-width="3" stroke-linecap="round" stroke-linejoin="round" stroke-miterlimit="10" d="
			M390,96.4c0,0,70.3,11.1,81.2,26c4.8,6.6,6.7,30.6,7.3,53"/>
		
			<line fill="none" stroke="#043743" stroke-width="3" stroke-linecap="round" stroke-linejoin="round" stroke-miterlimit="10" x1="305.7" y1="198.4" x2="305.7" y2="174.4"/>
		
			<line fill="none" stroke="#043743" stroke-width="3" stroke-linecap="round" stroke-linejoin="round" stroke-miterlimit="10" x1="432.7" y1="198.4" x2="432.7" y2="174.4"/>
		<path fill="none" stroke="#043743" stroke-width="3" stroke-linecap="round" stroke-linejoin="round" stroke-miterlimit="10" d="
			M337.2-43.4"/>
		<circle fill="#043743" cx="337.2" cy="-37.9" r="6.7"/>
		<path fill="#043743" d="M337.2-43.4"/>
		<g>
			
				<line fill="none" stroke="#FFFFFF" stroke-width="2" stroke-linecap="round" stroke-linejoin="round" stroke-miterlimit="10" x1="525.1" y1="-12.6" x2="525.8" y2="-2.6"/>
			
				<line fill="none" stroke="#FFFFFF" stroke-width="2" stroke-linecap="round" stroke-linejoin="round" stroke-miterlimit="10" x1="526.6" y1="7.4" x2="527.3" y2="17.4"/>
			
				<line fill="none" stroke="#FFFFFF" stroke-width="2" stroke-linecap="round" stroke-linejoin="round" stroke-miterlimit="10" x1="541.2" y1="2.3" x2="531.3" y2="3"/>
			
				<line fill="none" stroke="#FFFFFF" stroke-width="2" stroke-linecap="round" stroke-linejoin="round" stroke-miterlimit="10" x1="521.3" y1="3.8" x2="511.3" y2="4.5"/>
			
				<line fill="none" stroke="#FFFFFF" stroke-width="2" stroke-linecap="round" stroke-linejoin="round" stroke-miterlimit="10" x1="525.3" y1="-9.6" x2="525.8" y2="-2.6"/>
			
				<line fill="none" stroke="#FFFFFF" stroke-width="2" stroke-linecap="round" stroke-linejoin="round" stroke-miterlimit="10" x1="526.6" y1="7.4" x2="527.1" y2="14.4"/>
			
				<line fill="none" stroke="#FFFFFF" stroke-width="2" stroke-linecap="round" stroke-linejoin="round" stroke-miterlimit="10" x1="534.5" y1="-6.7" x2="530" y2="-1.4"/>
			
				<line fill="none" stroke="#FFFFFF" stroke-width="2" stroke-linecap="round" stroke-linejoin="round" stroke-miterlimit="10" x1="523.4" y1="6.2" x2="518.9" y2="11.5"/>
			
				<line fill="none" stroke="#FFFFFF" stroke-width="2" stroke-linecap="round" stroke-linejoin="round" stroke-miterlimit="10" x1="535.8" y1="10.2" x2="530.5" y2="5.6"/>
			
				<line fill="none" stroke="#FFFFFF" stroke-width="2" stroke-linecap="round" stroke-linejoin="round" stroke-miterlimit="10" x1="522.9" y1="-0.9" x2="517.6" y2="-5.5"/>
		</g>
		<g>
			
				<line fill="none" stroke="#FFFFFF" stroke-width="2" stroke-linecap="round" stroke-linejoin="round" stroke-miterlimit="10" x1="449.1" y1="21.7" x2="447.2" y2="31.5"/>
			
				<line fill="none" stroke="#FFFFFF" stroke-width="2" stroke-linecap="round" stroke-linejoin="round" stroke-miterlimit="10" x1="445.2" y1="41.3" x2="443.3" y2="51.1"/>
			
				<line fill="none" stroke="#FFFFFF" stroke-width="2" stroke-linecap="round" stroke-linejoin="round" stroke-miterlimit="10" x1="460.7" y1="40.3" x2="450.9" y2="38.3"/>
			
				<line fill="none" stroke="#FFFFFF" stroke-width="2" stroke-linecap="round" stroke-linejoin="round" stroke-miterlimit="10" x1="441.1" y1="36.4" x2="431.3" y2="34.4"/>
			
				<line fill="none" stroke="#FFFFFF" stroke-width="2" stroke-linecap="round" stroke-linejoin="round" stroke-miterlimit="10" x1="448.5" y1="24.6" x2="447.2" y2="31.5"/>
			
				<line fill="none" stroke="#FFFFFF" stroke-width="2" stroke-linecap="round" stroke-linejoin="round" stroke-miterlimit="10" x1="445.2" y1="41.3" x2="443.9" y2="48.1"/>
			
				<line fill="none" stroke="#FFFFFF" stroke-width="2" stroke-linecap="round" stroke-linejoin="round" stroke-miterlimit="10" x1="456.7" y1="29.8" x2="450.9" y2="33.7"/>
			
				<line fill="none" stroke="#FFFFFF" stroke-width="2" stroke-linecap="round" stroke-linejoin="round" stroke-miterlimit="10" x1="442.5" y1="39.3" x2="436.7" y2="43.1"/>
			
				<line fill="none" stroke="#FFFFFF" stroke-width="2" stroke-linecap="round" stroke-linejoin="round" stroke-miterlimit="10" x1="453.4" y1="46.5" x2="449.5" y2="40.6"/>
			
				<line fill="none" stroke="#FFFFFF" stroke-width="2" stroke-linecap="round" stroke-linejoin="round" stroke-miterlimit="10" x1="443.9" y1="32.3" x2="440" y2="26.5"/>
		</g>
		<g>
			
				<line fill="none" stroke="#FFFFFF" stroke-width="2" stroke-linecap="round" stroke-linejoin="round" stroke-miterlimit="10" x1="272.1" y1="-129.6" x2="272.8" y2="-119.6"/>
			
				<line fill="none" stroke="#FFFFFF" stroke-width="2" stroke-linecap="round" stroke-linejoin="round" stroke-miterlimit="10" x1="273.6" y1="-109.6" x2="274.3" y2="-99.6"/>
			
				<line fill="none" stroke="#FFFFFF" stroke-width="2" stroke-linecap="round" stroke-linejoin="round" stroke-miterlimit="10" x1="288.2" y1="-114.7" x2="278.3" y2="-114"/>
			
				<line fill="none" stroke="#FFFFFF" stroke-width="2" stroke-linecap="round" stroke-linejoin="round" stroke-miterlimit="10" x1="268.3" y1="-113.2" x2="258.3" y2="-112.5"/>
			
				<line fill="none" stroke="#FFFFFF" stroke-width="2" stroke-linecap="round" stroke-linejoin="round" stroke-miterlimit="10" x1="272.3" y1="-126.6" x2="272.8" y2="-119.6"/>
			
				<line fill="none" stroke="#FFFFFF" stroke-width="2" stroke-linecap="round" stroke-linejoin="round" stroke-miterlimit="10" x1="273.6" y1="-109.6" x2="274.1" y2="-102.6"/>
			
				<line fill="none" stroke="#FFFFFF" stroke-width="2" stroke-linecap="round" stroke-linejoin="round" stroke-miterlimit="10" x1="281.5" y1="-123.7" x2="277" y2="-118.4"/>
			
				<line fill="none" stroke="#FFFFFF" stroke-width="2" stroke-linecap="round" stroke-linejoin="round" stroke-miterlimit="10" x1="270.4" y1="-110.8" x2="265.9" y2="-105.5"/>
			
				<line fill="none" stroke="#FFFFFF" stroke-width="2" stroke-linecap="round" stroke-linejoin="round" stroke-miterlimit="10" x1="282.8" y1="-106.8" x2="277.5" y2="-111.4"/>
			
				<line fill="none" stroke="#FFFFFF" stroke-width="2" stroke-linecap="round" stroke-linejoin="round" stroke-miterlimit="10" x1="269.9" y1="-117.9" x2="264.6" y2="-122.5"/>
		</g>
		<g>
			
				<line fill="none" stroke="#FFFFFF" stroke-width="2" stroke-linecap="round" stroke-linejoin="round" stroke-miterlimit="10" x1="212.1" y1="-32.6" x2="212.8" y2="-22.6"/>
			
				<line fill="none" stroke="#FFFFFF" stroke-width="2" stroke-linecap="round" stroke-linejoin="round" stroke-miterlimit="10" x1="213.6" y1="-12.6" x2="214.3" y2="-2.6"/>
			
				<line fill="none" stroke="#FFFFFF" stroke-width="2" stroke-linecap="round" stroke-linejoin="round" stroke-miterlimit="10" x1="228.2" y1="-17.7" x2="218.3" y2="-17"/>
			
				<line fill="none" stroke="#FFFFFF" stroke-width="2" stroke-linecap="round" stroke-linejoin="round" stroke-miterlimit="10" x1="208.3" y1="-16.2" x2="198.3" y2="-15.5"/>
			
				<line fill="none" stroke="#FFFFFF" stroke-width="2" stroke-linecap="round" stroke-linejoin="round" stroke-miterlimit="10" x1="212.3" y1="-29.6" x2="212.8" y2="-22.6"/>
			
				<line fill="none" stroke="#FFFFFF" stroke-width="2" stroke-linecap="round" stroke-linejoin="round" stroke-miterlimit="10" x1="213.6" y1="-12.6" x2="214.1" y2="-5.6"/>
			
				<line fill="none" stroke="#FFFFFF" stroke-width="2" stroke-linecap="round" stroke-linejoin="round" stroke-miterlimit="10" x1="221.5" y1="-26.7" x2="217" y2="-21.4"/>
			
				<line fill="none" stroke="#FFFFFF" stroke-width="2" stroke-linecap="round" stroke-linejoin="round" stroke-miterlimit="10" x1="210.4" y1="-13.8" x2="205.9" y2="-8.5"/>
			
				<line fill="none" stroke="#FFFFFF" stroke-width="2" stroke-linecap="round" stroke-linejoin="round" stroke-miterlimit="10" x1="222.8" y1="-9.8" x2="217.5" y2="-14.4"/>
			
				<line fill="none" stroke="#FFFFFF" stroke-width="2" stroke-linecap="round" stroke-linejoin="round" stroke-miterlimit="10" x1="209.9" y1="-20.9" x2="204.6" y2="-25.5"/>
		</g>
		<g>
			
				<line fill="none" stroke="#FFFFFF" stroke-width="2" stroke-linecap="round" stroke-linejoin="round" stroke-miterlimit="10" x1="475.4" y1="-114.2" x2="472" y2="-108.5"/>
			
				<line fill="none" stroke="#FFFFFF" stroke-width="2" stroke-linecap="round" stroke-linejoin="round" stroke-miterlimit="10" x1="468.5" y1="-102.8" x2="465" y2="-97.1"/>
			
				<line fill="none" stroke="#FFFFFF" stroke-width="2" stroke-linecap="round" stroke-linejoin="round" stroke-miterlimit="10" x1="478.5" y1="-99.9" x2="472.7" y2="-103.3"/>
			
				<line fill="none" stroke="#FFFFFF" stroke-width="2" stroke-linecap="round" stroke-linejoin="round" stroke-miterlimit="10" x1="467" y1="-106.8" x2="461.3" y2="-110.3"/>
			
				<line fill="none" stroke="#FFFFFF" stroke-width="2" stroke-linecap="round" stroke-linejoin="round" stroke-miterlimit="10" x1="474.4" y1="-112.5" x2="472" y2="-108.5"/>
			
				<line fill="none" stroke="#FFFFFF" stroke-width="2" stroke-linecap="round" stroke-linejoin="round" stroke-miterlimit="10" x1="468.5" y1="-102.8" x2="466.1" y2="-98.8"/>
			
				<line fill="none" stroke="#FFFFFF" stroke-width="2" stroke-linecap="round" stroke-linejoin="round" stroke-miterlimit="10" x1="478.3" y1="-107.4" x2="473.8" y2="-106.2"/>
			
				<line fill="none" stroke="#FFFFFF" stroke-width="2" stroke-linecap="round" stroke-linejoin="round" stroke-miterlimit="10" x1="467.3" y1="-104.7" x2="462.7" y2="-103.6"/>
			
				<line fill="none" stroke="#FFFFFF" stroke-width="2" stroke-linecap="round" stroke-linejoin="round" stroke-miterlimit="10" x1="472.4" y1="-97.7" x2="471.3" y2="-102.2"/>
			
				<line fill="none" stroke="#FFFFFF" stroke-width="2" stroke-linecap="round" stroke-linejoin="round" stroke-miterlimit="10" x1="469.7" y1="-108.7" x2="468.6" y2="-113.2"/>
		</g>
		<g>
			
				<line fill="none" stroke="#FFFFFF" stroke-width="2" stroke-linecap="round" stroke-linejoin="round" stroke-miterlimit="10" x1="233.4" y1="77.8" x2="230" y2="83.5"/>
			
				<line fill="none" stroke="#FFFFFF" stroke-width="2" stroke-linecap="round" stroke-linejoin="round" stroke-miterlimit="10" x1="226.5" y1="89.2" x2="223" y2="94.9"/>
			
				<line fill="none" stroke="#FFFFFF" stroke-width="2" stroke-linecap="round" stroke-linejoin="round" stroke-miterlimit="10" x1="236.5" y1="92.1" x2="230.7" y2="88.7"/>
			
				<line fill="none" stroke="#FFFFFF" stroke-width="2" stroke-linecap="round" stroke-linejoin="round" stroke-miterlimit="10" x1="225" y1="85.2" x2="219.3" y2="81.7"/>
			
				<line fill="none" stroke="#FFFFFF" stroke-width="2" stroke-linecap="round" stroke-linejoin="round" stroke-miterlimit="10" x1="232.4" y1="79.5" x2="230" y2="83.5"/>
			
				<line fill="none" stroke="#FFFFFF" stroke-width="2" stroke-linecap="round" stroke-linejoin="round" stroke-miterlimit="10" x1="226.5" y1="89.2" x2="224.1" y2="93.2"/>
			
				<line fill="none" stroke="#FFFFFF" stroke-width="2" stroke-linecap="round" stroke-linejoin="round" stroke-miterlimit="10" x1="236.3" y1="84.6" x2="231.8" y2="85.8"/>
			
				<line fill="none" stroke="#FFFFFF" stroke-width="2" stroke-linecap="round" stroke-linejoin="round" stroke-miterlimit="10" x1="225.3" y1="87.3" x2="220.7" y2="88.4"/>
			
				<line fill="none" stroke="#FFFFFF" stroke-width="2" stroke-linecap="round" stroke-linejoin="round" stroke-miterlimit="10" x1="230.4" y1="94.3" x2="229.3" y2="89.8"/>
			
				<line fill="none" stroke="#FFFFFF" stroke-width="2" stroke-linecap="round" stroke-linejoin="round" stroke-miterlimit="10" x1="227.7" y1="83.3" x2="226.6" y2="78.8"/>
		</g>
		<g>
			<path fill="none" stroke="#043743" stroke-width="3" stroke-linecap="round" stroke-linejoin="round" stroke-miterlimit="10" d="
				M417.2,160.6c1.8,4.1,3.2,8.6,3.7,13.2"/>
			<path fill="none" stroke="#043743" stroke-width="3" stroke-linecap="round" stroke-linejoin="round" stroke-miterlimit="10" d="
				M417.2,160.6"/>
			<g>
				<path fill="#043743" d="M409.9,150.4l-1.1-1.5c-0.4-0.5-0.7-1-1.1-1.5l-1.1-1.5c-0.4-0.5-0.8-1-1.1-1.4c-0.4-0.5-0.8-1-1.2-1.4
					c-0.4-0.5-0.8-0.9-1.2-1.4s-0.8-0.9-1.2-1.4c-0.4-0.4-0.8-0.9-1.2-1.3l1.1,0.4h-0.1l1.1-0.4l0,0c-0.5,0.6-1.1,1.2-1.7,1.8
					c-0.6,0.6-1.1,1.3-1.6,1.9c-1.1,1.3-2.1,2.6-3.1,4c-2,2.7-3.8,5.6-5.4,8.5c-1.6,2.9-3,6-4.1,9.1c-0.3,0.8-0.5,1.6-0.8,2.4
					c-0.2,0.8-0.4,1.6-0.6,2.4c-0.2,0.8-0.4,1.6-0.5,2.4c-0.2,0.8-0.2,1.6-0.3,2.4l-3.9-1.3c0.6-1,1.1-1.7,1.7-2.4
					c0.6-0.8,1.2-1.5,1.8-2.2c1.3-1.4,2.6-2.7,4.1-3.9c0.7-0.6,1.5-1.2,2.2-1.7c0.8-0.6,1.5-1.1,2.3-1.6s1.6-1,2.4-1.4
					c0.8-0.4,1.6-0.9,2.5-1.3c0.8-0.4,1.7-0.8,2.6-1.1c0.9-0.3,1.7-0.7,2.6-0.9c0.9-0.3,1.8-0.5,2.7-0.8c0.9-0.2,1.8-0.5,2.7-0.6
					c1.8-0.4,3.7-0.6,5.5-0.8c0.9-0.1,1.8-0.1,2.8-0.2c0.9,0,1.8,0,2.8,0c0.8,0,1.5,0.7,1.5,1.5s-0.6,1.5-1.4,1.5h-0.1
					c-0.9,0-1.7,0.1-2.6,0.1c-0.9,0.1-1.7,0.1-2.6,0.2c-1.7,0.2-3.4,0.5-5.1,0.9c-0.8,0.2-1.7,0.4-2.5,0.6c-0.8,0.3-1.7,0.5-2.5,0.8
					s-1.6,0.6-2.4,0.9c-0.8,0.4-1.6,0.7-2.3,1.1c-0.8,0.4-1.5,0.8-2.3,1.2c-0.7,0.4-1.5,0.9-2.2,1.4s-1.4,1-2.1,1.5s-1.3,1.1-2,1.6
					c-1.3,1.1-2.5,2.3-3.6,3.6c-0.5,0.6-1.1,1.3-1.6,2c-0.5,0.7-1,1.4-1.3,2l-0.1,0.1c-0.6,1-1.8,1.4-2.8,0.8
					c-0.8-0.4-1.2-1.3-1-2.1c0.1-0.9,0.2-1.8,0.4-2.7s0.4-1.8,0.6-2.6c0.2-0.9,0.5-1.7,0.8-2.6s0.6-1.7,0.9-2.5
					c1.3-3.3,2.9-6.5,4.6-9.5c1.8-3,3.8-5.9,5.9-8.7c1.1-1.4,2.2-2.7,3.3-4.1c0.6-0.7,1.2-1.3,1.8-2c0.6-0.6,1.2-1.3,1.8-1.9l0,0
					c0.3-0.3,0.7-0.4,1-0.4l0,0h0.1l0,0c0.4,0,0.8,0.2,1,0.4c0.5,0.5,0.9,0.9,1.3,1.4c0.4,0.5,0.8,0.9,1.3,1.4
					c0.4,0.5,0.8,1,1.2,1.5s0.8,1,1.2,1.5s0.8,1,1.2,1.5l1.1,1.5c0.4,0.5,0.7,1,1.1,1.5l1.1,1.5c0.5,0.7,0.3,1.6-0.4,2.1
					S410.3,151.1,409.9,150.4z"/>
			</g>
		</g>
		<path fill="#043743" d="M345-106.8c0,0-13.4,52.4-40.8,52.8c0,0-8.5,61.8,26,98.3c0,0,2.9,78-34.6,123.1c-2.2,2.6-6.4,1-6.4-2.3
			V-16.6c0,0,1.9-95.6,35.4-105.8c0,0,9.1-0.7,10.9,2.2c0,0-2.3-6.4,5.4-12.8c3.7-3.1,21-10.2,39.1-7.1
			c18.2,3.2,64.7,22.1,64.7,76.1c0,0,1.5,21.4,1.5,39.9v186.8c0,2.6-3.5,3.4-4.6,1c-10-21.3-32.9-74.7-32.9-118.5
			c0,0,37.4-36.2,26.8-104.8C435.4-59.4,391.4-52.9,345-106.8z"/>
	</g>
</g>
<g id="Layer_2">
</g>
</svg>
