<svg version="1.1" id="Layer_1" xmlns="http://www.w3.org/2000/svg" xmlns:xlink="http://www.w3.org/1999/xlink" x="0px" y="0px" viewBox="177 -176 385 385" enable-background="new 177 -176 385 385" xml:space="preserve">
<g id="Layer_3">
</g>
<g id="Layer_1_1_">
	<g>
		<path fill="#CEF0EE" d="M262.2,176.1C210.8,141.5,177,82.8,177,16.4c0-106.2,86.4-192.6,192.6-192.6S562.2-89.8,562.2,16.4
			c0,66-33.4,124.3-84.1,159C447.2,196.6,292.9,196.9,262.2,176.1z"/>
		<g>
			
				<line fill="none" stroke="#FFFFFF" stroke-width="2" stroke-linecap="round" stroke-linejoin="round" stroke-miterlimit="10" x1="438.7" y1="46.9" x2="430.4" y2="52.4"/>
			
				<line fill="none" stroke="#FFFFFF" stroke-width="2" stroke-linecap="round" stroke-linejoin="round" stroke-miterlimit="10" x1="422.1" y1="57.9" x2="413.7" y2="63.4"/>
			
				<line fill="none" stroke="#FFFFFF" stroke-width="2" stroke-linecap="round" stroke-linejoin="round" stroke-miterlimit="10" x1="433.7" y1="68.2" x2="428.2" y2="59.9"/>
			
				<line fill="none" stroke="#FFFFFF" stroke-width="2" stroke-linecap="round" stroke-linejoin="round" stroke-miterlimit="10" x1="423.6" y1="51.5" x2="418.1" y2="43.2"/>
			
				<line fill="none" stroke="#FFFFFF" stroke-width="2" stroke-linecap="round" stroke-linejoin="round" stroke-miterlimit="10" x1="436.2" y1="48.5" x2="430.4" y2="52.4"/>
			
				<line fill="none" stroke="#FFFFFF" stroke-width="2" stroke-linecap="round" stroke-linejoin="round" stroke-miterlimit="10" x1="422.1" y1="57.9" x2="416.2" y2="61.8"/>
			
				<line fill="none" stroke="#FFFFFF" stroke-width="2" stroke-linecap="round" stroke-linejoin="round" stroke-miterlimit="10" x1="438.3" y1="58" x2="431.4" y2="56.6"/>
			
				<line fill="none" stroke="#FFFFFF" stroke-width="2" stroke-linecap="round" stroke-linejoin="round" stroke-miterlimit="10" x1="421.6" y1="54.6" x2="414.8" y2="53.2"/>
			
				<line fill="none" stroke="#FFFFFF" stroke-width="2" stroke-linecap="round" stroke-linejoin="round" stroke-miterlimit="10" x1="424.1" y1="67.3" x2="425.5" y2="60.5"/>
			
				<line fill="none" stroke="#FFFFFF" stroke-width="2" stroke-linecap="round" stroke-linejoin="round" stroke-miterlimit="10" x1="427.5" y1="50.7" x2="428.9" y2="43.8"/>
		</g>
		<g>
			
				<line fill="none" stroke="#FFFFFF" stroke-width="2" stroke-linecap="round" stroke-linejoin="round" stroke-miterlimit="10" x1="525.7" y1="103.9" x2="517.4" y2="109.4"/>
			
				<line fill="none" stroke="#FFFFFF" stroke-width="2" stroke-linecap="round" stroke-linejoin="round" stroke-miterlimit="10" x1="509.1" y1="114.9" x2="500.7" y2="120.4"/>
			
				<line fill="none" stroke="#FFFFFF" stroke-width="2" stroke-linecap="round" stroke-linejoin="round" stroke-miterlimit="10" x1="520.7" y1="125.2" x2="515.2" y2="116.9"/>
			
				<line fill="none" stroke="#FFFFFF" stroke-width="2" stroke-linecap="round" stroke-linejoin="round" stroke-miterlimit="10" x1="510.6" y1="108.5" x2="505.1" y2="100.2"/>
			
				<line fill="none" stroke="#FFFFFF" stroke-width="2" stroke-linecap="round" stroke-linejoin="round" stroke-miterlimit="10" x1="523.2" y1="105.5" x2="517.4" y2="109.4"/>
			
				<line fill="none" stroke="#FFFFFF" stroke-width="2" stroke-linecap="round" stroke-linejoin="round" stroke-miterlimit="10" x1="509.1" y1="114.9" x2="503.2" y2="118.8"/>
			
				<line fill="none" stroke="#FFFFFF" stroke-width="2" stroke-linecap="round" stroke-linejoin="round" stroke-miterlimit="10" x1="525.3" y1="115" x2="518.4" y2="113.6"/>
			
				<line fill="none" stroke="#FFFFFF" stroke-width="2" stroke-linecap="round" stroke-linejoin="round" stroke-miterlimit="10" x1="508.6" y1="111.6" x2="501.8" y2="110.2"/>
			
				<line fill="none" stroke="#FFFFFF" stroke-width="2" stroke-linecap="round" stroke-linejoin="round" stroke-miterlimit="10" x1="511.1" y1="124.3" x2="512.5" y2="117.5"/>
			
				<line fill="none" stroke="#FFFFFF" stroke-width="2" stroke-linecap="round" stroke-linejoin="round" stroke-miterlimit="10" x1="514.5" y1="107.7" x2="515.9" y2="100.8"/>
		</g>
		<g>
			
				<line fill="none" stroke="#FFFFFF" stroke-width="2" stroke-linecap="round" stroke-linejoin="round" stroke-miterlimit="10" x1="552.7" y1="5.9" x2="544.4" y2="11.4"/>
			
				<line fill="none" stroke="#FFFFFF" stroke-width="2" stroke-linecap="round" stroke-linejoin="round" stroke-miterlimit="10" x1="536.1" y1="16.9" x2="527.7" y2="22.4"/>
			
				<line fill="none" stroke="#FFFFFF" stroke-width="2" stroke-linecap="round" stroke-linejoin="round" stroke-miterlimit="10" x1="547.7" y1="27.2" x2="542.2" y2="18.9"/>
			
				<line fill="none" stroke="#FFFFFF" stroke-width="2" stroke-linecap="round" stroke-linejoin="round" stroke-miterlimit="10" x1="537.6" y1="10.5" x2="532.1" y2="2.2"/>
			
				<line fill="none" stroke="#FFFFFF" stroke-width="2" stroke-linecap="round" stroke-linejoin="round" stroke-miterlimit="10" x1="550.2" y1="7.5" x2="544.4" y2="11.4"/>
			
				<line fill="none" stroke="#FFFFFF" stroke-width="2" stroke-linecap="round" stroke-linejoin="round" stroke-miterlimit="10" x1="536.1" y1="16.9" x2="530.2" y2="20.8"/>
			
				<line fill="none" stroke="#FFFFFF" stroke-width="2" stroke-linecap="round" stroke-linejoin="round" stroke-miterlimit="10" x1="552.3" y1="17" x2="545.4" y2="15.6"/>
			
				<line fill="none" stroke="#FFFFFF" stroke-width="2" stroke-linecap="round" stroke-linejoin="round" stroke-miterlimit="10" x1="535.6" y1="13.6" x2="528.8" y2="12.2"/>
			
				<line fill="none" stroke="#FFFFFF" stroke-width="2" stroke-linecap="round" stroke-linejoin="round" stroke-miterlimit="10" x1="538.1" y1="26.3" x2="539.5" y2="19.5"/>
			
				<line fill="none" stroke="#FFFFFF" stroke-width="2" stroke-linecap="round" stroke-linejoin="round" stroke-miterlimit="10" x1="541.5" y1="9.7" x2="542.9" y2="2.8"/>
		</g>
		<g>
			
				<line fill="none" stroke="#FFFFFF" stroke-width="2" stroke-linecap="round" stroke-linejoin="round" stroke-miterlimit="10" x1="249.6" y1="-126.6" x2="251.3" y2="-116.7"/>
			
				<line fill="none" stroke="#FFFFFF" stroke-width="2" stroke-linecap="round" stroke-linejoin="round" stroke-miterlimit="10" x1="253" y1="-106.9" x2="254.7" y2="-97"/>
			
				<line fill="none" stroke="#FFFFFF" stroke-width="2" stroke-linecap="round" stroke-linejoin="round" stroke-miterlimit="10" x1="267.1" y1="-113.3" x2="257.3" y2="-111.7"/>
			
				<line fill="none" stroke="#FFFFFF" stroke-width="2" stroke-linecap="round" stroke-linejoin="round" stroke-miterlimit="10" x1="247.4" y1="-110" x2="237.6" y2="-108.3"/>
			
				<line fill="none" stroke="#FFFFFF" stroke-width="2" stroke-linecap="round" stroke-linejoin="round" stroke-miterlimit="10" x1="250.2" y1="-123.6" x2="251.3" y2="-116.7"/>
			
				<line fill="none" stroke="#FFFFFF" stroke-width="2" stroke-linecap="round" stroke-linejoin="round" stroke-miterlimit="10" x1="253" y1="-106.9" x2="254.2" y2="-100"/>
			
				<line fill="none" stroke="#FFFFFF" stroke-width="2" stroke-linecap="round" stroke-linejoin="round" stroke-miterlimit="10" x1="259.6" y1="-121.7" x2="255.6" y2="-116"/>
			
				<line fill="none" stroke="#FFFFFF" stroke-width="2" stroke-linecap="round" stroke-linejoin="round" stroke-miterlimit="10" x1="249.8" y1="-107.8" x2="245.7" y2="-102.1"/>
			
				<line fill="none" stroke="#FFFFFF" stroke-width="2" stroke-linecap="round" stroke-linejoin="round" stroke-miterlimit="10" x1="262.5" y1="-104.9" x2="256.8" y2="-109"/>
			
				<line fill="none" stroke="#FFFFFF" stroke-width="2" stroke-linecap="round" stroke-linejoin="round" stroke-miterlimit="10" x1="248.6" y1="-114.8" x2="242.9" y2="-118.8"/>
		</g>
		<path fill="#FFFFFF" d="M369.6,209c40.3,0,77.8-12.5,108.8-33.8c-0.3-11.1-1.5-43-7.2-51.8c-6.9-10.7-67-25.7-81-26V60.1
			c22.6-10.2,40-37.5,45.8-69.7c10.1-5.1,6.8-23.9,6.6-32.1c-0.1-4.2-2.6-5.9-5.4-6.5c-5.1-44.2-32.6-78-66.6-78
			c-34.2,0-62.5,34-67.7,78.4c-2.8,0.5-5.7,2.1-5.8,6c-0.2,7-4.1,28.1,7,31.2c5.8,32.3,23.4,59.7,46.1,70.3v37.7
			c0,0-48.8,8-73.2,20.2c0,0-10.7,1.4-12.6,24.8c-1.8,22.1-1.9,20-2.1,33.8C292.9,196.9,329.9,209,369.6,209z"/>
		<g>
			
				<line fill="none" stroke="#FFFFFF" stroke-width="2" stroke-linecap="round" stroke-linejoin="round" stroke-miterlimit="10" x1="233.8" y1="85.5" x2="230.1" y2="94.7"/>
			
				<line fill="none" stroke="#FFFFFF" stroke-width="2" stroke-linecap="round" stroke-linejoin="round" stroke-miterlimit="10" x1="226.3" y1="104" x2="222.6" y2="113.3"/>
			
				<line fill="none" stroke="#FFFFFF" stroke-width="2" stroke-linecap="round" stroke-linejoin="round" stroke-miterlimit="10" x1="241.7" y1="105.9" x2="232.5" y2="102.2"/>
			
				<line fill="none" stroke="#FFFFFF" stroke-width="2" stroke-linecap="round" stroke-linejoin="round" stroke-miterlimit="10" x1="223.2" y1="98.4" x2="213.9" y2="94.7"/>
			
				<line fill="none" stroke="#FFFFFF" stroke-width="2" stroke-linecap="round" stroke-linejoin="round" stroke-miterlimit="10" x1="232.7" y1="88.2" x2="230.1" y2="94.7"/>
			
				<line fill="none" stroke="#FFFFFF" stroke-width="2" stroke-linecap="round" stroke-linejoin="round" stroke-miterlimit="10" x1="226.3" y1="104" x2="223.7" y2="110.5"/>
			
				<line fill="none" stroke="#FFFFFF" stroke-width="2" stroke-linecap="round" stroke-linejoin="round" stroke-miterlimit="10" x1="239.7" y1="94.9" x2="233.3" y2="97.6"/>
			
				<line fill="none" stroke="#FFFFFF" stroke-width="2" stroke-linecap="round" stroke-linejoin="round" stroke-miterlimit="10" x1="224.1" y1="101.5" x2="217.6" y2="104.2"/>
			
				<line fill="none" stroke="#FFFFFF" stroke-width="2" stroke-linecap="round" stroke-linejoin="round" stroke-miterlimit="10" x1="233.3" y1="110.6" x2="230.6" y2="104.2"/>
			
				<line fill="none" stroke="#FFFFFF" stroke-width="2" stroke-linecap="round" stroke-linejoin="round" stroke-miterlimit="10" x1="226.7" y1="95" x2="224" y2="88.5"/>
		</g>
		<g>
			
				<line fill="none" stroke="#FFFFFF" stroke-width="2" stroke-linecap="round" stroke-linejoin="round" stroke-miterlimit="10" x1="219.9" y1="-23.7" x2="220.8" y2="-13.7"/>
			
				<line fill="none" stroke="#FFFFFF" stroke-width="2" stroke-linecap="round" stroke-linejoin="round" stroke-miterlimit="10" x1="221.6" y1="-3.8" x2="222.5" y2="6.2"/>
			
				<line fill="none" stroke="#FFFFFF" stroke-width="2" stroke-linecap="round" stroke-linejoin="round" stroke-miterlimit="10" x1="236.2" y1="-9.1" x2="226.3" y2="-8.2"/>
			
				<line fill="none" stroke="#FFFFFF" stroke-width="2" stroke-linecap="round" stroke-linejoin="round" stroke-miterlimit="10" x1="216.3" y1="-7.3" x2="206.3" y2="-6.5"/>
			
				<line fill="none" stroke="#FFFFFF" stroke-width="2" stroke-linecap="round" stroke-linejoin="round" stroke-miterlimit="10" x1="220.1" y1="-20.7" x2="220.8" y2="-13.7"/>
			
				<line fill="none" stroke="#FFFFFF" stroke-width="2" stroke-linecap="round" stroke-linejoin="round" stroke-miterlimit="10" x1="221.6" y1="-3.8" x2="222.2" y2="3.2"/>
			
				<line fill="none" stroke="#FFFFFF" stroke-width="2" stroke-linecap="round" stroke-linejoin="round" stroke-miterlimit="10" x1="229.4" y1="-18" x2="224.9" y2="-12.6"/>
			
				<line fill="none" stroke="#FFFFFF" stroke-width="2" stroke-linecap="round" stroke-linejoin="round" stroke-miterlimit="10" x1="218.5" y1="-5" x2="214" y2="0.4"/>
			
				<line fill="none" stroke="#FFFFFF" stroke-width="2" stroke-linecap="round" stroke-linejoin="round" stroke-miterlimit="10" x1="230.9" y1="-1.1" x2="225.5" y2="-5.6"/>
			
				<line fill="none" stroke="#FFFFFF" stroke-width="2" stroke-linecap="round" stroke-linejoin="round" stroke-miterlimit="10" x1="217.9" y1="-12" x2="212.5" y2="-16.5"/>
		</g>
		<g>
			
				<line fill="none" stroke="#FFFFFF" stroke-width="2" stroke-linecap="round" stroke-linejoin="round" stroke-miterlimit="10" x1="458.7" y1="-107.1" x2="450.4" y2="-101.6"/>
			
				<line fill="none" stroke="#FFFFFF" stroke-width="2" stroke-linecap="round" stroke-linejoin="round" stroke-miterlimit="10" x1="442.1" y1="-96.1" x2="433.7" y2="-90.6"/>
			
				<line fill="none" stroke="#FFFFFF" stroke-width="2" stroke-linecap="round" stroke-linejoin="round" stroke-miterlimit="10" x1="453.7" y1="-85.8" x2="448.2" y2="-94.1"/>
			
				<line fill="none" stroke="#FFFFFF" stroke-width="2" stroke-linecap="round" stroke-linejoin="round" stroke-miterlimit="10" x1="443.6" y1="-102.5" x2="438.1" y2="-110.8"/>
			
				<line fill="none" stroke="#FFFFFF" stroke-width="2" stroke-linecap="round" stroke-linejoin="round" stroke-miterlimit="10" x1="456.2" y1="-105.5" x2="450.4" y2="-101.6"/>
			
				<line fill="none" stroke="#FFFFFF" stroke-width="2" stroke-linecap="round" stroke-linejoin="round" stroke-miterlimit="10" x1="442.1" y1="-96.1" x2="436.2" y2="-92.2"/>
			
				<line fill="none" stroke="#FFFFFF" stroke-width="2" stroke-linecap="round" stroke-linejoin="round" stroke-miterlimit="10" x1="458.3" y1="-96" x2="451.4" y2="-97.4"/>
			
				<line fill="none" stroke="#FFFFFF" stroke-width="2" stroke-linecap="round" stroke-linejoin="round" stroke-miterlimit="10" x1="441.6" y1="-99.4" x2="434.8" y2="-100.8"/>
			
				<line fill="none" stroke="#FFFFFF" stroke-width="2" stroke-linecap="round" stroke-linejoin="round" stroke-miterlimit="10" x1="444.1" y1="-86.7" x2="445.5" y2="-93.5"/>
			
				<line fill="none" stroke="#FFFFFF" stroke-width="2" stroke-linecap="round" stroke-linejoin="round" stroke-miterlimit="10" x1="447.5" y1="-103.3" x2="448.9" y2="-110.2"/>
		</g>
		<g>
			<path fill="none" stroke="#043743" stroke-width="3" stroke-linecap="round" stroke-linejoin="round" stroke-miterlimit="10" d="
				M415.2,158.6c1.8,4.1,3.2,8.6,3.7,13.2"/>
			<path fill="none" stroke="#043743" stroke-width="3" stroke-linecap="round" stroke-linejoin="round" stroke-miterlimit="10" d="
				M415.2,158.6"/>
			<g>
				<path fill="#043743" d="M407.9,148.4l-1.1-1.5c-0.4-0.5-0.7-1-1.1-1.5l-1.1-1.5c-0.4-0.5-0.8-1-1.1-1.4c-0.4-0.5-0.8-1-1.2-1.4
					c-0.4-0.5-0.8-0.9-1.2-1.4s-0.8-0.9-1.2-1.4c-0.4-0.4-0.8-0.9-1.2-1.3l1.1,0.4h-0.1l1.1-0.4l0,0c-0.5,0.6-1.1,1.2-1.7,1.8
					s-1.1,1.3-1.6,1.9c-1.1,1.3-2.1,2.6-3.1,4c-2,2.7-3.8,5.6-5.4,8.5s-3,6-4.1,9.1c-0.3,0.8-0.5,1.6-0.8,2.4
					c-0.2,0.8-0.4,1.6-0.6,2.4s-0.4,1.6-0.5,2.4c-0.2,0.8-0.2,1.6-0.3,2.4l-3.9-1.3c0.6-1,1.1-1.7,1.7-2.4c0.6-0.8,1.2-1.5,1.8-2.2
					c1.3-1.4,2.6-2.7,4.1-3.9c0.7-0.6,1.5-1.2,2.2-1.7c0.8-0.6,1.5-1.1,2.3-1.6s1.6-1,2.4-1.4s1.6-0.9,2.5-1.3
					c0.8-0.4,1.7-0.8,2.6-1.1s1.7-0.7,2.6-0.9c0.9-0.3,1.8-0.5,2.7-0.8c0.9-0.2,1.8-0.5,2.7-0.6c1.8-0.4,3.7-0.6,5.5-0.8
					c0.9-0.1,1.8-0.1,2.8-0.2c0.9,0,1.8,0,2.8,0c0.8,0,1.5,0.7,1.5,1.5s-0.6,1.5-1.4,1.5h-0.1c-0.9,0-1.7,0.1-2.6,0.1
					c-0.9,0.1-1.7,0.1-2.6,0.2c-1.7,0.2-3.4,0.5-5.1,0.9c-0.8,0.2-1.7,0.4-2.5,0.6c-0.8,0.3-1.7,0.5-2.5,0.8s-1.6,0.6-2.4,0.9
					c-0.8,0.4-1.6,0.7-2.3,1.1c-0.8,0.4-1.5,0.8-2.3,1.2c-0.7,0.4-1.5,0.9-2.2,1.4s-1.4,1-2.1,1.5s-1.3,1.1-2,1.6
					c-1.3,1.1-2.5,2.3-3.6,3.6c-0.5,0.6-1.1,1.3-1.6,2s-1,1.4-1.3,2l-0.1,0.1c-0.6,1-1.8,1.4-2.8,0.8c-0.8-0.4-1.2-1.3-1-2.1
					c0.1-0.9,0.2-1.8,0.4-2.7c0.2-0.9,0.4-1.8,0.6-2.6c0.2-0.9,0.5-1.7,0.8-2.6c0.3-0.9,0.6-1.7,0.9-2.5c1.3-3.3,2.9-6.5,4.6-9.5
					c1.8-3,3.8-5.9,5.9-8.7c1.1-1.4,2.2-2.7,3.3-4.1c0.6-0.7,1.2-1.3,1.8-2c0.6-0.6,1.2-1.3,1.8-1.9l0,0c0.3-0.3,0.7-0.4,1-0.4l0,0
					h0.1l0,0c0.4,0,0.8,0.2,1,0.4c0.5,0.5,0.9,0.9,1.3,1.4s0.8,0.9,1.3,1.4c0.4,0.5,0.8,1,1.2,1.5s0.8,1,1.2,1.5s0.8,1,1.2,1.5
					l1.1,1.5c0.4,0.5,0.7,1,1.1,1.5l1.1,1.5c0.5,0.7,0.3,1.6-0.4,2.1S408.3,149.1,407.9,148.4z"/>
			</g>
		</g>
		
			<ellipse fill="none" stroke="#043743" stroke-width="3" stroke-linecap="round" stroke-miterlimit="10" cx="369.9" cy="-34.3" rx="67.3" ry="98.7"/>
		<circle fill="#043743" cx="337.2" cy="-36.9" r="6.7"/>
		<circle fill="#043743" cx="403.2" cy="-36.9" r="6.7"/>
		<path fill="none" stroke="#043743" stroke-width="3" stroke-linecap="round" stroke-miterlimit="10" d="M362.7-29.6v29
			c0,0,0,7.5,7.5,7.5"/>
		<path fill="none" stroke="#043743" stroke-width="3" stroke-linecap="round" stroke-linejoin="round" stroke-miterlimit="10" d="
			M389.7,60.4v37c0,0-3.6,11.5-18.9,17.5h-1.2c-15.3-6-18.9-17.5-18.9-17.5v-37"/>
		<path fill="none" stroke="#043743" stroke-width="3" stroke-linecap="round" stroke-miterlimit="10" d="M347,24.3
			c10.2,1.6,27.1,3.1,45.2,0.4"/>
		<path fill="none" stroke="#043743" stroke-width="3" stroke-linecap="round" stroke-miterlimit="10" d="M317.5-56.8
			c0,0,19-4,33.7,0"/>
		<path fill="none" stroke="#043743" stroke-width="3" stroke-linecap="round" stroke-miterlimit="10" d="M422.2-56.8
			c0,0-19-4-33.7,0"/>
		<path fill="none" stroke="#043743" stroke-width="3" stroke-linecap="round" stroke-linejoin="round" stroke-miterlimit="10" d="
			M350.7,97.4c0,0-70.3,11.1-81.2,26c-4.9,6.7-6.8,31.3-7.4,54"/>
		<path fill="none" stroke="#043743" stroke-width="3" stroke-linecap="round" stroke-linejoin="round" stroke-miterlimit="10" d="
			M390,97.4c0,0,70.3,11.1,81.2,26c4.8,6.6,6.7,30.6,7.3,53"/>
		
			<line fill="none" stroke="#043743" stroke-width="3" stroke-linecap="round" stroke-linejoin="round" stroke-miterlimit="10" x1="305.7" y1="199.4" x2="305.7" y2="175.4"/>
		
			<line fill="none" stroke="#043743" stroke-width="3" stroke-linecap="round" stroke-linejoin="round" stroke-miterlimit="10" x1="432.7" y1="199.4" x2="432.7" y2="175.4"/>
		<path fill="none" stroke="#043743" stroke-width="3" stroke-linecap="round" stroke-linejoin="round" stroke-miterlimit="10" d="
			M337.2-42.4"/>
		<path fill="none" stroke="#043743" stroke-width="3" stroke-linecap="round" stroke-miterlimit="10" d="M303.2-47.7
			c0,0-6.1-1.3-6.1,6.1s-2.5,31.6,7,31.6"/>
		<path fill="none" stroke="#043743" stroke-width="3" stroke-linecap="round" stroke-miterlimit="10" d="M436.8-47.7
			c0,0,6.1-1.3,6.1,6.1s2.5,31.6-7,31.6"/>
		<path fill="#043743" d="M447-78.6c-0.7-0.7-1.5-1.4-2.2-1.9c-2.2-1.4-2.8-4.4-1.2-6.6c1.2-1.8,2.1-3.6,1.2-4.7
			c-2-2.5-3.8-9.1-10.4-8.1c6.1-3,12.6-10.7,7.1-20.2s-14.3-8.3-14.3-8.3c1.6-5.1,0.4-12.2-7.7-15.7c-13.2-5.8-20.5-0.5-20.5-0.5
			s1.5-9.5-12.8-12.7s-19.8,9.7-19.8,9.7c1.7-3-4-8.5-11.5-9.5s-11.7,2.3-14.7,7.7s-7.8,18-7.8,18c-3.5,4-10.2,0.5-14.9,5.5
			c-2.6,2.8-2.3,6.8-1.5,9.9c0.5,2-0.7,4.1-2.8,4.5c-6,1.2-5.6,5.4-11.2,11.7c-6.7,7.5,0.6,14.5,0.6,14.5c-5.3,4.8-5.7,20-3.8,24
			s4.5,12.5,4.5,12.5c3.3-14.8,14.7-39.9,18.5-45.7c0.8-1.3,2.2-2.2,3.8-2.3c10.5-1.3,53.2-5.9,87.2-0.1c1.7,0.3,3.1,1.2,4.1,2.6
			c3,4.2,10.9,21.6,19.6,45.6c0,0,1.8-11.3,6.8-13.5C448.3-64.4,450-75.4,447-78.6z"/>
		<path fill="#FFFFFF" d="M350.7,54.4"/>
	</g>
</g>
<g id="Layer_2">
</g>
</svg>
