<svg xmlns="http://www.w3.org/2000/svg" viewBox="177 -176 385 385"><path fill="#CEF0EE" d="M262.2 176.1C210.8 141.5 177 82.8 177 16.4c0-106.2 86.4-192.6 192.6-192.6S562.2-89.8 562.2 16.4c0 66-33.4 124.3-84.1 159-30.9 21.2-185.2 21.5-215.9.7z"/><g fill="none" stroke="#FFF" stroke-width="2" stroke-linecap="round" stroke-linejoin="round" stroke-miterlimit="10"><path d="M438.7 46.9l-8.3 5.5M422.1 57.9l-8.4 5.5M433.7 68.2l-5.5-8.3M423.6 51.5l-5.5-8.3M436.2 48.5l-5.8 3.9M422.1 57.9l-5.9 3.9M438.3 58l-6.9-1.4M421.6 54.6l-6.8-1.4M424.1 67.3l1.4-6.8M427.5 50.7l1.4-6.9"/></g><g fill="none" stroke="#FFF" stroke-width="2" stroke-linecap="round" stroke-linejoin="round" stroke-miterlimit="10"><path d="M525.7 103.9l-8.3 5.5M509.1 114.9l-8.4 5.5M520.7 125.2l-5.5-8.3M510.6 108.5l-5.5-8.3M523.2 105.5l-5.8 3.9M509.1 114.9l-5.9 3.9M525.3 115l-6.9-1.4M508.6 111.6l-6.8-1.4M511.1 124.3l1.4-6.8M514.5 107.7l1.4-6.9"/></g><g fill="none" stroke="#FFF" stroke-width="2" stroke-linecap="round" stroke-linejoin="round" stroke-miterlimit="10"><path d="M552.7 5.9l-8.3 5.5M536.1 16.9l-8.4 5.5M547.7 27.2l-5.5-8.3M537.6 10.5l-5.5-8.3M550.2 7.5l-5.8 3.9M536.1 16.9l-5.9 3.9M552.3 17l-6.9-1.4M535.6 13.6l-6.8-1.4M538.1 26.3l1.4-6.8M541.5 9.7l1.4-6.9"/></g><g fill="none" stroke="#FFF" stroke-width="2" stroke-linecap="round" stroke-linejoin="round" stroke-miterlimit="10"><path d="M249.6-126.6l1.7 9.9M253-106.9l1.7 9.9M267.1-113.3l-9.8 1.6M247.4-110l-9.8 1.7M250.2-123.6l1.1 6.9M253-106.9l1.2 6.9M259.6-121.7l-4 5.7M249.8-107.8l-4.1 5.7M262.5-104.9l-5.7-4.1M248.6-114.8l-5.7-4"/></g><path fill="#FFF" d="M369.6 209c40.3 0 77.8-12.5 108.8-33.8-.3-11.1-1.5-43-7.2-51.8-6.9-10.7-67-25.7-81-26V60.1c22.6-10.2 40-37.5 45.8-69.7 10.1-5.1 6.8-23.9 6.6-32.1-.1-4.2-2.6-5.9-5.4-6.5-5.1-44.2-32.6-78-66.6-78-34.2 0-62.5 34-67.7 78.4-2.8.5-5.7 2.1-5.8 6-.2 7-4.1 28.1 7 31.2 5.8 32.3 23.4 59.7 46.1 70.3v37.7s-48.8 8-73.2 20.2c0 0-10.7 1.4-12.6 24.8-1.8 22.1-1.9 20-2.1 33.8 30.6 20.7 67.6 32.8 107.3 32.8z"/><g fill="none" stroke="#FFF" stroke-width="2" stroke-linecap="round" stroke-linejoin="round" stroke-miterlimit="10"><path d="M233.8 85.5l-3.7 9.2M226.3 104l-3.7 9.3M241.7 105.9l-9.2-3.7M223.2 98.4l-9.3-3.7M232.7 88.2l-2.6 6.5M226.3 104l-2.6 6.5M239.7 94.9l-6.4 2.7M224.1 101.5l-6.5 2.7M233.3 110.6l-2.7-6.4M226.7 95l-2.7-6.5"/></g><g fill="none" stroke="#FFF" stroke-width="2" stroke-linecap="round" stroke-linejoin="round" stroke-miterlimit="10"><path d="M219.9-23.7l.9 10M221.6-3.8l.9 10M236.2-9.1l-9.9.9M216.3-7.3l-10 .8M220.1-20.7l.7 7M221.6-3.8l.6 7M229.4-18l-4.5 5.4M218.5-5L214 .4M230.9-1.1l-5.4-4.5M217.9-12l-5.4-4.5"/></g><g fill="none" stroke="#FFF" stroke-width="2" stroke-linecap="round" stroke-linejoin="round" stroke-miterlimit="10"><path d="M458.7-107.1l-8.3 5.5M442.1-96.1l-8.4 5.5M453.7-85.8l-5.5-8.3M443.6-102.5l-5.5-8.3M456.2-105.5l-5.8 3.9M442.1-96.1l-5.9 3.9M458.3-96l-6.9-1.4M441.6-99.4l-6.8-1.4M444.1-86.7l1.4-6.8M447.5-103.3l1.4-6.9"/></g><path fill="none" stroke="#043743" stroke-width="3" stroke-linecap="round" stroke-linejoin="round" stroke-miterlimit="10" d="M415.2 158.6c1.8 4.1 3.2 8.6 3.7 13.2"/><path fill="#043743" d="M407.9 148.4l-1.1-1.5c-.4-.5-.7-1-1.1-1.5l-1.1-1.5c-.4-.5-.8-1-1.1-1.4-.4-.5-.8-1-1.2-1.4-.4-.5-.8-.9-1.2-1.4s-.8-.9-1.2-1.4c-.4-.4-.8-.9-1.2-1.3l1.1.4h-.1l1.1-.4c-.5.6-1.1 1.2-1.7 1.8s-1.1 1.3-1.6 1.9c-1.1 1.3-2.1 2.6-3.1 4-2 2.7-3.8 5.6-5.4 8.5s-3 6-4.1 9.1c-.3.8-.5 1.6-.8 2.4l-.6 2.4s-.4 1.6-.5 2.4c-.2.8-.2 1.6-.3 2.4l-3.9-1.3c.6-1 1.1-1.7 1.7-2.4.6-.8 1.2-1.5 1.8-2.2 1.3-1.4 2.6-2.7 4.1-3.9.7-.6 1.5-1.2 2.2-1.7.8-.6 1.5-1.1 2.3-1.6s1.6-1 2.4-1.4 1.6-.9 2.5-1.3c.8-.4 1.7-.8 2.6-1.1s1.7-.7 2.6-.9c.9-.3 1.8-.5 2.7-.8.9-.2 1.8-.5 2.7-.6 1.8-.4 3.7-.6 5.5-.8.9-.1 1.8-.1 2.8-.2h2.8c.8 0 1.5.7 1.5 1.5s-.6 1.5-1.4 1.5h-.1c-.9 0-1.7.1-2.6.1-.9.1-1.7.1-2.6.2-1.7.2-3.4.5-5.1.9-.8.2-1.7.4-2.5.6-.8.3-1.7.5-2.5.8l-2.4.9c-.8.4-1.6.7-2.3 1.1-.8.4-1.5.8-2.3 1.2-.7.4-1.5.9-2.2 1.4l-2.1 1.5s-1.3 1.1-2 1.6c-1.3 1.1-2.5 2.3-3.6 3.6-.5.6-1.1 1.3-1.6 2s-1 1.4-1.3 2l-.1.1c-.6 1-1.8 1.4-2.8.8-.8-.4-1.2-1.3-1-2.1.1-.9.2-1.8.4-2.7.2-.9.4-1.8.6-2.6.2-.9.5-1.7.8-2.6.3-.9.6-1.7.9-2.5 1.3-3.3 2.9-6.5 4.6-9.5 1.8-3 3.8-5.9 5.9-8.7 1.1-1.4 2.2-2.7 3.3-4.1.6-.7 1.2-1.3 1.8-2 .6-.6 1.2-1.3 1.8-1.9.3-.3.7-.4 1-.4h.1c.4 0 .8.2 1 .4.5.5.9.9 1.3 1.4s.8.9 1.3 1.4l1.2 1.5 1.2 1.5 1.2 1.5 1.1 1.5c.4.5.7 1 1.1 1.5l1.1 1.5c.5.7.3 1.6-.4 2.1s-1.5.4-1.9-.3z"/><ellipse fill="none" stroke="#043743" stroke-width="3" stroke-linecap="round" stroke-miterlimit="10" cx="369.9" cy="-34.3" rx="67.3" ry="98.7"/><circle fill="#043743" cx="337.2" cy="-36.9" r="6.7"/><circle fill="#043743" cx="403.2" cy="-36.9" r="6.7"/><path fill="none" stroke="#043743" stroke-width="3" stroke-linecap="round" stroke-miterlimit="10" d="M362.7-29.6v29s0 7.5 7.5 7.5"/><path fill="none" stroke="#043743" stroke-width="3" stroke-linecap="round" stroke-linejoin="round" stroke-miterlimit="10" d="M389.7 60.4v37s-3.6 11.5-18.9 17.5h-1.2c-15.3-6-18.9-17.5-18.9-17.5v-37"/><path fill="none" stroke="#043743" stroke-width="3" stroke-linecap="round" stroke-miterlimit="10" d="M347 24.3c10.2 1.6 27.1 3.1 45.2.4M317.5-56.8s19-4 33.7 0M422.2-56.8s-19-4-33.7 0"/><path fill="none" stroke="#043743" stroke-width="3" stroke-linecap="round" stroke-linejoin="round" stroke-miterlimit="10" d="M350.7 97.4s-70.3 11.1-81.2 26c-4.9 6.7-6.8 31.3-7.4 54M390 97.4s70.3 11.1 81.2 26c4.8 6.6 6.7 30.6 7.3 53M305.7 199.4v-24M432.7 199.4v-24"/><path fill="none" stroke="#043743" stroke-width="3" stroke-linecap="round" stroke-miterlimit="10" d="M303.2-47.7s-6.1-1.3-6.1 6.1-2.5 31.6 7 31.6M436.8-47.7s6.1-1.3 6.1 6.1 2.5 31.6-7 31.6"/><path fill="#043743" d="M447-78.6c-.7-.7-1.5-1.4-2.2-1.9-2.2-1.4-2.8-4.4-1.2-6.6 1.2-1.8 2.1-3.6 1.2-4.7-2-2.5-3.8-9.1-10.4-8.1 6.1-3 12.6-10.7 7.1-20.2s-14.3-8.3-14.3-8.3c1.6-5.1.4-12.2-7.7-15.7-13.2-5.8-20.5-.5-20.5-.5s1.5-9.5-12.8-12.7-19.8 9.7-19.8 9.7c1.7-3-4-8.5-11.5-9.5s-11.7 2.3-14.7 7.7-7.8 18-7.8 18c-3.5 4-10.2.5-14.9 5.5-2.6 2.8-2.3 6.8-1.5 9.9.5 2-.7 4.1-2.8 4.5-6 1.2-5.6 5.4-11.2 11.7-6.7 7.5.6 14.5.6 14.5-5.3 4.8-5.7 20-3.8 24s4.5 12.5 4.5 12.5c3.3-14.8 14.7-39.9 18.5-45.7.8-1.3 2.2-2.2 3.8-2.3 10.5-1.3 53.2-5.9 87.2-.1 1.7.3 3.1 1.2 4.1 2.6 3 4.2 10.9 21.6 19.6 45.6 0 0 1.8-11.3 6.8-13.5 5-2.2 6.7-13.2 3.7-16.4z"/></svg>
