<?xml version="1.0" encoding="utf-8"?>
<!-- Generator: Adobe Illustrator 18.1.1, SVG Export Plug-In . SVG Version: 6.00 Build 0)  -->
<svg version="1.1" baseProfile="tiny" xmlns="http://www.w3.org/2000/svg" xmlns:xlink="http://www.w3.org/1999/xlink" x="0px"
	 y="0px" width="1477.6px" height="155.2px" viewBox="0 0 1477.6 155.2" xml:space="preserve">
<g id="Layer_2">
	<g>
		<path fill="#68878E" d="M1375.5,65.8c0.3-0.1,0.5,0,0.6,0.3l1,2.8c0.1,0.3,0,0.5-0.3,0.6c-0.3,0.1-0.5,0-0.6-0.3l-1-2.8
			C1375.1,66.2,1375.3,65.9,1375.5,65.8z"/>
		<path fill="#68878E" d="M1373.6,60.1c0.3-0.1,0.5,0,0.6,0.3l1,2.8c0.1,0.3,0,0.5-0.3,0.6c-0.3,0.1-0.5,0-0.6-0.3l-1-2.8
			C1373.2,60.5,1373.3,60.2,1373.6,60.1z"/>
		<path fill="#68878E" d="M1370.8,65.9l2.8-1c0.3-0.1,0.5,0,0.6,0.3c0.1,0.3,0,0.5-0.3,0.6l-2.8,1c-0.3,0.1-0.5,0-0.6-0.3
			C1370.4,66.2,1370.5,65.9,1370.8,65.9z"/>
		<path fill="#68878E" d="M1376.5,63.9l2.8-1c0.3-0.1,0.5,0,0.6,0.3c0.1,0.3,0,0.5-0.3,0.6l-2.8,1c-0.3,0.1-0.5,0-0.6-0.3
			C1376.1,64.3,1376.2,64,1376.5,63.9z"/>
		<path fill="#68878E" d="M1373.3,67.9c0.1,0,0.3,0,0.4,0c0.2,0.1,0.4,0.4,0.2,0.7l-0.4,0.9c-0.1,0.2-0.4,0.4-0.7,0.2
			c-0.2-0.1-0.4-0.4-0.2-0.7l0.4-0.9C1373.1,68,1373.2,67.9,1373.3,67.9z"/>
		<path fill="#68878E" d="M1377.2,60c0.1,0,0.3,0,0.4,0c0.2,0.1,0.4,0.4,0.2,0.7l-0.4,0.9c-0.1,0.2-0.4,0.4-0.7,0.2
			s-0.4-0.4-0.2-0.7l0.4-0.9C1377,60.1,1377.1,60,1377.2,60z"/>
		<path fill="#68878E" d="M1370.6,62.2c0.1,0,0.3,0,0.4,0l0.9,0.4c0.2,0.1,0.4,0.4,0.2,0.7c-0.1,0.2-0.4,0.4-0.7,0.2l-0.9-0.4
			c-0.2-0.1-0.4-0.4-0.2-0.7C1370.4,62.4,1370.5,62.3,1370.6,62.2z"/>
		<path fill="#68878E" d="M1378.6,66.1c0.1,0,0.3,0,0.4,0l0.9,0.4c0.2,0.1,0.4,0.4,0.2,0.7c-0.1,0.2-0.4,0.4-0.7,0.2l-0.9-0.4
			c-0.2-0.1-0.4-0.4-0.2-0.7C1378.3,66.2,1378.4,66.1,1378.6,66.1z"/>
	</g>
	<g>
		<path fill="#68878E" d="M1465.1,6.9c-0.2,0-0.4-0.3-0.4-0.5c0-0.3,0.3-0.5,0.5-0.5l4,0.3c0.3,0,0.5,0.3,0.5,0.5
			c0,0.3-0.3,0.5-0.5,0.5L1465.1,6.9C1465.2,6.9,1465.2,6.9,1465.1,6.9z"/>
		<path fill="#68878E" d="M1473,7.4c-0.2,0-0.4-0.3-0.4-0.5c0-0.3,0.3-0.5,0.5-0.5l4,0.3c0.3,0,0.5,0.3,0.5,0.5
			c0,0.3-0.3,0.5-0.5,0.5L1473,7.4C1473.1,7.4,1473.1,7.4,1473,7.4z"/>
		<path fill="#68878E" d="M1471.2,5.3c-0.2,0-0.4-0.3-0.4-0.5l0.3-4c0-0.3,0.3-0.5,0.5-0.5c0.3,0,0.5,0.3,0.5,0.5l-0.3,4
			C1471.8,5.1,1471.5,5.3,1471.2,5.3C1471.2,5.3,1471.2,5.3,1471.2,5.3z"/>
		<path fill="#68878E" d="M1470.7,13.2c-0.2,0-0.4-0.3-0.4-0.5l0.3-4c0-0.3,0.3-0.5,0.5-0.5c0.3,0,0.5,0.3,0.5,0.5l-0.3,4
			C1471.3,13,1471,13.2,1470.7,13.2C1470.7,13.2,1470.7,13.2,1470.7,13.2z"/>
		<path fill="#68878E" d="M1473.4,10c-0.1,0-0.2-0.1-0.3-0.2l-1-1.2c-0.2-0.2-0.2-0.5,0-0.7c0.2-0.2,0.5-0.2,0.7,0l1,1.2
			c0.2,0.2,0.2,0.5,0,0.7C1473.7,10,1473.6,10,1473.4,10z"/>
		<path fill="#68878E" d="M1469.8,5.8c-0.1,0-0.2-0.1-0.3-0.2l-1-1.2c-0.2-0.2-0.2-0.5,0-0.7c0.2-0.2,0.5-0.2,0.7,0l1,1.2
			c0.2,0.2,0.2,0.5,0,0.7C1470.1,5.8,1469.9,5.8,1469.8,5.8z"/>
		<path fill="#68878E" d="M1468.4,9.6c-0.1,0-0.2-0.1-0.3-0.2c-0.2-0.2-0.2-0.5,0-0.7l1.2-1c0.2-0.2,0.5-0.2,0.7,0
			c0.2,0.2,0.2,0.5,0,0.7l-1.2,1C1468.7,9.6,1468.5,9.7,1468.4,9.6z"/>
		<path fill="#68878E" d="M1472.6,6c-0.1,0-0.2-0.1-0.3-0.2c-0.2-0.2-0.2-0.5,0-0.7l1.2-1c0.2-0.2,0.5-0.2,0.7,0
			c0.2,0.2,0.2,0.5,0,0.7l-1.2,1C1472.9,6,1472.7,6,1472.6,6z"/>
	</g>
	<g>
		<path fill="#68878E" d="M1443.8,34.5c-0.1,0-0.3-0.1-0.3-0.2c-0.1-0.2-0.1-0.5,0.2-0.7l2.7-1.7c0.2-0.1,0.5-0.1,0.7,0.2
			c0.1,0.2,0.1,0.5-0.2,0.7l-2.7,1.7C1444,34.5,1443.9,34.5,1443.8,34.5z"/>
		<path fill="#68878E" d="M1449.1,31.1c-0.1,0-0.3-0.1-0.3-0.2c-0.1-0.2-0.1-0.5,0.2-0.7l2.7-1.7c0.2-0.1,0.5-0.1,0.7,0.2
			c0.1,0.2,0.1,0.5-0.2,0.7l-2.7,1.7C1449.4,31.1,1449.3,31.2,1449.1,31.1z"/>
		<path fill="#68878E" d="M1447,30.6c-0.1,0-0.3-0.1-0.3-0.2l-1.7-2.7c-0.1-0.2-0.1-0.5,0.2-0.7c0.2-0.1,0.5-0.1,0.7,0.2l1.7,2.7
			c0.1,0.2,0.1,0.5-0.2,0.7C1447.2,30.6,1447.1,30.7,1447,30.6z"/>
		<path fill="#68878E" d="M1450.3,36c-0.1,0-0.3-0.1-0.3-0.2l-1.7-2.7c-0.1-0.2-0.1-0.5,0.2-0.7c0.2-0.1,0.5-0.1,0.7,0.2l1.7,2.7
			c0.1,0.2,0.1,0.5-0.2,0.7C1450.6,36,1450.5,36,1450.3,36z"/>
		<path fill="#68878E" d="M1450.6,32.4C1450.6,32.4,1450.6,32.4,1450.6,32.4l-1.3-0.2c-0.3-0.1-0.4-0.3-0.4-0.5
			c0.1-0.3,0.3-0.4,0.6-0.4l1.2,0.3c0.3,0.1,0.5,0.2,0.4,0.5C1451.1,32.4,1450.9,32.4,1450.6,32.4z"/>
		<path fill="#68878E" d="M1446.3,31.6C1446.3,31.6,1446.3,31.6,1446.3,31.6l-1.3-0.3c-0.3-0.1-0.4-0.3-0.4-0.6
			c0.1-0.3,0.3-0.4,0.6-0.4l1.2,0.3c0.3,0.1,0.4,0.3,0.4,0.6C1446.8,31.5,1446.5,31.6,1446.3,31.6z"/>
		<path fill="#68878E" d="M1447.2,34.8C1447.2,34.8,1447.2,34.8,1447.2,34.8c-0.3-0.1-0.5-0.4-0.4-0.6l0.3-1.1
			c0.1-0.3,0.3-0.3,0.6-0.2c0,0,0,0,0,0c0.3,0.1,0.5,0.2,0.4,0.5l-0.3,1.2C1447.7,34.7,1447.4,34.8,1447.2,34.8z"/>
		<path fill="#68878E" d="M1448.1,30.9C1448.1,30.9,1448.1,30.9,1448.1,30.9c-0.3-0.1-0.4-0.6-0.3-0.8l0.3-1.3
			c0.1-0.3,0.4-0.5,0.6-0.4c0.3,0.1,0.4,0.3,0.4,0.6l-0.3,1.4C1448.6,30.6,1448.3,30.9,1448.1,30.9z"/>
	</g>
	<g>
		<path fill="#68878E" d="M1392.7,19.7c-0.3,0-0.5-0.1-0.6-0.4l-0.5-3c0-0.3,0.1-0.5,0.4-0.6c0.3,0,0.5,0.1,0.6,0.4l0.5,3
			C1393.1,19.4,1392.9,19.7,1392.7,19.7z"/>
		<path fill="#68878E" d="M1393.6,25.7c-0.3,0-0.5-0.1-0.6-0.4l-0.5-3c0-0.3,0.1-0.5,0.4-0.6c0.3,0,0.5,0.1,0.6,0.4l0.5,3
			C1394,25.4,1393.9,25.6,1393.6,25.7z"/>
		<path fill="#68878E" d="M1397.4,20.5l-3,0.5c-0.3,0-0.5-0.1-0.6-0.4s0.1-0.5,0.4-0.6l3-0.5c0.3,0,0.5,0.1,0.6,0.4
			S1397.6,20.5,1397.4,20.5z"/>
		<path fill="#68878E" d="M1391.4,21.4l-3,0.5c-0.3,0-0.5-0.1-0.6-0.4c0-0.3,0.1-0.5,0.4-0.6l3-0.5c0.3,0,0.5,0.1,0.6,0.4
			C1391.9,21.2,1391.7,21.4,1391.4,21.4z"/>
		<path fill="#68878E" d="M1395.2,18.1c-0.1,0-0.3,0-0.4-0.1c-0.2-0.2-0.3-0.5-0.1-0.7l0.6-0.8c0.2-0.2,0.5-0.3,0.7-0.1
			c0.2,0.2,0.3,0.5,0.1,0.7l-0.6,0.8C1395.5,18,1395.3,18.1,1395.2,18.1z"/>
		<path fill="#68878E" d="M1390,25.2c-0.1,0-0.3,0-0.4-0.1c-0.2-0.2-0.3-0.5-0.1-0.7l0.6-0.8c0.2-0.2,0.5-0.3,0.7-0.1
			c0.2,0.2,0.3,0.5,0.1,0.7l-0.6,0.8C1390.2,25.1,1390.1,25.2,1390,25.2z"/>
		<path fill="#68878E" d="M1396.9,24.1c-0.1,0-0.3,0-0.4-0.1l-0.8-0.6c-0.2-0.2-0.3-0.5-0.1-0.7c0.2-0.2,0.5-0.3,0.7-0.1l0.8,0.6
			c0.2,0.2,0.3,0.5,0.1,0.7C1397.1,24,1397,24.1,1396.9,24.1z"/>
		<path fill="#68878E" d="M1389.7,18.9c-0.1,0-0.3,0-0.4-0.1l-0.8-0.6c-0.2-0.2-0.3-0.5-0.1-0.7c0.2-0.2,0.5-0.3,0.7-0.1l0.8,0.6
			c0.2,0.2,0.3,0.5,0.1,0.7C1390,18.8,1389.9,18.9,1389.7,18.9z"/>
	</g>
	<g>
		<path fill="#68878E" d="M223.4,78.1c-0.3-0.1-0.4-0.3-0.4-0.6l0.7-2.9c0.1-0.3,0.3-0.4,0.6-0.4c0.3,0.1,0.4,0.3,0.4,0.6l-0.7,2.9
			C223.9,78,223.6,78.1,223.4,78.1z"/>
		<path fill="#68878E" d="M222,83.9c-0.3-0.1-0.4-0.3-0.4-0.6l0.7-2.9c0.1-0.3,0.3-0.4,0.6-0.4c0.3,0.1,0.4,0.3,0.4,0.6l-0.7,2.9
			C222.6,83.8,222.3,84,222,83.9z"/>
		<path fill="#68878E" d="M227.4,80.5l-2.9-0.7c-0.3-0.1-0.4-0.3-0.4-0.6c0.1-0.3,0.3-0.4,0.6-0.4l2.9,0.7c0.3,0.1,0.4,0.3,0.4,0.6
			C228,80.4,227.7,80.6,227.4,80.5z"/>
		<path fill="#68878E" d="M221.6,79.2l-2.9-0.7c-0.3-0.1-0.4-0.3-0.4-0.6c0.1-0.3,0.3-0.4,0.6-0.4l2.9,0.7c0.3,0.1,0.4,0.3,0.4,0.6
			C222.1,79.1,221.8,79.3,221.6,79.2z"/>
		<path fill="#68878E" d="M226.3,77.4c-0.1,0-0.2-0.1-0.3-0.2c-0.1-0.2-0.1-0.5,0.2-0.7L227,76c0.2-0.1,0.5-0.1,0.7,0.2
			c0.1,0.2,0.1,0.5-0.2,0.7l-0.8,0.5C226.6,77.4,226.5,77.5,226.3,77.4z"/>
		<path fill="#68878E" d="M218.9,82.2c-0.1,0-0.2-0.1-0.3-0.2c-0.1-0.2-0.1-0.5,0.2-0.7l0.8-0.5c0.2-0.1,0.5-0.1,0.7,0.2
			c0.1,0.2,0.1,0.5-0.2,0.7l-0.8,0.5C219.1,82.2,219,82.2,218.9,82.2z"/>
		<path fill="#68878E" d="M225.7,83.7c-0.1,0-0.2-0.1-0.3-0.2l-0.5-0.8c-0.1-0.2-0.1-0.5,0.2-0.7c0.2-0.1,0.5-0.1,0.7,0.2l0.5,0.8
			c0.1,0.2,0.1,0.5-0.2,0.7C225.9,83.7,225.8,83.7,225.7,83.7z"/>
		<path fill="#68878E" d="M220.9,76.2c-0.1,0-0.2-0.1-0.3-0.2l-0.5-0.8c-0.1-0.2-0.1-0.5,0.2-0.7c0.2-0.1,0.5-0.1,0.7,0.2l0.5,0.8
			c0.1,0.2,0.1,0.5-0.2,0.7C221.2,76.2,221.1,76.3,220.9,76.2z"/>
	</g>
	<g>
		<path fill="#68878E" d="M202.6,49.7c-0.1,0-0.2,0-0.3-0.1l-1.2-1c-0.2-0.2-0.2-0.5-0.1-0.7c0.2-0.2,0.5-0.2,0.7-0.1l1.2,1
			c0.2,0.2,0.2,0.5,0.1,0.7C202.9,49.7,202.7,49.7,202.6,49.7z"/>
		<path fill="#68878E" d="M205.1,51.7c-0.1,0-0.2,0-0.3-0.1l-1.2-1c-0.2-0.2-0.2-0.5-0.1-0.7s0.5-0.2,0.7-0.1l1.2,1
			c0.2,0.2,0.2,0.5,0.1,0.7C205.4,51.6,205.2,51.7,205.1,51.7z"/>
		<path fill="#68878E" d="M203.7,49.6c-0.1,0-0.2,0-0.3-0.1c-0.2-0.2-0.2-0.5-0.1-0.7l1-1.2c0.2-0.2,0.5-0.2,0.7-0.1
			c0.2,0.2,0.2,0.5,0.1,0.7l-1,1.2C204,49.5,203.9,49.6,203.7,49.6z"/>
		<path fill="#68878E" d="M201.7,52.1c-0.1,0-0.2,0-0.3-0.1c-0.2-0.2-0.2-0.5-0.1-0.7l1-1.2c0.2-0.2,0.5-0.2,0.7-0.1
			c0.2,0.2,0.2,0.5,0.1,0.7l-1,1.2C202,52,201.9,52.1,201.7,52.1z"/>
		<path fill="#68878E" d="M203.4,51.6c-0.3,0-0.5-0.2-0.5-0.4l-0.1-0.6c0-0.3,0.2-0.5,0.4-0.6c0.3,0,0.5,0.2,0.6,0.4l0.1,0.6
			C203.9,51.4,203.7,51.6,203.4,51.6C203.4,51.6,203.4,51.6,203.4,51.6z"/>
		<path fill="#68878E" d="M203.1,49.4c-0.3,0-0.5-0.2-0.5-0.4l-0.1-0.6c0-0.3,0.2-0.5,0.4-0.6c0.3,0,0.5,0.2,0.6,0.4l0.1,0.6
			C203.7,49.2,203.5,49.4,203.1,49.4C203.2,49.4,203.1,49.4,203.1,49.4z"/>
		<path fill="#68878E" d="M201.8,50.4c-0.3,0-0.5-0.2-0.5-0.4c0-0.3,0.2-0.5,0.4-0.6l0.6-0.1c0.3,0,0.5,0.2,0.6,0.4
			c0,0.3-0.2,0.5-0.4,0.6L201.8,50.4C201.8,50.4,201.8,50.4,201.8,50.4z"/>
		<path fill="#68878E" d="M204,50.1c-0.3,0-0.5-0.2-0.5-0.4c0-0.3,0.2-0.5,0.4-0.6l0.6-0.1c0.3,0,0.5,0.2,0.6,0.4
			c0,0.3-0.2,0.5-0.4,0.6L204,50.1C204,50.1,204,50.1,204,50.1z"/>
	</g>
	<g>
		<path fill="#68878E" d="M1228.3,92.8c-0.2-0.2-0.2-0.5,0-0.7l2.1-2.2c0.2-0.2,0.5-0.2,0.7,0c0.2,0.2,0.2,0.5,0,0.7l-2.1,2.2
			C1228.8,93,1228.5,93,1228.3,92.8z"/>
		<path fill="#68878E" d="M1224.1,97.1c-0.2-0.2-0.2-0.5,0-0.7l2.1-2.2c0.2-0.2,0.5-0.2,0.7,0c0.2,0.2,0.2,0.5,0,0.7l-2.1,2.2
			C1224.7,97.3,1224.3,97.3,1224.1,97.1z"/>
		<path fill="#68878E" d="M1230.5,97l-2.2-2.1c-0.2-0.2-0.2-0.5,0-0.7c0.2-0.2,0.5-0.2,0.7,0l2.2,2.1c0.2,0.2,0.2,0.5,0,0.7
			S1230.7,97.2,1230.5,97z"/>
		<path fill="#68878E" d="M1226.2,92.8l-2.2-2.1c-0.2-0.2-0.2-0.5,0-0.7c0.2-0.2,0.5-0.2,0.7,0l2.2,2.1c0.2,0.2,0.2,0.5,0,0.7
			S1226.4,93,1226.2,92.8z"/>
		<path fill="#68878E" d="M1231.2,93.8c-0.1-0.1-0.2-0.2-0.2-0.3c0-0.3,0.2-0.5,0.5-0.5l1,0c0.3,0,0.5,0.2,0.5,0.5
			c0,0.3-0.2,0.5-0.5,0.5l-1,0C1231.4,93.9,1231.2,93.8,1231.2,93.8z"/>
		<path fill="#68878E" d="M1222.3,94c-0.1-0.1-0.2-0.2-0.2-0.3c0-0.3,0.2-0.5,0.5-0.5l1,0c0.3,0,0.5,0.2,0.5,0.5
			c0,0.3-0.2,0.5-0.5,0.5l-1,0C1222.5,94.1,1222.4,94.1,1222.3,94z"/>
		<path fill="#68878E" d="M1227.4,98.8c-0.1-0.1-0.2-0.2-0.2-0.3l0-1c0-0.3,0.2-0.5,0.5-0.5s0.5,0.2,0.5,0.5l0,1
			c0,0.3-0.2,0.5-0.5,0.5C1227.6,98.9,1227.5,98.9,1227.4,98.8z"/>
		<path fill="#68878E" d="M1227.1,89.9c-0.1-0.1-0.2-0.2-0.2-0.3l0-1c0-0.3,0.2-0.5,0.5-0.5s0.5,0.2,0.5,0.5l0,1
			c0,0.3-0.2,0.5-0.5,0.5C1227.4,90.1,1227.2,90,1227.1,89.9z"/>
	</g>
	<g>
		<path fill="#68878E" d="M1168.5,70.3c0.1,0.3,0,0.5-0.3,0.6l-2.8,1.1c-0.3,0.1-0.5,0-0.6-0.3c-0.1-0.3,0-0.5,0.3-0.6l2.8-1.1
			C1168.1,69.9,1168.4,70,1168.5,70.3z"/>
		<path fill="#68878E" d="M1174.1,68.1c0.1,0.3,0,0.5-0.3,0.6l-2.8,1.1c-0.3,0.1-0.5,0-0.6-0.3c-0.1-0.3,0-0.5,0.3-0.6l2.8-1.1
			C1173.7,67.8,1174,67.9,1174.1,68.1z"/>
		<path fill="#68878E" d="M1168.3,65.5l1.1,2.8c0.1,0.3,0,0.5-0.3,0.6c-0.3,0.1-0.5,0-0.6-0.3l-1.1-2.8c-0.1-0.3,0-0.5,0.3-0.6
			C1167.9,65.2,1168.2,65.3,1168.3,65.5z"/>
		<path fill="#68878E" d="M1170.5,71.1l1.1,2.8c0.1,0.3,0,0.5-0.3,0.6c-0.3,0.1-0.5,0-0.6-0.3l-1.1-2.8c-0.1-0.3,0-0.5,0.3-0.6
			C1170.1,70.8,1170.4,70.9,1170.5,71.1z"/>
		<path fill="#68878E" d="M1166.4,68.1c0,0.1,0,0.3,0,0.4c-0.1,0.3-0.4,0.4-0.7,0.3l-0.9-0.4c-0.3-0.1-0.4-0.4-0.3-0.7
			s0.4-0.4,0.7-0.3l0.9,0.4C1166.2,67.9,1166.3,68,1166.4,68.1z"/>
		<path fill="#68878E" d="M1174.4,71.8c0,0.1,0,0.3,0,0.4c-0.1,0.3-0.4,0.4-0.7,0.3l-0.9-0.4c-0.3-0.1-0.4-0.4-0.3-0.7
			c0.1-0.3,0.4-0.4,0.7-0.3l0.9,0.4C1174.3,71.5,1174.4,71.6,1174.4,71.8z"/>
		<path fill="#68878E" d="M1171.9,65.3c0,0.1,0,0.3,0,0.4l-0.4,0.9c-0.1,0.3-0.4,0.4-0.7,0.3c-0.3-0.1-0.4-0.4-0.3-0.7l0.4-0.9
			c0.1-0.3,0.4-0.4,0.7-0.3C1171.8,65,1171.9,65.1,1171.9,65.3z"/>
		<path fill="#68878E" d="M1168.3,73.3c0,0.1,0,0.3,0,0.4l-0.4,0.9c-0.1,0.3-0.4,0.4-0.7,0.3c-0.3-0.1-0.4-0.4-0.3-0.7l0.4-0.9
			c0.1-0.3,0.4-0.4,0.7-0.3C1168.2,73.1,1168.3,73.2,1168.3,73.3z"/>
	</g>
	<g>
		<path fill="#68878E" d="M5.8,58.5c-0.2,0-0.4-0.1-0.5-0.2l-2.5-4.3c-0.1-0.2-0.1-0.5,0.2-0.7c0.2-0.1,0.5-0.1,0.7,0.2l2.5,4.3
			C6.3,58,6.2,58.3,6,58.4C5.9,58.5,5.9,58.5,5.8,58.5z"/>
		<path fill="#68878E" d="M10.8,67.1c-0.2,0-0.4-0.1-0.5-0.2l-2.5-4.3C7.7,62.3,7.8,62,8,61.9c0.2-0.1,0.5-0.1,0.7,0.2l2.5,4.3
			c0.1,0.2,0.1,0.5-0.2,0.7C10.9,67.1,10.9,67.1,10.8,67.1z"/>
		<path fill="#68878E" d="M9.2,59.4c-0.2,0-0.4-0.1-0.5-0.2c-0.1-0.2-0.1-0.5,0.2-0.7l4.3-2.5c0.2-0.1,0.5-0.1,0.7,0.2
			c0.1,0.2,0.1,0.5-0.2,0.7l-4.3,2.5C9.3,59.4,9.3,59.4,9.2,59.4z"/>
		<path fill="#68878E" d="M0.5,64.4c-0.2,0-0.4-0.1-0.5-0.2c-0.1-0.2-0.1-0.5,0.2-0.7L4.6,61c0.2-0.1,0.5-0.1,0.7,0.2
			c0.1,0.2,0.1,0.5-0.2,0.7l-4.3,2.5C0.7,64.4,0.6,64.4,0.5,64.4z"/>
		<path fill="#68878E" d="M5.9,65c-0.1,0-0.1,0-0.2,0c-0.3-0.1-0.4-0.3-0.4-0.6l0.5-1.9c0.1-0.3,0.3-0.4,0.6-0.4
			c0.3,0.1,0.4,0.3,0.4,0.6l-0.5,1.9C6.3,64.8,6.1,65,5.9,65z"/>
		<path fill="#68878E" d="M7.7,58.2c-0.1,0-0.1,0-0.2,0c-0.3-0.1-0.4-0.3-0.4-0.6l0.5-1.9c0.1-0.3,0.3-0.4,0.6-0.4
			c0.3,0.1,0.4,0.3,0.4,0.6l-0.5,1.9C8.1,58.1,7.9,58.2,7.7,58.2z"/>
		<path fill="#68878E" d="M4.6,60c-0.1,0-0.1,0-0.2,0l-1.9-0.5c-0.3-0.1-0.4-0.3-0.4-0.6c0.1-0.3,0.3-0.4,0.6-0.4L4.7,59
			c0.3,0.1,0.4,0.3,0.4,0.6C5,59.8,4.8,60,4.6,60z"/>
		<path fill="#68878E" d="M11.4,61.8c-0.1,0-0.1,0-0.2,0l-1.9-0.5c-0.3-0.1-0.4-0.3-0.4-0.6c0.1-0.3,0.3-0.4,0.6-0.4l1.9,0.5
			c0.3,0.1,0.4,0.3,0.4,0.6C11.8,61.6,11.6,61.8,11.4,61.8z"/>
	</g>
	<g>
		<path fill="#68878E" d="M392.8,32.9c-0.1,0-0.3,0-0.4-0.1l-2.3-2.1c-0.2-0.2-0.2-0.5,0-0.7c0.2-0.2,0.5-0.2,0.7,0l2.3,2.1
			c0.2,0.2,0.2,0.5,0,0.7C393.1,32.9,393,32.9,392.8,32.9z"/>
		<path fill="#68878E" d="M397.5,37.2c-0.1,0-0.3,0-0.4-0.1l-2.3-2.1c-0.2-0.2-0.2-0.5,0-0.7c0.2-0.2,0.5-0.2,0.7,0l2.3,2.1
			c0.2,0.2,0.2,0.5,0,0.7C397.8,37.1,397.7,37.2,397.5,37.2z"/>
		<path fill="#68878E" d="M395.1,32.8c-0.1,0-0.3,0-0.4-0.1c-0.2-0.2-0.2-0.5,0-0.7l2.1-2.3c0.2-0.2,0.5-0.2,0.7,0
			c0.2,0.2,0.2,0.5,0,0.7l-2.1,2.3C395.3,32.8,395.2,32.8,395.1,32.8z"/>
		<path fill="#68878E" d="M390.8,37.5c-0.1,0-0.3,0-0.4-0.1c-0.2-0.2-0.2-0.5,0-0.7l2.1-2.3c0.2-0.2,0.5-0.2,0.7,0
			c0.2,0.2,0.2,0.5,0,0.7l-2.1,2.3C391.1,37.5,391,37.5,390.8,37.5z"/>
		<path fill="#68878E" d="M394.2,37C394.2,37,394.2,37,394.2,37c-0.3,0-0.5-0.3-0.6-0.6l-0.1-1.3c0-0.3,0.2-0.5,0.5-0.5
			c0.3,0,0.5,0.2,0.5,0.5l0.1,1.4C394.6,36.7,394.4,37,394.2,37z"/>
		<path fill="#68878E" d="M393.9,32C393.9,32,393.9,32,393.9,32c-0.3,0-0.5,0-0.5-0.3l-0.1-1.2c0-0.3,0.2-0.5,0.5-0.5
			c0.3,0,0.5,0.2,0.5,0.5l0,1.1C394.4,32,394.2,32,393.9,32z"/>
		<path fill="#68878E" d="M392.4,34.2C392.4,34.2,392.4,34.2,392.4,34.2l-1.3,0c-0.3,0-0.5-0.2-0.5-0.5c0-0.3,0.2-0.5,0.5-0.5
			l1.3-0.1c0.3,0,0.5,0.2,0.5,0.5C392.9,33.9,392.7,34.2,392.4,34.2z"/>
		<path fill="#68878E" d="M396.9,33.8C396.8,33.8,396.8,33.8,396.9,33.8l-1.3,0.1c-0.3,0-0.5-0.2-0.5-0.5c0-0.3,0.2-0.5,0.5-0.5
			l1.3-0.1c0.3,0,0.5,0.2,0.5,0.4C397.3,33.6,397.1,33.7,396.9,33.8z"/>
	</g>
	<g>
		<path fill="#68878E" d="M91.4,64.5c-0.3,0.1-0.5,0-0.7-0.2l-1.3-2.7c-0.1-0.3,0-0.5,0.2-0.7c0.3-0.1,0.5,0,0.7,0.2l1.3,2.7
			C91.7,64.1,91.6,64.4,91.4,64.5z"/>
		<path fill="#68878E" d="M93.9,69.9c-0.3,0.1-0.5,0-0.7-0.2L92,67c-0.1-0.3,0-0.5,0.2-0.7s0.5,0,0.7,0.2l1.3,2.7
			C94.2,69.5,94.1,69.8,93.9,69.9z"/>
		<path fill="#68878E" d="M96.1,64l-2.7,1.3c-0.3,0.1-0.5,0-0.7-0.2c-0.1-0.3,0-0.5,0.2-0.7l2.7-1.3c0.3-0.1,0.5,0,0.7,0.2
			C96.4,63.6,96.3,63.8,96.1,64z"/>
		<path fill="#68878E" d="M90.6,66.5l-2.7,1.3c-0.3,0.1-0.5,0-0.7-0.2c-0.1-0.3,0-0.5,0.2-0.7l2.7-1.3c0.3-0.1,0.5,0,0.7,0.2
			C91,66.1,90.9,66.4,90.6,66.5z"/>
		<path fill="#68878E" d="M93.3,62.2c-0.1,0.1-0.3,0.1-0.4,0c-0.3-0.1-0.4-0.4-0.3-0.6l0.3-0.9c0.1-0.3,0.4-0.4,0.6-0.3
			c0.3,0.1,0.4,0.4,0.3,0.6l-0.3,0.9C93.5,62,93.4,62.1,93.3,62.2z"/>
		<path fill="#68878E" d="M90.3,70.5c-0.1,0.1-0.3,0.1-0.4,0c-0.3-0.1-0.4-0.4-0.3-0.6l0.3-0.9c0.1-0.3,0.4-0.4,0.6-0.3
			s0.4,0.4,0.3,0.6l-0.3,0.9C90.5,70.3,90.4,70.4,90.3,70.5z"/>
		<path fill="#68878E" d="M96.6,67.5c-0.1,0.1-0.3,0.1-0.4,0l-0.9-0.3c-0.3-0.1-0.4-0.4-0.3-0.6c0.1-0.3,0.4-0.4,0.6-0.3l0.9,0.3
			c0.3,0.1,0.4,0.4,0.3,0.6C96.8,67.4,96.7,67.5,96.6,67.5z"/>
		<path fill="#68878E" d="M88.3,64.5c-0.1,0.1-0.3,0.1-0.4,0L87,64.2c-0.3-0.1-0.4-0.4-0.3-0.6c0.1-0.3,0.4-0.4,0.6-0.3l0.9,0.3
			c0.3,0.1,0.4,0.4,0.3,0.6C88.5,64.4,88.4,64.5,88.3,64.5z"/>
	</g>
	<g>
		<path fill="#68878E" d="M298.4,35.3c0-0.3,0.1-0.5,0.4-0.4l1.5,0.3c0.3,0.1,0.4,0.3,0.4,0.6c0,0.3-0.3,0.4-0.6,0.4l-1.4-0.3
			C298.3,35.8,298.4,35.5,298.4,35.3C298.4,35.3,298.4,35.3,298.4,35.3z"/>
		<path fill="#68878E" d="M301.4,35.8c0-0.3,0.2-0.5,0.5-0.4l1.9,0.3c0.3,0.1,0.7,0.4,0.7,0.6c0,0,0,0,0,0c0,0.3-0.7,0.4-0.9,0.4
			l-1.6-0.3C301.5,36.4,301.4,36.1,301.4,35.8C301.4,35.8,301.4,35.8,301.4,35.8z"/>
		<path fill="#68878E" d="M300.4,33.3c0-0.3,0.5-0.4,0.8-0.4c0.3,0.1,0.5,0.3,0.5,0.6l-0.2,1.6c0,0,0,0,0,0c0,0.3-0.3,0.5-0.5,0.4
			c-0.3-0.1-0.6-0.3-0.6-0.6L300.4,33.3C300.4,33.3,300.4,33.3,300.4,33.3z"/>
		<path fill="#68878E" d="M300.4,36.4c0-0.3,0.2-0.4,0.5-0.4c0.3,0.1,0.1,0.3,0.1,0.6l-0.6,1.6c0,0,0,0,0,0c0,0.3-0.1,0.5-0.3,0.4
			c-0.3-0.1-0.2-0.3-0.2-0.6L300.4,36.4C300.4,36.4,300.4,36.4,300.4,36.4z"/>
		<path fill="#68878E" d="M300.8,36.3c0-0.1,0.1-0.2,0.2-0.3c0.2-0.2,0.5-0.1,0.7,0.1l0.4,0.5c0.2,0.2,0.1,0.5-0.1,0.7
			c-0.2,0.2-0.5,0.1-0.7-0.1l-0.4-0.5C300.8,36.6,300.8,36.4,300.8,36.3z"/>
		<path fill="#68878E" d="M299.5,34.5c0-0.1,0.1-0.2,0.2-0.3c0.2-0.2,0.5-0.1,0.7,0.1l0.4,0.5c0.2,0.2,0.1,0.5-0.1,0.7
			c-0.2,0.2-0.5,0.1-0.7-0.1l-0.4-0.5C299.5,34.7,299.5,34.6,299.5,34.5z"/>
		<path fill="#68878E" d="M299.1,36.5c0-0.1,0.1-0.2,0.2-0.3l0.5-0.4c0.2-0.2,0.5-0.1,0.7,0.1c0.2,0.2,0.1,0.5-0.1,0.7l-0.5,0.4
			c-0.2,0.2-0.5,0.1-0.7-0.1C299.1,36.7,299.1,36.6,299.1,36.5z"/>
		<path fill="#68878E" d="M301,35.2c0-0.1,0.1-0.2,0.2-0.3l0.5-0.4c0.2-0.2,0.5-0.1,0.7,0.1c0.2,0.2,0.1,0.5-0.1,0.7l-0.5,0.4
			c-0.2,0.2-0.5,0.1-0.7-0.1C301,35.5,301,35.3,301,35.2z"/>
	</g>
	<g>
		<path fill="#68878E" d="M310.2,71.1c0.1-0.3,0.4-0.4,0.7-0.3l2.8,1.2c0.3,0.1,0.4,0.4,0.3,0.7s-0.4,0.4-0.7,0.3l-2.8-1.2
			C310.2,71.6,310.1,71.3,310.2,71.1z"/>
		<path fill="#68878E" d="M304.7,68.7c0.1-0.3,0.4-0.4,0.7-0.3l2.8,1.2c0.3,0.1,0.4,0.4,0.3,0.7c-0.1,0.3-0.4,0.4-0.7,0.3l-2.8-1.2
			C304.7,69.2,304.6,68.9,304.7,68.7z"/>
		<path fill="#68878E" d="M307,74.6l1.2-2.8c0.1-0.3,0.4-0.4,0.7-0.3c0.3,0.1,0.4,0.4,0.3,0.7L308,75c-0.1,0.3-0.4,0.4-0.7,0.3
			C307,75.1,306.9,74.8,307,74.6z"/>
		<path fill="#68878E" d="M309.4,69.1l1.2-2.8c0.1-0.3,0.4-0.4,0.7-0.3c0.3,0.1,0.4,0.4,0.3,0.7l-1.2,2.8c-0.1,0.3-0.4,0.4-0.7,0.3
			C309.4,69.6,309.3,69.3,309.4,69.1z"/>
		<path fill="#68878E" d="M310.3,74.1c0.1-0.1,0.1-0.2,0.3-0.3c0.3-0.1,0.5,0,0.6,0.3l0.4,0.9c0.1,0.3,0,0.5-0.3,0.6s-0.5,0-0.6-0.3
			l-0.4-0.9C310.2,74.4,310.2,74.2,310.3,74.1z"/>
		<path fill="#68878E" d="M307,65.9c0.1-0.1,0.1-0.2,0.3-0.3c0.3-0.1,0.5,0,0.6,0.3l0.4,0.9c0.1,0.3,0,0.5-0.3,0.6s-0.5,0-0.6-0.3
			l-0.4-0.9C307,66.1,307,66,307,65.9z"/>
		<path fill="#68878E" d="M304.3,72.3c0.1-0.1,0.1-0.2,0.3-0.3l0.9-0.4c0.3-0.1,0.5,0,0.6,0.3c0.1,0.3,0,0.5-0.3,0.6l-0.9,0.4
			c-0.3,0.1-0.5,0-0.6-0.3C304.2,72.5,304.2,72.4,304.3,72.3z"/>
		<path fill="#68878E" d="M312.5,69c0.1-0.1,0.1-0.2,0.3-0.3l0.9-0.4c0.3-0.1,0.5,0,0.6,0.3s0,0.5-0.3,0.6l-0.9,0.4
			c-0.3,0.1-0.5,0-0.6-0.3C312.4,69.3,312.4,69.1,312.5,69z"/>
	</g>
	<g>
		<path fill="#68878E" d="M341.9,56c0-0.1,0.1-0.2,0.2-0.3l1.2-1c0.2-0.2,0.5-0.2,0.7,0.1c0.2,0.2,0.2,0.5-0.1,0.7l-1.2,1
			c-0.2,0.2-0.5,0.2-0.7-0.1C342,56.3,341.9,56.1,341.9,56z"/>
		<path fill="#68878E" d="M339.5,58c0-0.1,0.1-0.2,0.2-0.3l1.2-1c0.2-0.2,0.5-0.2,0.7,0.1c0.2,0.2,0.2,0.5-0.1,0.7l-1.2,1
			c-0.2,0.2-0.5,0.2-0.7-0.1C339.5,58.3,339.5,58.2,339.5,58z"/>
		<path fill="#68878E" d="M341.9,57.1c0-0.1,0.1-0.2,0.2-0.3c0.2-0.2,0.5-0.2,0.7,0.1l1,1.2c0.2,0.2,0.2,0.5-0.1,0.7
			c-0.2,0.2-0.5,0.2-0.7-0.1l-1-1.2C341.9,57.4,341.8,57.2,341.9,57.1z"/>
		<path fill="#68878E" d="M339.8,54.7c0-0.1,0.1-0.2,0.2-0.3c0.2-0.2,0.5-0.2,0.7,0.1l1,1.2c0.2,0.2,0.2,0.5-0.1,0.7
			c-0.2,0.2-0.5,0.2-0.7-0.1l-1-1.2C339.8,55,339.8,54.8,339.8,54.7z"/>
		<path fill="#68878E" d="M339.9,56.4c0-0.2,0.3-0.4,0.5-0.4l0.6,0.1c0.3,0,0.5,0.3,0.5,0.5c0,0.3-0.3,0.5-0.5,0.5l-0.6-0.1
			C340.1,56.9,339.9,56.7,339.9,56.4C339.9,56.4,339.9,56.4,339.9,56.4z"/>
		<path fill="#68878E" d="M342.1,56.6c0-0.2,0.3-0.4,0.5-0.4l0.6,0.1c0.3,0,0.5,0.3,0.5,0.5c0,0.3-0.3,0.5-0.5,0.5l-0.6-0.1
			C342.3,57.1,342.1,56.9,342.1,56.6C342.1,56.6,342.1,56.6,342.1,56.6z"/>
		<path fill="#68878E" d="M341.5,55.1c0-0.2,0.3-0.4,0.5-0.4c0.3,0,0.5,0.3,0.5,0.5l-0.1,0.6c0,0.3-0.3,0.5-0.5,0.5
			c-0.3,0-0.5-0.3-0.5-0.5L341.5,55.1C341.4,55.1,341.5,55.1,341.5,55.1z"/>
		<path fill="#68878E" d="M341.3,57.3c0-0.2,0.3-0.4,0.5-0.4c0.3,0,0.5,0.3,0.5,0.5l-0.1,0.6c0,0.3-0.3,0.5-0.5,0.5
			c-0.3,0-0.5-0.3-0.5-0.5L341.3,57.3C341.3,57.3,341.3,57.3,341.3,57.3z"/>
	</g>
	<g>
		<path fill="#68878E" d="M255.4,15.1c0-0.1,0.1-0.2,0.1-0.3l1.1-1.1c0.2-0.2,0.5-0.2,0.7,0c0.2,0.2,0.2,0.5,0,0.7l-1.1,1.1
			c-0.2,0.2-0.5,0.2-0.7,0C255.4,15.4,255.4,15.2,255.4,15.1z"/>
		<path fill="#68878E" d="M253.1,17.4c0-0.1,0.1-0.2,0.1-0.3l1.1-1.1c0.2-0.2,0.5-0.2,0.7,0c0.2,0.2,0.2,0.5,0,0.7l-1.1,1.1
			c-0.2,0.2-0.5,0.2-0.7,0C253.2,17.7,253.1,17.5,253.1,17.4z"/>
		<path fill="#68878E" d="M255.4,16.2c0-0.1,0.1-0.2,0.1-0.3c0.2-0.2,0.5-0.2,0.7,0l1.1,1.1c0.2,0.2,0.2,0.5,0,0.7
			c-0.2,0.2-0.5,0.2-0.7,0l-1.1-1.1C255.4,16.5,255.4,16.4,255.4,16.2z"/>
		<path fill="#68878E" d="M253.1,14c0-0.1,0.1-0.2,0.1-0.3c0.2-0.2,0.5-0.2,0.7,0l1.1,1.1c0.2,0.2,0.2,0.5,0,0.7
			c-0.2,0.2-0.5,0.2-0.7,0l-1.1-1.1C253.1,14.3,253.1,14.1,253.1,14z"/>
		<path fill="#68878E" d="M253.4,15.7c0-0.3,0.2-0.4,0.5-0.5l0.6,0c0.3,0,0.5,0.2,0.5,0.5c0,0.3-0.2,0.5-0.5,0.5l-0.6,0
			C253.6,16.2,253.4,16,253.4,15.7C253.4,15.7,253.4,15.7,253.4,15.7z"/>
		<path fill="#68878E" d="M255.6,15.7c0-0.3,0.2-0.4,0.5-0.5l0.6,0c0.3,0,0.5,0.2,0.5,0.5c0,0.3-0.2,0.5-0.5,0.5l-0.6,0
			C255.8,16.2,255.6,16,255.6,15.7C255.6,15.7,255.6,15.7,255.6,15.7z"/>
		<path fill="#68878E" d="M254.8,14.2c0-0.3,0.2-0.4,0.5-0.5c0.3,0,0.5,0.2,0.5,0.5l0,0.6c0,0.3-0.2,0.5-0.5,0.5
			c-0.3,0-0.5-0.2-0.5-0.5L254.8,14.2C254.8,14.3,254.8,14.3,254.8,14.2z"/>
		<path fill="#68878E" d="M254.8,16.5c0-0.3,0.2-0.4,0.5-0.5c0.3,0,0.5,0.2,0.5,0.5l0,0.6c0,0.3-0.2,0.5-0.5,0.5
			c-0.3,0-0.5-0.2-0.5-0.5L254.8,16.5C254.8,16.5,254.8,16.5,254.8,16.5z"/>
	</g>
	<g>
		<path fill="#68878E" d="M48.5,111.8c0.3,0,0.5,0.2,0.5,0.5l0,3c0,0.3-0.2,0.5-0.5,0.5c-0.3,0-0.5-0.2-0.5-0.5l0-3
			C48,112,48.2,111.8,48.5,111.8z"/>
		<path fill="#68878E" d="M48.6,105.8c0.3,0,0.5,0.2,0.5,0.5l0,3c0,0.3-0.2,0.5-0.5,0.5c-0.3,0-0.5-0.2-0.5-0.5l0-3
			C48.1,106,48.3,105.8,48.6,105.8z"/>
		<path fill="#68878E" d="M44,110.3l3,0c0.3,0,0.5,0.2,0.5,0.5c0,0.3-0.2,0.5-0.5,0.5l-3,0c-0.3,0-0.5-0.2-0.5-0.5
			C43.5,110.5,43.8,110.3,44,110.3z"/>
		<path fill="#68878E" d="M50,110.3l3,0c0.3,0,0.5,0.2,0.5,0.5c0,0.3-0.2,0.5-0.5,0.5l-3,0c-0.3,0-0.5-0.2-0.5-0.5
			C49.5,110.6,49.8,110.3,50,110.3z"/>
		<path fill="#68878E" d="M45.7,113.1c0.1,0,0.3,0.1,0.4,0.2c0.2,0.2,0.2,0.5,0,0.7l-0.7,0.7c-0.2,0.2-0.5,0.2-0.7,0
			c-0.2-0.2-0.2-0.5,0-0.7l0.7-0.7C45.5,113.1,45.6,113.1,45.7,113.1z"/>
		<path fill="#68878E" d="M52,106.9c0.1,0,0.3,0.1,0.4,0.2c0.2,0.2,0.2,0.5,0,0.7l-0.7,0.7c-0.2,0.2-0.5,0.2-0.7,0
			c-0.2-0.2-0.2-0.5,0-0.7l0.7-0.7C51.8,106.9,51.9,106.9,52,106.9z"/>
		<path fill="#68878E" d="M45.1,106.8c0.1,0,0.3,0.1,0.4,0.2l0.7,0.7c0.2,0.2,0.2,0.5,0,0.7c-0.2,0.2-0.5,0.2-0.7,0l-0.7-0.7
			c-0.2-0.2-0.2-0.5,0-0.7C44.8,106.9,45,106.8,45.1,106.8z"/>
		<path fill="#68878E" d="M51.3,113.1c0.1,0,0.3,0.1,0.4,0.2l0.7,0.7c0.2,0.2,0.2,0.5,0,0.7c-0.2,0.2-0.5,0.2-0.7,0l-0.7-0.7
			c-0.2-0.2-0.2-0.5,0-0.7C51,113.2,51.1,113.1,51.3,113.1z"/>
	</g>
	<g>
		<path fill="#68878E" d="M333.5,112.6c0.1,0.2,0,0.5-0.2,0.7l-2.7,1.3c-0.2,0.1-0.5,0-0.7-0.2s0-0.5,0.2-0.7l2.7-1.3
			C333.1,112.3,333.4,112.4,333.5,112.6z"/>
		<path fill="#68878E" d="M338.9,110c0.1,0.2,0,0.5-0.2,0.7L336,112c-0.2,0.1-0.5,0-0.7-0.2c-0.1-0.2,0-0.5,0.2-0.7l2.7-1.3
			C338.5,109.7,338.8,109.8,338.9,110z"/>
		<path fill="#68878E" d="M332.9,107.9l1.3,2.7c0.1,0.2,0,0.5-0.2,0.7c-0.2,0.1-0.5,0-0.7-0.2l-1.3-2.7c-0.1-0.2,0-0.5,0.2-0.7
			C332.5,107.6,332.8,107.7,332.9,107.9z"/>
		<path fill="#68878E" d="M335.5,113.3l1.3,2.7c0.1,0.2,0,0.5-0.2,0.7c-0.2,0.1-0.5,0-0.7-0.2l-1.3-2.7c-0.1-0.2,0-0.5,0.2-0.7
			C335.1,113,335.4,113.1,335.5,113.3z"/>
		<path fill="#68878E" d="M331.2,110.7c0.1,0.1,0.1,0.3,0,0.4c-0.1,0.3-0.4,0.4-0.6,0.3l-0.9-0.3c-0.3-0.1-0.4-0.4-0.3-0.6
			c0.1-0.3,0.4-0.4,0.6-0.3l0.9,0.3C331,110.5,331.1,110.6,331.2,110.7z"/>
		<path fill="#68878E" d="M339.5,113.6c0.1,0.1,0.1,0.3,0,0.4c-0.1,0.3-0.4,0.4-0.6,0.3l-0.9-0.3c-0.3-0.1-0.4-0.4-0.3-0.6
			c0.1-0.3,0.4-0.4,0.6-0.3l0.9,0.3C339.4,113.4,339.5,113.5,339.5,113.6z"/>
		<path fill="#68878E" d="M336.5,107.3c0.1,0.1,0.1,0.3,0,0.4l-0.3,0.9c-0.1,0.3-0.4,0.4-0.6,0.3c-0.3-0.1-0.4-0.4-0.3-0.6l0.3-0.9
			c0.1-0.3,0.4-0.4,0.6-0.3C336.3,107.1,336.4,107.2,336.5,107.3z"/>
		<path fill="#68878E" d="M333.6,115.7c0.1,0.1,0.1,0.3,0,0.4l-0.3,0.9c-0.1,0.3-0.4,0.4-0.6,0.3c-0.3-0.1-0.4-0.4-0.3-0.6l0.3-0.9
			c0.1-0.3,0.4-0.4,0.6-0.3C333.4,115.5,333.5,115.6,333.6,115.7z"/>
	</g>
	<g>
		<path fill="#68878E" d="M24,151.2c0.3,0,0.5,0.2,0.5,0.5l0,3c0,0.3-0.2,0.5-0.5,0.5s-0.5-0.2-0.5-0.5l0-3
			C23.5,151.5,23.7,151.2,24,151.2z"/>
		<path fill="#68878E" d="M24.1,145.2c0.3,0,0.5,0.2,0.5,0.5l0,3c0,0.3-0.2,0.5-0.5,0.5c-0.3,0-0.5-0.2-0.5-0.5l0-3
			C23.6,145.5,23.8,145.2,24.1,145.2z"/>
		<path fill="#68878E" d="M19.5,149.7l3,0c0.3,0,0.5,0.2,0.5,0.5c0,0.3-0.2,0.5-0.5,0.5l-3,0c-0.3,0-0.5-0.2-0.5-0.5
			S19.3,149.7,19.5,149.7z"/>
		<path fill="#68878E" d="M25.5,149.8l3,0c0.3,0,0.5,0.2,0.5,0.5c0,0.3-0.2,0.5-0.5,0.5l-3,0c-0.3,0-0.5-0.2-0.5-0.5
			C25,150,25.3,149.8,25.5,149.8z"/>
		<path fill="#68878E" d="M21.2,152.5c0.1,0,0.3,0.1,0.4,0.2c0.2,0.2,0.2,0.5,0,0.7l-0.7,0.7c-0.2,0.2-0.5,0.2-0.7,0s-0.2-0.5,0-0.7
			l0.7-0.7C21,152.5,21.1,152.5,21.2,152.5z"/>
		<path fill="#68878E" d="M27.6,146.3c0.1,0,0.3,0.1,0.4,0.2c0.2,0.2,0.2,0.5,0,0.7l-0.7,0.7c-0.2,0.2-0.5,0.2-0.7,0
			c-0.2-0.2-0.2-0.5,0-0.7l0.7-0.7C27.3,146.4,27.4,146.3,27.6,146.3z"/>
		<path fill="#68878E" d="M20.6,146.2c0.1,0,0.3,0.1,0.4,0.2l0.7,0.7c0.2,0.2,0.2,0.5,0,0.7s-0.5,0.2-0.7,0l-0.7-0.7
			c-0.2-0.2-0.2-0.5,0-0.7C20.4,146.3,20.5,146.2,20.6,146.2z"/>
		<path fill="#68878E" d="M26.8,152.5c0.1,0,0.3,0.1,0.4,0.2l0.7,0.7c0.2,0.2,0.2,0.5,0,0.7c-0.2,0.2-0.5,0.2-0.7,0l-0.7-0.7
			c-0.2-0.2-0.2-0.5,0-0.7C26.5,152.6,26.7,152.5,26.8,152.5z"/>
	</g>
	<g>
		<path fill="#68878E" d="M208,61.2c0.1-0.1,0.3-0.2,0.5-0.2l4.9,1.1c0.3,0.1,0.4,0.3,0.4,0.6c-0.1,0.3-0.3,0.4-0.6,0.4l-4.9-1.1
			c-0.3-0.1-0.4-0.3-0.4-0.6C207.9,61.3,207.9,61.2,208,61.2z"/>
		<path fill="#68878E" d="M198.2,58.9c0.1-0.1,0.3-0.2,0.5-0.2l4.9,1.1c0.3,0.1,0.4,0.3,0.4,0.6c-0.1,0.3-0.3,0.4-0.6,0.4l-4.9-1.1
			c-0.3-0.1-0.4-0.3-0.4-0.6C198.2,59,198.2,59,198.2,58.9z"/>
		<path fill="#68878E" d="M205,63c0.1-0.1,0.3-0.2,0.5-0.2c0.3,0.1,0.4,0.3,0.4,0.6l-1.1,4.9c-0.1,0.3-0.3,0.4-0.6,0.4
			c-0.3-0.1-0.4-0.3-0.4-0.6l1.1-4.9C204.9,63.2,204.9,63.1,205,63z"/>
		<path fill="#68878E" d="M207.2,53.3c0.1-0.1,0.3-0.2,0.5-0.2c0.3,0.1,0.4,0.3,0.4,0.6l-1.1,4.9c-0.1,0.3-0.3,0.4-0.6,0.4
			c-0.3-0.1-0.4-0.3-0.4-0.6l1.1-4.9C207.1,53.4,207.2,53.4,207.2,53.3z"/>
		<path fill="#68878E" d="M203.1,56.8c0,0,0.1-0.1,0.1-0.1c0.2-0.1,0.5-0.1,0.7,0.2l1.1,1.7c0.1,0.2,0.1,0.5-0.2,0.7
			c-0.2,0.1-0.5,0.1-0.7-0.2l-1.1-1.7C203,57.2,203,57,203.1,56.8z"/>
		<path fill="#68878E" d="M206.9,62.7c0,0,0.1-0.1,0.1-0.1c0.2-0.1,0.5-0.1,0.7,0.2l1.1,1.7c0.1,0.2,0.1,0.5-0.2,0.7
			c-0.2,0.1-0.5,0.1-0.7-0.2l-1.1-1.7C206.7,63.1,206.7,62.9,206.9,62.7z"/>
		<path fill="#68878E" d="M207.7,59.3c0,0,0.1-0.1,0.1-0.1l1.7-1.1c0.2-0.1,0.5-0.1,0.7,0.2c0.1,0.2,0.1,0.5-0.2,0.7l-1.7,1.1
			c-0.2,0.1-0.5,0.1-0.7-0.2C207.5,59.7,207.5,59.4,207.7,59.3z"/>
		<path fill="#68878E" d="M201.7,63c0,0,0.1-0.1,0.1-0.1l1.7-1.1c0.2-0.1,0.5-0.1,0.7,0.2c0.1,0.2,0.1,0.5-0.2,0.7l-1.7,1.1
			c-0.2,0.1-0.5,0.1-0.7-0.2C201.6,63.4,201.6,63.2,201.7,63z"/>
	</g>
	<g>
		<path fill="#68878E" d="M155.2,130.7c0.1-0.3,0.4-0.4,0.6-0.3l2.9,0.9c0.3,0.1,0.4,0.4,0.3,0.6s-0.4,0.4-0.6,0.3l-2.9-0.9
			C155.3,131.2,155.1,130.9,155.2,130.7z"/>
		<path fill="#68878E" d="M149.5,128.8c0.1-0.3,0.4-0.4,0.6-0.3l2.9,0.9c0.3,0.1,0.4,0.4,0.3,0.6s-0.4,0.4-0.6,0.3l-2.9-0.9
			C149.6,129.3,149.4,129.1,149.5,128.8z"/>
		<path fill="#68878E" d="M152.4,134.5l0.9-2.9c0.1-0.3,0.4-0.4,0.6-0.3s0.4,0.4,0.3,0.6l-0.9,2.9c-0.1,0.3-0.4,0.4-0.6,0.3
			S152.3,134.7,152.4,134.5z"/>
		<path fill="#68878E" d="M154.3,128.8l0.9-2.9c0.1-0.3,0.4-0.4,0.6-0.3c0.3,0.1,0.4,0.4,0.3,0.6l-0.9,2.9c-0.1,0.3-0.4,0.4-0.6,0.3
			S154.2,129,154.3,128.8z"/>
		<path fill="#68878E" d="M155.6,133.7c0-0.1,0.1-0.2,0.2-0.3c0.2-0.1,0.5,0,0.7,0.2l0.5,0.9c0.1,0.2,0,0.5-0.2,0.7s-0.5,0-0.7-0.2
			l-0.5-0.9C155.5,133.9,155.5,133.8,155.6,133.7z"/>
		<path fill="#68878E" d="M151.6,125.8c0-0.1,0.1-0.2,0.2-0.3c0.2-0.1,0.5,0,0.7,0.2l0.5,0.9c0.1,0.2,0,0.5-0.2,0.7s-0.5,0-0.7-0.2
			l-0.5-0.9C151.6,126.1,151.5,125.9,151.6,125.8z"/>
		<path fill="#68878E" d="M149.4,132.4c0-0.1,0.1-0.2,0.2-0.3l0.9-0.5c0.2-0.1,0.5,0,0.7,0.2s0,0.5-0.2,0.7l-0.9,0.5
			c-0.2,0.1-0.5,0-0.7-0.2C149.4,132.7,149.4,132.5,149.4,132.4z"/>
		<path fill="#68878E" d="M157.3,128.4c0-0.1,0.1-0.2,0.2-0.3l0.9-0.5c0.2-0.1,0.5,0,0.7,0.2s0,0.5-0.2,0.7L158,129
			c-0.2,0.1-0.5,0-0.7-0.2C157.3,128.7,157.3,128.5,157.3,128.4z"/>
	</g>
	<g>
		<path fill="#68878E" d="M139.8,56c-0.2,0.2-0.5,0.2-0.7,0l-2.2-2.1c-0.2-0.2-0.2-0.5,0-0.7c0.2-0.2,0.5-0.2,0.7,0l2.2,2.1
			C140,55.5,140,55.8,139.8,56z"/>
		<path fill="#68878E" d="M144.2,60.2c-0.2,0.2-0.5,0.2-0.7,0l-2.2-2.1c-0.2-0.2-0.2-0.5,0-0.7c0.2-0.2,0.5-0.2,0.7,0l2.2,2.1
			C144.3,59.7,144.4,60,144.2,60.2z"/>
		<path fill="#68878E" d="M144,53.8l-2.1,2.2c-0.2,0.2-0.5,0.2-0.7,0c-0.2-0.2-0.2-0.5,0-0.7l2.1-2.2c0.2-0.2,0.5-0.2,0.7,0
			C144.2,53.3,144.2,53.6,144,53.8z"/>
		<path fill="#68878E" d="M139.9,58.2l-2.1,2.2c-0.2,0.2-0.5,0.2-0.7,0c-0.2-0.2-0.2-0.5,0-0.7l2.1-2.2c0.2-0.2,0.5-0.2,0.7,0
			C140.1,57.7,140.1,58,139.9,58.2z"/>
		<path fill="#68878E" d="M140.8,53.2c-0.1,0.1-0.2,0.2-0.3,0.2c-0.3,0-0.5-0.2-0.5-0.5l0-1c0-0.3,0.2-0.5,0.5-0.5s0.5,0.2,0.5,0.5
			l0,1C141,53,140.9,53.1,140.8,53.2z"/>
		<path fill="#68878E" d="M141,62c-0.1,0.1-0.2,0.2-0.3,0.2c-0.3,0-0.5-0.2-0.5-0.5l0-1c0-0.3,0.2-0.5,0.5-0.5
			c0.3,0,0.5,0.2,0.5,0.5l0,1C141.2,61.8,141.1,61.9,141,62z"/>
		<path fill="#68878E" d="M145.8,57c-0.1,0.1-0.2,0.2-0.3,0.2l-1,0c-0.3,0-0.5-0.2-0.5-0.5c0-0.3,0.2-0.5,0.5-0.5l1,0
			c0.3,0,0.5,0.2,0.5,0.5C146,56.7,145.9,56.9,145.8,57z"/>
		<path fill="#68878E" d="M137,57.2c-0.1,0.1-0.2,0.2-0.3,0.2l-1,0c-0.3,0-0.5-0.2-0.5-0.5c0-0.3,0.2-0.5,0.5-0.5l1,0
			c0.3,0,0.5,0.2,0.5,0.5C137.1,57,137.1,57.1,137,57.2z"/>
	</g>
	<g>
		<path fill="#68878E" d="M127.7,11.3c-0.2,0.2-0.5,0.2-0.7,0l-2.2-2.1c-0.2-0.2-0.2-0.5,0-0.7s0.5-0.2,0.7,0l2.2,2.1
			C127.9,10.7,127.9,11.1,127.7,11.3z"/>
		<path fill="#68878E" d="M132,15.4c-0.2,0.2-0.5,0.2-0.7,0l-2.2-2.1c-0.2-0.2-0.2-0.5,0-0.7c0.2-0.2,0.5-0.2,0.7,0l2.2,2.1
			C132.2,14.9,132.2,15.2,132,15.4z"/>
		<path fill="#68878E" d="M131.9,9l-2.1,2.2c-0.2,0.2-0.5,0.2-0.7,0s-0.2-0.5,0-0.7l2.1-2.2c0.2-0.2,0.5-0.2,0.7,0
			C132.1,8.5,132.1,8.8,131.9,9z"/>
		<path fill="#68878E" d="M127.7,13.4l-2.1,2.2c-0.2,0.2-0.5,0.2-0.7,0c-0.2-0.2-0.2-0.5,0-0.7l2.1-2.2c0.2-0.2,0.5-0.2,0.7,0
			C127.9,12.9,127.9,13.2,127.7,13.4z"/>
		<path fill="#68878E" d="M128.7,8.4c-0.1,0.1-0.2,0.2-0.3,0.2c-0.3,0-0.5-0.2-0.5-0.5l0-1c0-0.3,0.2-0.5,0.5-0.5
			c0.3,0,0.5,0.2,0.5,0.5l0,1C128.8,8.2,128.8,8.3,128.7,8.4z"/>
		<path fill="#68878E" d="M128.9,17.2c-0.1,0.1-0.2,0.2-0.3,0.2c-0.3,0-0.5-0.2-0.5-0.5l0-1c0-0.3,0.2-0.5,0.5-0.5
			c0.3,0,0.5,0.2,0.5,0.5l0,1C129,17,129,17.1,128.9,17.2z"/>
		<path fill="#68878E" d="M133.7,12.2c-0.1,0.1-0.2,0.2-0.3,0.2l-1,0c-0.3,0-0.5-0.2-0.5-0.5s0.2-0.5,0.5-0.5l1,0
			c0.3,0,0.5,0.2,0.5,0.5C133.8,12,133.8,12.1,133.7,12.2z"/>
		<path fill="#68878E" d="M124.9,12.4c-0.1,0.1-0.2,0.2-0.3,0.2l-1,0c-0.3,0-0.5-0.2-0.5-0.5s0.2-0.5,0.5-0.5l1,0
			c0.3,0,0.5,0.2,0.5,0.5C125,12.2,124.9,12.3,124.9,12.4z"/>
	</g>
	<g>
		<path fill="#68878E" d="M511.9,68c0.2-0.1,0.5,0,0.7,0.2l1.4,2.7c0.1,0.2,0,0.5-0.2,0.7s-0.5,0-0.7-0.2l-1.4-2.7
			C511.6,68.5,511.7,68.2,511.9,68z"/>
		<path fill="#68878E" d="M509.2,62.7c0.2-0.1,0.5,0,0.7,0.2l1.4,2.7c0.1,0.2,0,0.5-0.2,0.7c-0.2,0.1-0.5,0-0.7-0.2l-1.4-2.7
			C508.8,63.2,508.9,62.9,509.2,62.7z"/>
		<path fill="#68878E" d="M507.3,68.8l2.7-1.4c0.2-0.1,0.5,0,0.7,0.2c0.1,0.2,0,0.5-0.2,0.7l-2.7,1.4c-0.2,0.1-0.5,0-0.7-0.2
			C506.9,69.2,507,68.9,507.3,68.8z"/>
		<path fill="#68878E" d="M512.6,66l2.7-1.4c0.2-0.1,0.5,0,0.7,0.2c0.1,0.2,0,0.5-0.2,0.7l-2.7,1.4c-0.2,0.1-0.5,0-0.7-0.2
			C512.2,66.5,512.3,66.2,512.6,66z"/>
		<path fill="#68878E" d="M510.1,70.5c0.1-0.1,0.2-0.1,0.4,0c0.3,0.1,0.4,0.4,0.3,0.6l-0.3,1c-0.1,0.3-0.4,0.4-0.6,0.3
			c-0.3-0.1-0.4-0.4-0.3-0.6l0.3-1C509.9,70.6,510,70.5,510.1,70.5z"/>
		<path fill="#68878E" d="M512.7,62c0.1-0.1,0.2-0.1,0.4,0c0.3,0.1,0.4,0.4,0.3,0.6l-0.3,1c-0.1,0.3-0.4,0.4-0.6,0.3
			s-0.4-0.4-0.3-0.6l0.3-1C512.5,62.2,512.6,62.1,512.7,62z"/>
		<path fill="#68878E" d="M506.5,65.2c0.1-0.1,0.2-0.1,0.4,0l1,0.3c0.3,0.1,0.4,0.4,0.3,0.6s-0.4,0.4-0.6,0.3l-1-0.3
			c-0.3-0.1-0.4-0.4-0.3-0.6C506.3,65.4,506.4,65.3,506.5,65.2z"/>
		<path fill="#68878E" d="M515,67.9c0.1-0.1,0.2-0.1,0.4,0l1,0.3c0.3,0.1,0.4,0.4,0.3,0.6c-0.1,0.3-0.4,0.4-0.6,0.3l-1-0.3
			c-0.3-0.1-0.4-0.4-0.3-0.6C514.8,68.1,514.9,67.9,515,67.9z"/>
	</g>
	<g>
		<path fill="#68878E" d="M1248.7,4c-0.1-0.1-0.1-0.2-0.1-0.4l0.4-3.1c0-0.3,0.3-0.5,0.6-0.4c0.3,0,0.5,0.3,0.4,0.6l-0.4,3.1
			c0,0.3-0.3,0.5-0.6,0.4C1248.9,4.1,1248.8,4.1,1248.7,4z"/>
		<path fill="#68878E" d="M1247.9,10.2c-0.1-0.1-0.1-0.2-0.1-0.4l0.4-3.1c0-0.3,0.3-0.5,0.6-0.4c0.3,0,0.5,0.3,0.4,0.6l-0.4,3.1
			c0,0.3-0.3,0.5-0.6,0.4C1248.1,10.4,1248,10.3,1247.9,10.2z"/>
		<path fill="#68878E" d="M1250.1,5.7c-0.1-0.1-0.1-0.2-0.1-0.4c0-0.3,0.3-0.5,0.6-0.4l3.1,0.4c0.3,0,0.5,0.3,0.4,0.6
			c0,0.3-0.3,0.5-0.6,0.4l-3.1-0.4C1250.3,5.9,1250.2,5.8,1250.1,5.7z"/>
		<path fill="#68878E" d="M1243.8,4.9c-0.1-0.1-0.1-0.2-0.1-0.4c0-0.3,0.3-0.5,0.6-0.4l3.1,0.4c0.3,0,0.5,0.3,0.4,0.6
			c0,0.3-0.3,0.5-0.6,0.4l-3.1-0.4C1244,5.1,1243.9,5,1243.8,4.9z"/>
		<path fill="#68878E" d="M1246.1,7.4C1246.1,7.4,1246.1,7.4,1246.1,7.4c-0.2-0.2-0.1-0.6,0.1-0.8l1-0.8c0.2-0.2,0.6-0.1,0.7,0.1
			c0.2,0.2,0.1,0.5-0.1,0.7l-1.1,0.8C1246.7,7.6,1246.3,7.6,1246.1,7.4z"/>
		<path fill="#68878E" d="M1250.1,4.3C1250.1,4.3,1250.1,4.3,1250.1,4.3c-0.2-0.2-0.3-0.4-0.1-0.6l0.9-0.7c0.2-0.2,0.5-0.1,0.7,0.1
			c0.2,0.2,0.1,0.5-0.1,0.7l-0.9,0.7C1250.4,4.7,1250.2,4.5,1250.1,4.3z"/>
		<path fill="#68878E" d="M1247.5,4.3C1247.5,4.3,1247.5,4.3,1247.5,4.3l-0.7-1c-0.2-0.2-0.1-0.5,0.1-0.7c0.2-0.2,0.6-0.1,0.7,0.1
			l0.8,1c0.2,0.2,0.1,0.6-0.1,0.7C1248,4.5,1247.6,4.5,1247.5,4.3z"/>
		<path fill="#68878E" d="M1250.3,7.7C1250.3,7.7,1250.3,7.7,1250.3,7.7l-0.8-1c-0.2-0.2-0.1-0.5,0.1-0.7c0.2-0.2,0.5-0.1,0.7,0.1
			l0.8,1c0.2,0.2,0.2,0.5-0.1,0.7C1250.8,8,1250.5,7.9,1250.3,7.7z"/>
	</g>
	<g>
		<path fill="#68878E" d="M1287.5,121.9c0.2,0.1,0.3,0.4,0.2,0.7l-1.4,2.7c-0.1,0.2-0.4,0.3-0.7,0.2c-0.2-0.1-0.3-0.4-0.2-0.7
			l1.4-2.7C1287,121.9,1287.3,121.8,1287.5,121.9z"/>
		<path fill="#68878E" d="M1290.3,116.6c0.2,0.1,0.3,0.4,0.2,0.7l-1.4,2.7c-0.1,0.2-0.4,0.3-0.7,0.2c-0.2-0.1-0.3-0.4-0.2-0.7
			l1.4-2.7C1289.8,116.5,1290.1,116.5,1290.3,116.6z"/>
		<path fill="#68878E" d="M1284.3,118.5l2.7,1.4c0.2,0.1,0.3,0.4,0.2,0.7s-0.4,0.3-0.7,0.2l-2.7-1.4c-0.2-0.1-0.3-0.4-0.2-0.7
			S1284,118.3,1284.3,118.5z"/>
		<path fill="#68878E" d="M1289.6,121.3l2.7,1.4c0.2,0.1,0.3,0.4,0.2,0.7c-0.1,0.2-0.4,0.3-0.7,0.2l-2.7-1.4
			c-0.2-0.1-0.3-0.4-0.2-0.7C1289,121.2,1289.3,121.1,1289.6,121.3z"/>
		<path fill="#68878E" d="M1284.5,121.7c0.1,0.1,0.2,0.2,0.2,0.3c0.1,0.3-0.1,0.5-0.3,0.6l-1,0.3c-0.3,0.1-0.5-0.1-0.6-0.3
			c-0.1-0.3,0.1-0.5,0.3-0.6l1-0.3C1284.3,121.6,1284.4,121.7,1284.5,121.7z"/>
		<path fill="#68878E" d="M1292.9,119.1c0.1,0.1,0.2,0.2,0.2,0.3c0.1,0.3-0.1,0.5-0.3,0.6l-1,0.3c-0.3,0.1-0.5-0.1-0.6-0.3
			c-0.1-0.3,0.1-0.5,0.3-0.6l1-0.3C1292.7,119,1292.8,119,1292.9,119.1z"/>
		<path fill="#68878E" d="M1286.8,115.9c0.1,0.1,0.2,0.2,0.2,0.3l0.3,1c0.1,0.3-0.1,0.5-0.3,0.6s-0.5-0.1-0.6-0.3l-0.3-1
			c-0.1-0.3,0.1-0.5,0.3-0.6C1286.5,115.8,1286.7,115.8,1286.8,115.9z"/>
		<path fill="#68878E" d="M1289.4,124.3c0.1,0.1,0.2,0.2,0.2,0.3l0.3,1c0.1,0.3-0.1,0.5-0.3,0.6c-0.3,0.1-0.5-0.1-0.6-0.3l-0.3-1
			c-0.1-0.3,0.1-0.5,0.3-0.6C1289.2,124.2,1289.3,124.2,1289.4,124.3z"/>
	</g>
</g>
<g id="Layer_1">
</g>
</svg>
