<?xml version="1.0" encoding="utf-8"?>
<!-- Generator: Adobe Illustrator 18.1.1, SVG Export Plug-In . SVG Version: 6.00 Build 0)  -->
<svg version="1.1" baseProfile="tiny" id="Layer_1" xmlns="http://www.w3.org/2000/svg" xmlns:xlink="http://www.w3.org/1999/xlink"
	 x="0px" y="0px" width="100px" height="100px" viewBox="0 0 100 100" xml:space="preserve">
<g id="Truck_1_">
	<g id="XMLID_2_">
		<g>
			<path fill="#68878F" d="M41,89v7c0,0.3-0.2,0.5-0.5,0.5h-4c0,1.9-1.6,3.5-3.5,3.5c-1.9,0-3.5-1.6-3.5-3.5h-7h-13
				c0,1.9-1.6,3.5-3.5,3.5s-3.5-1.6-3.5-3.5h-2C0.2,96.5,0,96.3,0,96v-8c0-0.2,0.1-0.3,0.2-0.4l11-8c0.1-0.1,0.2-0.1,0.3-0.1h11
				c0.3,0,0.5,0.2,0.5,0.5v3.5h9.5c0.2,0,0.4,0.1,0.5,0.3l2,4.5c0,0.1,0,0.1,0,0.2h5.5C40.8,88.5,41,88.8,41,89z M40,95.5v-1h-3
				c-0.3,0-0.5-0.2-0.5-0.5s0.2-0.5,0.5-0.5h3v-1h-3c-0.3,0-0.5-0.2-0.5-0.5s0.2-0.5,0.5-0.5h3v-2h-5v4.1c0.6,0.5,1.1,1.1,1.3,1.9
				H40z M35.5,96.5c0-1.4-1.1-2.5-2.5-2.5c-1.4,0-2.5,1.1-2.5,2.5S31.6,99,33,99C34.4,99,35.5,97.9,35.5,96.5z M34,93.2V89v-0.4
				l-1.8-4.1H23v11h6.7c0.4-1.4,1.7-2.5,3.3-2.5C33.3,93,33.7,93.1,34,93.2z M22,95.5V84v-3.5H11.7L1,88.3v7.2h1.7
				C3.1,94.1,4.5,93,6,93s2.9,1.1,3.3,2.5H22z M8.5,96.5C8.5,95.1,7.4,94,6,94s-2.5,1.1-2.5,2.5S4.6,99,6,99S8.5,97.9,8.5,96.5z"/>
			<path fill="#033743" d="M40,94.5v1h-3.7c-0.2-0.8-0.7-1.4-1.3-1.9v-4.1h5v2h-3c-0.3,0-0.5,0.2-0.5,0.5s0.2,0.5,0.5,0.5h3v1h-3
				c-0.3,0-0.5,0.2-0.5,0.5s0.2,0.5,0.5,0.5H40z"/>
			<path fill="#033743" d="M33,94c1.4,0,2.5,1.1,2.5,2.5S34.4,99,33,99c-1.4,0-2.5-1.1-2.5-2.5S31.6,94,33,94z"/>
			<path fill="#033743" d="M34,89v4.2c-0.3-0.1-0.7-0.2-1-0.2c-1.6,0-2.9,1.1-3.3,2.5H23v-11h9.2l1.8,4.1V89z M32,90v-4
				c0-0.3-0.2-0.5-0.5-0.5h-7c-0.3,0-0.5,0.2-0.5,0.5v4c0,0.3,0.2,0.5,0.5,0.5h7C31.8,90.5,32,90.3,32,90z"/>
			<path fill="#68878F" d="M32,86v4c0,0.3-0.2,0.5-0.5,0.5h-7c-0.3,0-0.5-0.2-0.5-0.5v-4c0-0.3,0.2-0.5,0.5-0.5h7
				C31.8,85.5,32,85.7,32,86z M31,89.5v-3h-6v3H31z"/>
			<rect x="25" y="86.5" fill="#033743" width="6" height="3"/>
			<path fill="#033743" d="M22,84v11.5H9.3C8.9,94.1,7.5,93,6,93s-2.9,1.1-3.3,2.5H1v-7.2l10.7-7.8H22V84z M21,94V82
				c0-0.3-0.2-0.5-0.5-0.5h-8c-0.3,0-0.5,0.2-0.5,0.5v12c0,0.3,0.2,0.5,0.5,0.5h8C20.8,94.5,21,94.3,21,94z"/>
			<path fill="#68878F" d="M21,82v12c0,0.3-0.2,0.5-0.5,0.5h-8c-0.3,0-0.5-0.2-0.5-0.5V82c0-0.3,0.2-0.5,0.5-0.5h8
				C20.8,81.5,21,81.7,21,82z M20,93.5v-11h-7v11H20z"/>
			<rect x="13" y="82.5" fill="#033743" width="7" height="11"/>
			<path fill="#68878F" d="M12,76.1v2c0,0.2-0.1,0.3-0.2,0.4l-11,8c-0.1,0.1-0.2,0.1-0.3,0.1s-0.1-0.1-0.2-0.1
				C0.1,86.4,0,86.2,0,86.1v-2c0-0.2,0.1-0.3,0.2-0.4l11-8c0.1-0.1,0.3-0.1,0.5,0C11.9,75.7,12,75.9,12,76.1z M11,77.8V77L1,84.3
				v0.8L11,77.8z"/>
			<polygon fill="#033743" points="11,77 11,77.8 1,85.1 1,84.3 			"/>
			<path fill="#033743" d="M6,94c1.4,0,2.5,1.1,2.5,2.5S7.4,99,6,99s-2.5-1.1-2.5-2.5S4.6,94,6,94z"/>
		</g>
		<g>
		</g>
	</g>
</g>
<g id="Tower_1_">
	<g id="XMLID_1_">
		<g>
			<path fill="#68878F" d="M99.6,99.4c0,0.1,0,0.1,0,0.2c0,0.3-0.2,0.4-0.4,0.4H72.9c-0.1,0-0.3-0.1-0.3-0.2
				c-0.1-0.1-0.1-0.2-0.1-0.3L76,35.8c0,0.3,0.2,0.4,0.4,0.4h0.3l-3.4,62.9h25.2l-3.4-62.9h0.4c0.3,0,0.4-0.2,0.4-0.4L99.6,99.4z"/>
			<path fill="#68878F" d="M99.6,14.1l-3.5,14.8v-0.1c0-0.3-0.2-0.4-0.4-0.4h-0.3l0.6-2.6h0.2l1.8-6.1h-0.5l1.2-5.2h-4.3v-0.9h2
				l0.6,0.6l0.7-0.6h1.5c0.2,0,0.3,0.1,0.4,0.2C99.6,13.8,99.6,14,99.6,14.1z"/>
			<path fill="#68878F" d="M98.7,0c0.7,0,1.3,0.6,1.3,1.3s-0.6,1.3-1.3,1.3c-0.2,0-0.4,0-0.6-0.1c0.1-0.2,0.1-0.4,0-0.6
				c-0.2-0.1-0.4-0.2-0.6,0c-0.1-0.2-0.2-0.4-0.2-0.6C97.4,0.6,98,0,98.7,0z M99.1,1.3c0-0.3-0.2-0.4-0.4-0.4
				c-0.3,0-0.4,0.2-0.4,0.4s0.2,0.4,0.4,0.4C99,1.8,99.1,1.6,99.1,1.3z"/>
			<path fill="#033743" d="M98.7,0.9c0.3,0,0.4,0.2,0.4,0.4S99,1.8,98.7,1.8c-0.3,0-0.4-0.2-0.4-0.4S98.4,0.9,98.7,0.9z"/>
			<path fill="#68878F" d="M98.7,5.2c0.2,1-0.1,1.8-0.7,2.4c-0.5,0.5-1.1,0.8-1.9,0.8c-0.6,0-1.2-0.2-1.7-0.5V7.4h-0.8
				C93.3,7.3,93.2,7.2,93,7c-0.7-0.7-1.2-1.7-1.3-2.5c-0.2-1,0.1-1.8,0.7-2.4c0.5-0.5,1.1-0.8,1.9-0.8c0.9,0,1.9,0.4,2.7,1.1L96.4,3
				c-0.6-0.5-1.4-0.8-2-0.8c-0.5,0-1,0.2-1.3,0.5c-0.4,0.4-0.5,1-0.4,1.7c0.1,0.7,0.5,1.5,1,2c1.1,1.1,2.9,1.4,3.7,0.6
				c0.4-0.4,0.5-1,0.4-1.7c-0.1-0.6-0.4-1.2-0.8-1.7l0.7-0.7C98.2,3.6,98.6,4.4,98.7,5.2z"/>
			<polygon fill="#033743" points="98.6,14.4 97.4,19.6 74.8,19.6 73.5,14.4 93.4,14.4 94.3,14.4 			"/>
			<polygon fill="#033743" points="95.2,36.2 98.6,99.1 73.4,99.1 76.8,36.2 			"/>
			<path fill="#68878F" d="M98.1,1.9c0.2,0.2,0.2,0.4,0,0.6c-0.2-0.1-0.5-0.3-0.6-0.6C97.7,1.8,97.9,1.8,98.1,1.9z"/>
			<path fill="#68878F" d="M98.1,2.5C98.1,2.5,98.1,2.5,98.1,2.5l-0.5,0.5c-0.1-0.1-0.2-0.2-0.3-0.3c-0.1-0.1-0.2-0.2-0.3-0.3
				l0.4-0.4c0,0,0,0,0.1,0C97.7,2.1,97.9,2.3,98.1,2.5z"/>
			<polygon fill="#68878F" points="97.8,19.6 96.1,25.8 95.9,25.8 97.4,19.6 			"/>
			<path fill="#033743" d="M97.7,5.3c0.1,0.7,0,1.2-0.4,1.7c-0.8,0.8-2.5,0.5-3.7-0.6c-0.5-0.5-1-1.3-1-2c-0.1-0.7,0-1.2,0.4-1.7
				c0.4-0.4,0.8-0.5,1.3-0.5c0.7,0,1.4,0.3,2,0.8l-1.5,1.5c-0.2,0.2-0.2,0.4,0,0.6c0.1,0.1,0.3,0.1,0.3,0.1c0.1,0,0.2,0,0.3-0.1
				L97,3.6C97.4,4.1,97.7,4.8,97.7,5.3z"/>
			<path fill="#68878F" d="M97.7,2.9L97,3.6c-0.1-0.1-0.2-0.2-0.3-0.3c-0.1-0.1-0.2-0.2-0.3-0.3l0.7-0.7c0.1,0.1,0.2,0.2,0.3,0.3
				C97.5,2.7,97.6,2.8,97.7,2.9z"/>
			<polygon fill="#68878F" points="97.7,13.5 96.9,14.1 96.3,13.5 			"/>
			<polygon fill="#68878F" points="97.7,13.5 96.3,13.5 94.3,11.5 94.3,10.2 			"/>
			<path fill="#68878F" d="M97.4,19.6l-1.4,6.1H76.2l-1.4-6.1H97.4z M96.1,24v-2.6c0-0.3-0.2-0.4-0.4-0.4s-0.4,0.2-0.4,0.4V24
				c0,0.3,0.2,0.4,0.4,0.4S96.1,24.3,96.1,24z M90.8,24v-2.6c0-0.3-0.2-0.4-0.4-0.4S90,21.1,90,21.4V24c0,0.3,0.2,0.4,0.4,0.4
				S90.8,24.3,90.8,24z M86.5,24v-2.6c0-0.3-0.2-0.4-0.4-0.4s-0.4,0.2-0.4,0.4V24c0,0.3,0.2,0.4,0.4,0.4S86.5,24.3,86.5,24z
				 M81.2,24v-2.6c0-0.3-0.2-0.4-0.4-0.4s-0.4,0.2-0.4,0.4V24c0,0.3,0.2,0.4,0.4,0.4S81.2,24.3,81.2,24z M76.9,24v-2.6
				c0-0.3-0.2-0.4-0.4-0.4c-0.3,0-0.4,0.2-0.4,0.4V24c0,0.3,0.2,0.4,0.4,0.4C76.7,24.5,76.9,24.3,76.9,24z"/>
			<path fill="#68878F" d="M97,3.6l-1.5,1.5c-0.1,0.1-0.2,0.1-0.3,0.1c-0.1,0-0.3,0-0.3-0.1c-0.2-0.2-0.2-0.4,0-0.6L96.4,3
				c0.1,0.1,0.2,0.2,0.3,0.3C96.8,3.4,96.9,3.5,97,3.6z"/>
			<path fill="#68878F" d="M96.1,35.7L96.1,35.7c0,0.3-0.2,0.5-0.4,0.5h-0.4H76.8h-0.3c-0.3,0-0.4-0.2-0.4-0.4v-0.1
				c0-0.3,0.2-0.4,0.4-0.4h0.4v0.1h18.3v-0.1h0.4C95.9,35.3,96.1,35.5,96.1,35.7z"/>
			<path fill="#68878F" d="M96.1,28.9v6.8c0-0.3-0.2-0.4-0.4-0.4h-0.4v-6h0.4C95.8,29.3,96,29.2,96.1,28.9z"/>
			<path fill="#68878F" d="M96.1,28.8L96.1,28.8c-0.1,0.4-0.3,0.4-0.4,0.4h-0.4H76.9h-0.4c-0.2,0-0.3-0.2-0.4-0.4v-0.1
				c0-0.3,0.2-0.4,0.4-0.4h0.3h18.5h0.3C95.9,28.4,96.1,28.6,96.1,28.8z"/>
			<path fill="#033743" d="M96.1,21.4V24c0,0.3-0.2,0.4-0.4,0.4s-0.4-0.2-0.4-0.4v-2.6c0-0.3,0.2-0.4,0.4-0.4S96.1,21.1,96.1,21.4z"
				/>
			<polygon fill="#033743" points="95.9,25.8 95.3,28.4 76.8,28.4 76.2,25.8 			"/>
			<rect x="76.9" y="35.3" fill="#68878F" width="18.3" height="0.1"/>
			<path fill="#033743" d="M95.2,29.3v6H76.9v-6H95.2z M90.8,33.6V31c0-0.3-0.2-0.4-0.4-0.4S90,30.7,90,31v2.6
				c0,0.3,0.2,0.4,0.4,0.4S90.8,33.9,90.8,33.6z M86.5,33.6V31c0-0.3-0.2-0.4-0.4-0.4s-0.4,0.2-0.4,0.4v2.6c0,0.3,0.2,0.4,0.4,0.4
				S86.5,33.9,86.5,33.6z M81.2,33.6V31c0-0.3-0.2-0.4-0.4-0.4s-0.4,0.2-0.4,0.4v2.6c0,0.3,0.2,0.4,0.4,0.4S81.2,33.9,81.2,33.6z"/>
			<rect x="93.4" y="13.5" fill="#68878F" width="0.9" height="0.9"/>
			<polygon fill="#68878F" points="94.3,11.5 94.3,13.5 93.4,13.5 93.4,11.5 93.9,11.1 			"/>
			<path fill="#68878F" d="M94.3,10.2v1.3l-0.4-0.4l-0.4,0.4v-1.2l0.2-0.2C93.8,10,94.1,10,94.3,10.2L94.3,10.2z"/>
			<path fill="#68878F" d="M94.3,7.9v2.3l-0.1-0.1c-0.2-0.2-0.4-0.2-0.6,0l-0.2,0.2V7.4h0.1C93.8,7.6,94.1,7.8,94.3,7.9z"/>
			<path fill="#68878F" d="M94.3,7.4v0.5c-0.3-0.1-0.6-0.3-0.8-0.5H94.3z"/>
			<path fill="#68878F" d="M93.4,13.5v0.9H73.5l1.2,5.2h-0.5l1.8,6.1h0.2l0.6,2.6h-0.3c-0.3,0-0.4,0.2-0.4,0.4v0.1l-3.5-14.8
				c0-0.1,0-0.3,0.1-0.4c0.1-0.1,0.2-0.2,0.3-0.2h4.8c0,0.3,0.2,0.4,0.4,0.4c0.3,0,0.4-0.2,0.4-0.4h11.6l0.6,0.6l0.6-0.6H93.4z"/>
			<polygon fill="#68878F" points="93.4,10.3 93.4,11.5 91.4,13.5 90.2,13.5 			"/>
			<polygon fill="#68878F" points="91.4,13.5 90.8,14.1 90.2,13.5 			"/>
			<path fill="#68878F" d="M90.8,31v2.6c0,0.3-0.2,0.4-0.4,0.4S90,33.9,90,33.6V31c0-0.3,0.2-0.4,0.4-0.4S90.8,30.7,90.8,31z"/>
			<path fill="#033743" d="M90.8,21.4V24c0,0.3-0.2,0.4-0.4,0.4S90,24.3,90,24v-2.6c0-0.3,0.2-0.4,0.4-0.4S90.8,21.1,90.8,21.4z"/>
			<path fill="#68878F" d="M86.5,31v2.6c0,0.3-0.2,0.4-0.4,0.4s-0.4-0.2-0.4-0.4V31c0-0.3,0.2-0.4,0.4-0.4S86.5,30.7,86.5,31z"/>
			<path fill="#033743" d="M86.5,21.4V24c0,0.3-0.2,0.4-0.4,0.4s-0.4-0.2-0.4-0.4v-2.6c0-0.3,0.2-0.4,0.4-0.4S86.5,21.1,86.5,21.4z"
				/>
			<path fill="#68878F" d="M86.5,7.9v2.6c0,0.3-0.2,0.4-0.4,0.4h-7.4V10h1.7c0,0.3,0.2,0.4,0.4,0.4s0.4-0.2,0.4-0.4H83
				c0,0.3,0.2,0.4,0.4,0.4c0.3,0,0.4-0.2,0.4-0.4h1.7V8.3h-1.7c0-0.3-0.2-0.4-0.4-0.4C83.2,7.9,83,8,83,8.3h-1.7
				c0-0.3-0.2-0.4-0.4-0.4S80.3,8,80.3,8.3h-1.7V7.4H86C86.3,7.4,86.5,7.6,86.5,7.9z"/>
			<rect x="83" y="8.3" fill="#68878F" width="0.9" height="1.7"/>
			<path fill="#68878F" d="M83.8,8.3H83c0-0.3,0.2-0.4,0.4-0.4C83.7,7.9,83.8,8,83.8,8.3z"/>
			<path fill="#68878F" d="M83,10h0.9c0,0.3-0.2,0.4-0.4,0.4C83.2,10.5,83,10.3,83,10z"/>
			<path fill="#68878F" d="M81.2,31v2.6c0,0.3-0.2,0.4-0.4,0.4s-0.4-0.2-0.4-0.4V31c0-0.3,0.2-0.4,0.4-0.4S81.2,30.7,81.2,31z"/>
			<path fill="#033743" d="M81.2,21.4V24c0,0.3-0.2,0.4-0.4,0.4s-0.4-0.2-0.4-0.4v-2.6c0-0.3,0.2-0.4,0.4-0.4S81.2,21.1,81.2,21.4z"
				/>
			<rect x="80.3" y="8.3" fill="#68878F" width="0.9" height="1.7"/>
			<path fill="#68878F" d="M81.2,8.3h-0.9c0-0.3,0.2-0.4,0.4-0.4S81.2,8,81.2,8.3z"/>
			<path fill="#68878F" d="M80.3,10h0.9c0,0.3-0.2,0.4-0.4,0.4S80.3,10.3,80.3,10z"/>
			<rect x="77.7" y="10.9" fill="#68878F" width="0.9" height="2.6"/>
			<rect x="77.7" y="10" fill="#68878F" width="0.9" height="0.9"/>
			<rect x="77.7" y="8.3" fill="#68878F" width="0.9" height="1.7"/>
			<rect x="77.7" y="7.4" fill="#68878F" width="0.9" height="0.9"/>
			<path fill="#68878F" d="M78.6,5.7v1.7h-0.9V5.7c0-0.3,0.2-0.4,0.4-0.4C78.4,5.2,78.6,5.4,78.6,5.7z"/>
			<path fill="#68878F" d="M77.7,13.5h0.9c0,0.3-0.2,0.4-0.4,0.4C77.9,14,77.7,13.8,77.7,13.5z"/>
			<path fill="#68878F" d="M77.7,10v0.9h-4.8c-0.3,0-0.4-0.2-0.4-0.4V7.9c0-0.3,0.2-0.4,0.4-0.4h4.8v0.9H76c0-0.3-0.2-0.4-0.4-0.4
				c-0.3,0-0.4,0.2-0.4,0.4h-1.7V10h1.7c0,0.3,0.2,0.4,0.4,0.4c0.3,0,0.4-0.2,0.4-0.4H77.7z"/>
			<path fill="#68878F" d="M76.9,29.3v6h-0.4c-0.3,0-0.4,0.2-0.4,0.4v-6.8c0.1,0.2,0.3,0.4,0.4,0.4H76.9z"/>
			<path fill="#033743" d="M76.9,21.4V24c0,0.3-0.2,0.4-0.4,0.4c-0.3,0-0.4-0.2-0.4-0.4v-2.6c0-0.3,0.2-0.4,0.4-0.4
				C76.7,21,76.9,21.1,76.9,21.4z"/>
			<polygon fill="#68878F" points="74.8,19.6 76.2,25.8 76,25.8 74.2,19.6 			"/>
			<rect x="75.1" y="8.3" fill="#68878F" width="0.9" height="1.7"/>
			<path fill="#68878F" d="M76,8.3h-0.9c0-0.3,0.2-0.4,0.4-0.4C75.8,7.9,76,8,76,8.3z"/>
			<path fill="#68878F" d="M75.1,10H76c0,0.3-0.2,0.4-0.4,0.4C75.3,10.5,75.1,10.3,75.1,10z"/>
		</g>
		<g>
		</g>
	</g>
</g>
</svg>
