<svg baseProfile="tiny"
  xmlns="http://www.w3.org/2000/svg" width="100" height="100" viewBox="0 0 100 100">
  <path fill="#68878F" d="M41 89v7c0 .3-.2.5-.5.5h-4c0 1.9-1.6 3.5-3.5 3.5s-3.5-1.6-3.5-3.5h-20c0 1.9-1.6 3.5-3.5 3.5s-3.5-1.6-3.5-3.5h-2c-.3 0-.5-.2-.5-.5v-8c0-.2.1-.3.2-.4l11-8c.1-.1.2-.1.3-.1h11c.3 0 .5.2.5.5v3.5h9.5c.2 0 .4.1.5.3l2 4.5v.2h5.5c.3 0 .5.3.5.5zm-1 6.5v-1h-3c-.3 0-.5-.2-.5-.5s.2-.5.5-.5h3v-1h-3c-.3 0-.5-.2-.5-.5s.2-.5.5-.5h3v-2h-5v4.1c.6.5 1.1 1.1 1.3 1.9H40zm-4.5 1c0-1.4-1.1-2.5-2.5-2.5s-2.5 1.1-2.5 2.5S31.6 99 33 99s2.5-1.1 2.5-2.5zM34 93.2V88.6l-1.8-4.1H23v11h6.7c.4-1.4 1.7-2.5 3.3-2.5.3 0 .7.1 1 .2zm-12 2.3v-15H11.7L1 88.3v7.2h1.7C3.1 94.1 4.5 93 6 93s2.9 1.1 3.3 2.5H22zm-13.5 1C8.5 95.1 7.4 94 6 94s-2.5 1.1-2.5 2.5S4.6 99 6 99s2.5-1.1 2.5-2.5z"/>
  <path fill="#033743" d="M40 94.5v1h-3.7c-.2-.8-.7-1.4-1.3-1.9v-4.1h5v2h-3c-.3 0-.5.2-.5.5s.2.5.5.5h3v1h-3c-.3 0-.5.2-.5.5s.2.5.5.5h3zM33 94c1.4 0 2.5 1.1 2.5 2.5S34.4 99 33 99s-2.5-1.1-2.5-2.5S31.6 94 33 94z"/>
  <path fill="#033743" d="M34 89v4.2c-.3-.1-.7-.2-1-.2-1.6 0-2.9 1.1-3.3 2.5H23v-11h9.2l1.8 4.1v.4zm-2 1v-4c0-.3-.2-.5-.5-.5h-7c-.3 0-.5.2-.5.5v4c0 .3.2.5.5.5h7c.3 0 .5-.2.5-.5z"/>
  <path fill="#68878F" d="M32 86v4c0 .3-.2.5-.5.5h-7c-.3 0-.5-.2-.5-.5v-4c0-.3.2-.5.5-.5h7c.3 0 .5.2.5.5zm-1 3.5v-3h-6v3h6z"/>
  <path fill="#033743" d="M25 86.5h6v3h-6zM22 84v11.5H9.3C8.9 94.1 7.5 93 6 93s-2.9 1.1-3.3 2.5H1v-7.2l10.7-7.8H22V84zm-1 10V82c0-.3-.2-.5-.5-.5h-8c-.3 0-.5.2-.5.5v12c0 .3.2.5.5.5h8c.3 0 .5-.2.5-.5z"/>
  <path fill="#68878F" d="M21 82v12c0 .3-.2.5-.5.5h-8c-.3 0-.5-.2-.5-.5V82c0-.3.2-.5.5-.5h8c.3 0 .5.2.5.5zm-1 11.5v-11h-7v11h7z"/>
  <path fill="#033743" d="M13 82.5h7v11h-7z"/>
  <path fill="#68878F" d="M12 76.1v2c0 .2-.1.3-.2.4l-11 8c-.1.1-.2.1-.3.1s-.1-.1-.2-.1c-.2-.1-.3-.3-.3-.4v-2c0-.2.1-.3.2-.4l11-8c.1-.1.3-.1.5 0 .2 0 .3.2.3.4zm-1 1.7V77L1 84.3v.8l10-7.3z"/>
  <path fill="#033743" d="M11 77v.8L1 85.1v-.8M6 94c1.4 0 2.5 1.1 2.5 2.5S7.4 99 6 99s-2.5-1.1-2.5-2.5S4.6 94 6 94z"/>
  <g>
    <path fill="#68878F" d="M99.6 99.4v.2c0 .3-.2.4-.4.4H72.9c-.1 0-.3-.1-.3-.2-.1-.1-.1-.2-.1-.3L76 35.8c0 .3.2.4.4.4h.3l-3.4 62.9h25.2l-3.4-62.9h.4c.3 0 .4-.2.4-.4l3.7 63.6zM99.6 14.1l-3.5 14.8v-.1c0-.3-.2-.4-.4-.4h-.3l.6-2.6h.2l1.8-6.1h-.5l1.2-5.2h-4.3v-.9h2l.6.6.7-.6h1.5c.2 0 .3.1.4.2v.3zM98.7 0c.7 0 1.3.6 1.3 1.3s-.6 1.3-1.3 1.3c-.2 0-.4 0-.6-.1.1-.2.1-.4 0-.6-.2-.1-.4-.2-.6 0-.1-.2-.2-.4-.2-.6.1-.7.7-1.3 1.4-1.3zm.4 1.3c0-.3-.2-.4-.4-.4-.3 0-.4.2-.4.4s.2.4.4.4c.3.1.4-.1.4-.4z"/>
    <path fill="#033743" d="M98.7.9c.3 0 .4.2.4.4s-.1.5-.4.5c-.3 0-.4-.2-.4-.4s.1-.5.4-.5z"/>
    <path fill="#68878F" d="M98.7 5.2c.2 1-.1 1.8-.7 2.4-.5.5-1.1.8-1.9.8-.6 0-1.2-.2-1.7-.5v-.5h-.8c-.3-.1-.4-.2-.6-.4-.7-.7-1.2-1.7-1.3-2.5-.2-1 .1-1.8.7-2.4.5-.5 1.1-.8 1.9-.8.9 0 1.9.4 2.7 1.1l-.6.6c-.6-.5-1.4-.8-2-.8-.5 0-1 .2-1.3.5-.4.4-.5 1-.4 1.7.1.7.5 1.5 1 2 1.1 1.1 2.9 1.4 3.7.6.4-.4.5-1 .4-1.7-.1-.6-.4-1.2-.8-1.7l.7-.7c.5.7.9 1.5 1 2.3z"/>
    <path fill="#033743" d="M98.6 14.4l-1.2 5.2H74.8l-1.3-5.2H94.3M95.2 36.2l3.4 62.9H73.4l3.4-62.9"/>
    <path fill="#68878F" d="M98.1 1.9c.2.2.2.4 0 .6-.2-.1-.5-.3-.6-.6.2-.1.4-.1.6 0z"/>
    <path fill="#68878F" d="M98.1 2.5l-.5.5-.3-.3-.3-.3.4-.4h.1c.2.1.4.3.6.5zM97.8 19.6l-1.7 6.2h-.2l1.5-6.2"/>
    <path fill="#033743" d="M97.7 5.3c.1.7 0 1.2-.4 1.7-.8.8-2.5.5-3.7-.6-.5-.5-1-1.3-1-2-.1-.7 0-1.2.4-1.7.4-.4.8-.5 1.3-.5.7 0 1.4.3 2 .8l-1.5 1.5c-.2.2-.2.4 0 .6.1.1.3.1.3.1.1 0 .2 0 .3-.1L97 3.6c.4.5.7 1.2.7 1.7z"/>
    <path fill="#68878F" d="M97.7 2.9l-.7.7-.3-.3-.3-.3.7-.7.3.3.3.3zM97.7 13.5l-.8.6-.6-.6M97.7 13.5h-1.4l-2-2v-1.3M97.4 19.6L96 25.7H76.2l-1.4-6.1h22.6zM96.1 24v-2.6c0-.3-.2-.4-.4-.4s-.4.2-.4.4V24c0 .3.2.4.4.4s.4-.1.4-.4zm-5.3 0v-2.6c0-.3-.2-.4-.4-.4s-.4.1-.4.4V24c0 .3.2.4.4.4s.4-.1.4-.4zm-4.3 0v-2.6c0-.3-.2-.4-.4-.4s-.4.2-.4.4V24c0 .3.2.4.4.4s.4-.1.4-.4zm-5.3 0v-2.6c0-.3-.2-.4-.4-.4s-.4.2-.4.4V24c0 .3.2.4.4.4s.4-.1.4-.4zm-4.3 0v-2.6c0-.3-.2-.4-.4-.4-.3 0-.4.2-.4.4V24c0 .3.2.4.4.4.2.1.4-.1.4-.4z"/>
    <path fill="#68878F" d="M97 3.6l-1.5 1.5c-.1.1-.2.1-.3.1-.1 0-.3 0-.3-.1-.2-.2-.2-.4 0-.6L96.4 3l.3.3.3.3zM96.1 35.7c0 .3-.2.5-.4.5H76.5c-.3 0-.4-.2-.4-.4v-.1c0-.3.2-.4.4-.4h.4v.1h18.3v-.1h.4c.3 0 .5.2.5.4z"/>
    <path fill="#68878F" d="M96.1 28.9v6.8c0-.3-.2-.4-.4-.4h-.4v-6h.4c.1 0 .3-.1.4-.4z"/>
    <path fill="#68878F" d="M96.1 28.8c-.1.4-.3.4-.4.4H76.5c-.2 0-.3-.2-.4-.4v-.1c0-.3.2-.4.4-.4h19.1c.3.1.5.3.5.5z"/>
    <path fill="#033743" d="M96.1 21.4V24c0 .3-.2.4-.4.4s-.4-.2-.4-.4v-2.6c0-.3.2-.4.4-.4s.4.1.4.4zM95.9 25.8l-.6 2.6H76.8l-.6-2.6"/>
    <path fill="#68878F" d="M76.9 35.3h18.3v.1H76.9z"/>
    <path fill="#033743" d="M95.2 29.3v6H76.9v-6h18.3zm-4.4 4.3V31c0-.3-.2-.4-.4-.4s-.4.1-.4.4v2.6c0 .3.2.4.4.4s.4-.1.4-.4zm-4.3 0V31c0-.3-.2-.4-.4-.4s-.4.2-.4.4v2.6c0 .3.2.4.4.4s.4-.1.4-.4zm-5.3 0V31c0-.3-.2-.4-.4-.4s-.4.2-.4.4v2.6c0 .3.2.4.4.4s.4-.1.4-.4z"/>
    <path fill="#68878F" d="M93.4 13.5h.9v.9h-.9zM94.3 11.5v2h-.9v-2l.5-.4"/>
    <path fill="#68878F" d="M94.3 10.2v1.3l-.4-.4-.4.4v-1.2l.2-.2c.1-.1.4-.1.6.1z"/>
    <path fill="#68878F" d="M94.3 7.9v2.3l-.1-.1c-.2-.2-.4-.2-.6 0l-.2.2V7.4h.1c.3.2.6.4.8.5z"/>
    <path fill="#68878F" d="M94.3 7.4v.5c-.3-.1-.6-.3-.8-.5h.8zM93.4 13.5v.9H73.5l1.2 5.2h-.5l1.8 6.1h.2l.6 2.6h-.3c-.3 0-.4.2-.4.4v.1L72.6 14c0-.1 0-.3.1-.4.1-.1.2-.2.3-.2h4.8c0 .3.2.4.4.4.3 0 .4-.2.4-.4h11.6l.6.6.6-.6h2z"/>
    <path fill="#68878F" d="M93.4 10.3v1.2l-2 2h-1.2M91.4 13.5l-.6.6-.6-.6M90.8 31v2.6c0 .3-.2.4-.4.4s-.4-.1-.4-.4V31c0-.3.2-.4.4-.4s.4.1.4.4z"/>
    <path fill="#033743" d="M90.8 21.4V24c0 .3-.2.4-.4.4s-.4-.1-.4-.4v-2.6c0-.3.2-.4.4-.4s.4.1.4.4z"/>
    <path fill="#68878F" d="M86.5 31v2.6c0 .3-.2.4-.4.4s-.4-.2-.4-.4V31c0-.3.2-.4.4-.4s.4.1.4.4z"/>
    <path fill="#033743" d="M86.5 21.4V24c0 .3-.2.4-.4.4s-.4-.2-.4-.4v-2.6c0-.3.2-.4.4-.4s.4.1.4.4z"/>
    <path fill="#68878F" d="M86.5 7.9v2.6c0 .3-.2.4-.4.4h-7.4V10h1.7c0 .3.2.4.4.4s.4-.2.4-.4H83c0 .3.2.4.4.4.3 0 .4-.2.4-.4h1.7V8.3h-1.7c0-.3-.2-.4-.4-.4s-.4.1-.4.4h-1.7c0-.3-.2-.4-.4-.4s-.6.1-.6.4h-1.7v-.9H86c.3 0 .5.2.5.5z"/>
    <path fill="#68878F" d="M83 8.3h.9V10H83zM83.8 8.3H83c0-.3.2-.4.4-.4.3 0 .4.1.4.4zM83 10h.9c0 .3-.2.4-.4.4-.3.1-.5-.1-.5-.4zM81.2 31v2.6c0 .3-.2.4-.4.4s-.4-.2-.4-.4V31c0-.3.2-.4.4-.4s.4.1.4.4z"/>
    <path fill="#033743" d="M81.2 21.4V24c0 .3-.2.4-.4.4s-.4-.2-.4-.4v-2.6c0-.3.2-.4.4-.4s.4.1.4.4z"/>
    <path fill="#68878F" d="M80.3 8.3h.9V10h-.9zM81.2 8.3h-.9c0-.3.2-.4.4-.4s.5.1.5.4zM80.3 10h.9c0 .3-.2.4-.4.4s-.5-.1-.5-.4zM77.7 10.9h.9v2.6h-.9zM77.7 10h.9v.9h-.9zM77.7 8.3h.9V10h-.9zM77.7 7.4h.9v.9h-.9zM78.6 5.7v1.7h-.9V5.7c0-.3.2-.4.4-.4.3-.1.5.1.5.4zM77.7 13.5h.9c0 .3-.2.4-.4.4-.3.1-.5-.1-.5-.4zM77.7 10v.9h-4.8c-.3 0-.4-.2-.4-.4V7.9c0-.3.2-.4.4-.4h4.8v.9H76c0-.3-.2-.4-.4-.4-.3 0-.4.2-.4.4h-1.7V10h1.7c0 .3.2.4.4.4.3 0 .4-.2.4-.4h1.7zM76.9 29.3v6h-.4c-.3 0-.4.2-.4.4v-6.8c.1.2.3.4.4.4h.4z"/>
    <path fill="#033743" d="M76.9 21.4V24c0 .3-.2.4-.4.4-.3 0-.4-.2-.4-.4v-2.6c0-.3.2-.4.4-.4s.4.1.4.4z"/>
    <path fill="#68878F" d="M74.8 19.6l1.4 6.2H76l-1.8-6.2M75.1 8.3h.9V10h-.9zM76 8.3h-.9c0-.3.2-.4.4-.4.3 0 .5.1.5.4zM75.1 10h.9c0 .3-.2.4-.4.4-.3.1-.5-.1-.5-.4z"/>
  </g>
</svg>
